<svg xmlns="http://www.w3.org/2000/svg" viewBox="0 0 126.02 125.43"><defs><style>.cls-1{fill:#d26174;}.cls-2{fill:#efc6cd;stroke:#000;stroke-miterlimit:10;stroke-width:2px;}.cls-3{font-size:18px;font-family:Quicksand-SemiBold, Quicksand;font-weight:600;}.cls-4{fill:#2c2c2c;fill-rule:evenodd;}</style></defs><g id="Layer_2" data-name="Layer 2"><g id="Layer_1-2" data-name="Layer 1"><path class="cls-1" d="M73.13,18.35l7.68-8.47A9,9,0,0,1,90.9,7.64,9,9,0,0,1,95,11.14a8.81,8.81,0,0,1,1.34,5.22l-.59,11.35A9,9,0,0,0,105.17,37l11.4-.58a8.9,8.9,0,0,1,9.24,10.81,8.79,8.79,0,0,1-2.73,4.66l-8.51,7.65a8.86,8.86,0,0,0-2.19,10.22,8.74,8.74,0,0,0,2.19,3l8.51,7.65a8.87,8.87,0,0,1-1.26,14.14,9,9,0,0,1-5.25,1.34l-11.4-.59a9,9,0,0,0-6.77,2.61,8.72,8.72,0,0,0-2,3.09,8.88,8.88,0,0,0-.6,3.64L96.37,116a8.87,8.87,0,0,1-5.5,8.68,9,9,0,0,1-10.06-2.27L73.13,114a8.76,8.76,0,0,0-3-2.17,8.94,8.94,0,0,0-7.26,0,8.76,8.76,0,0,0-3,2.17l-7.69,8.46a8.92,8.92,0,0,1-15.55-6.4l.58-11.35a9,9,0,0,0-9.38-9.33L16.41,96a8.93,8.93,0,0,1-8.76-5.44,8.88,8.88,0,0,1,2.24-10l8.52-7.65a9,9,0,0,0,2.19-3,8.84,8.84,0,0,0-2.19-10.22L9.89,52a8.91,8.91,0,0,1-2.72-4.66,8.88,8.88,0,0,1,4-9.48,9,9,0,0,1,5.25-1.34l11.4.58a8.92,8.92,0,0,0,9.38-9.33l-.58-11.34a8.88,8.88,0,0,1,5.47-8.72A9,9,0,0,1,52.16,9.94l7.69,8.48a8.95,8.95,0,0,0,10.28,2.12,9,9,0,0,0,3-2.19Z"/><path class="cls-2" d="M67.17,12.4l7.69-8.48a8.94,8.94,0,0,1,15.56,6.49l-.59,11.34a8.88,8.88,0,0,0,.59,3.64,9,9,0,0,0,2,3.1,9.1,9.1,0,0,0,3.11,2,9,9,0,0,0,3.66.59l11.41-.59A9,9,0,0,1,119.38,36a8.86,8.86,0,0,1-2.25,10l-8.52,7.65a8.87,8.87,0,0,0,0,13.21l8.52,7.65a8.86,8.86,0,0,1,2.25,10A8.93,8.93,0,0,1,110.62,90l-11.41-.58a9,9,0,0,0-3.66.59,9.1,9.1,0,0,0-3.11,2,8.89,8.89,0,0,0-2.61,6.74l.59,11.34a8.94,8.94,0,0,1-15.56,6.4l-7.69-8.39a8.88,8.88,0,0,0-3-2.18,9,9,0,0,0-7.27,0,8.88,8.88,0,0,0-3,2.18l-7.69,8.46a8.93,8.93,0,0,1-15.56-6.4l.59-11.35a8.89,8.89,0,0,0-2.61-6.73,8.92,8.92,0,0,0-6.77-2.6L10.45,90a9,9,0,0,1-8.76-5.45,8.9,8.9,0,0,1-.48-5.37,9,9,0,0,1,2.73-4.66l8.52-7.65a8.82,8.82,0,0,0,2.18-10.22,9,9,0,0,0-2.18-3L3.94,46.05a8.9,8.9,0,0,1,6.51-15.48l11.41.58a8.95,8.95,0,0,0,8.79-5.69,8.88,8.88,0,0,0,.59-3.64l-.59-11.35A9,9,0,0,1,46.21,4l7.69,8.48a9,9,0,0,0,6.65,2.91,9.08,9.08,0,0,0,3.63-.79,8.87,8.87,0,0,0,3-2.19Z"/><text class="cls-3" transform="translate(55.66 67.35)">+ 10</text><path class="cls-4" d="M36.71,59.81v3.34A2.57,2.57,0,0,0,38,65.24a8.16,8.16,0,0,0,4.46,1.16,8.18,8.18,0,0,0,4.46-1.16,2.59,2.59,0,0,0,1.29-2.09V59.81a.75.75,0,0,0-1.5,0v3.34c0,.33-.27.6-.64.85a6.61,6.61,0,0,1-3.61.9,6.61,6.61,0,0,1-3.61-.9c-.37-.25-.64-.52-.64-.85V59.81a.75.75,0,0,0-1.5,0Z"/><path class="cls-4" d="M36.71,63.15v3.33A2.6,2.6,0,0,0,38,68.58a8.25,8.25,0,0,0,4.46,1.15,8.27,8.27,0,0,0,4.46-1.15,2.62,2.62,0,0,0,1.29-2.1V63.15a.75.75,0,0,0-1.5,0v3.33c0,.34-.27.61-.64.86a6.7,6.7,0,0,1-3.61.89,6.7,6.7,0,0,1-3.61-.89c-.37-.25-.64-.52-.64-.86V63.15a.75.75,0,0,0-1.5,0Z"/><path class="cls-4" d="M42.46,56.56A8.18,8.18,0,0,0,38,57.72a2.35,2.35,0,0,0,0,4.19,8.19,8.19,0,0,0,4.46,1.15,8.19,8.19,0,0,0,4.46-1.15,2.35,2.35,0,0,0,0-4.19A8.18,8.18,0,0,0,42.46,56.56Zm0,1.5a6.61,6.61,0,0,1,3.61.9c.37.25.64.52.64.85s-.27.61-.64.86a6.61,6.61,0,0,1-3.61.89,6.61,6.61,0,0,1-3.61-.89c-.37-.25-.64-.52-.64-.86s.27-.6.64-.85A6.61,6.61,0,0,1,42.46,58.06Z"/><path class="cls-4" d="M30,55.21v3.34a2.36,2.36,0,0,0,.86,1.75A6.16,6.16,0,0,0,34,61.64a.75.75,0,1,0,.26-1.47,5.57,5.57,0,0,1-2.09-.78c-.35-.25-.61-.52-.61-.84V55.21a.75.75,0,0,0-1.5,0Z"/><path class="cls-4" d="M30,58.55v3.33a2.47,2.47,0,0,0,1.08,1.94,7.27,7.27,0,0,0,3.78,1.27A.75.75,0,1,0,35,63.6a5.77,5.77,0,0,1-3-1,1,1,0,0,1-.5-.76V58.55a.75.75,0,0,0-1.5,0Zm5-1.62a5.73,5.73,0,0,1-3-1,1,1,0,0,1-.5-.76c0-.33.27-.6.64-.85a6.61,6.61,0,0,1,3.61-.9,6.61,6.61,0,0,1,3.61.9c.37.25.64.52.64.85a.75.75,0,0,0,1.5,0,2.61,2.61,0,0,0-1.29-2.09A8.18,8.18,0,0,0,35.79,52a8.18,8.18,0,0,0-4.46,1.16A2.61,2.61,0,0,0,30,55.21a2.49,2.49,0,0,0,1.07,1.94,7.4,7.4,0,0,0,3.78,1.28.75.75,0,0,0,.12-1.5Z"/></g></g></svg>