<svg xmlns="http://www.w3.org/2000/svg" viewBox="0 0 50.93 55.78"><defs><style>.cls-1{fill:#fdfaf9;}.cls-2{fill:none;stroke:#000;stroke-miterlimit:10;stroke-width:2px;}</style></defs><g id="Layer_2" data-name="Layer 2"><g id="Layer_1-2" data-name="Layer 1"><path d="M31.77,34.78c16.17,28-17.77,28-1.6,0C14,62.78-3,33.39,29.37,33.39-3,33.39,14,4,30.17,32,14,4,47.94,4,31.77,32c16.17-28,33.14,1.38.8,1.38C64.91,33.39,47.94,62.78,31.77,34.78Z"/><path class="cls-1" d="M21.77,24.78c16.17,28-17.77,28-1.6,0C4,52.78-13,23.39,19.37,23.39-13,23.39,4-6,20.17,22,4-6,37.94-6,21.77,22c16.17-28,33.14,1.38.8,1.38C54.91,23.39,37.94,52.78,21.77,24.78Z"/><path class="cls-2" d="M21.77,24.78c16.17,28-17.77,28-1.6,0C4,52.78-13,23.39,19.37,23.39-13,23.39,4-6,20.17,22,4-6,37.94-6,21.77,22c16.17-28,33.14,1.38.8,1.38C54.91,23.39,37.94,52.78,21.77,24.78Z"/></g></g></svg>