<svg width="44" height="49" viewBox="0 0 44 49" fill="none" xmlns="http://www.w3.org/2000/svg">
<path d="M25.431 28.0825C39.771 52.9125 9.66099 52.9125 24.001 28.0825C9.66099 52.9125 -5.39902 26.8525 23.301 26.8525C-5.39902 26.8525 9.66099 0.7925 24.001 25.6225C9.66099 0.7925 39.771 0.7925 25.431 25.6225C39.771 0.7925 54.831 26.8525 26.131 26.8525C54.831 26.8525 39.771 52.9225 25.431 28.0825Z" fill="#774ED0"/>
<path d="M25.431 28.0825C39.771 52.9125 9.66099 52.9125 24.001 28.0825C9.66099 52.9125 -5.39902 26.8525 23.301 26.8525C-5.39902 26.8525 9.66099 0.7925 24.001 25.6225C9.66099 0.7925 39.771 0.7925 25.431 25.6225C39.771 0.7925 54.831 26.8525 26.131 26.8525C54.831 26.8525 39.771 52.9225 25.431 28.0825Z" stroke="#774ED0" stroke-width="3" stroke-miterlimit="10"/>
<path d="M20.431 23.0825C34.771 47.9125 4.66099 47.9125 19.001 23.0825C4.66099 47.9125 -10.399 21.8525 18.301 21.8525C-10.399 21.8525 4.66099 -4.2075 19.001 20.6225C4.66099 -4.2075 34.771 -4.2075 20.431 20.6225C34.771 -4.2075 49.831 21.8525 21.131 21.8525C49.831 21.8525 34.771 47.9225 20.431 23.0825Z" fill="#C2AFEA"/>
<path d="M20.431 23.0825C34.771 47.9125 4.66099 47.9125 19.001 23.0825C4.66099 47.9125 -10.399 21.8525 18.301 21.8525C-10.399 21.8525 4.66099 -4.2075 19.001 20.6225C4.66099 -4.2075 34.771 -4.2075 20.431 20.6225C34.771 -4.2075 49.831 21.8525 21.131 21.8525C49.831 21.8525 34.771 47.9225 20.431 23.0825Z" stroke="#111F14" stroke-width="3" stroke-miterlimit="10"/>
</svg>
