<svg xmlns="http://www.w3.org/2000/svg" viewBox="0 0 492.61 83.75"><defs><style>.cls-1{isolation:isolate;}.cls-2{mix-blend-mode:multiply;}.cls-3{fill:#3f824f;stroke:#3f824f;}.cls-3,.cls-4,.cls-6,.cls-8{stroke-miterlimit:10;stroke-width:3px;}.cls-4{fill:#91c99d;}.cls-4,.cls-8{stroke:#111f14;}.cls-5{fill:#e9674d;}.cls-6,.cls-8{fill:none;}.cls-6{stroke:#e9674d;}.cls-7{fill:#ef9583;}</style></defs><g class="cls-1"><g id="Layer_2" data-name="Layer 2"><g id="Layer_1-2" data-name="Layer 1"><g class="cls-2"><path class="cls-3" d="M9.5,78.44q.36-40.89,2.38-66.54a2.66,2.66,0,0,1,2.67-2.58q5.77-.4,23.39-.41,16.79,0,23.76.41a2.7,2.7,0,0,1,2.57,2.78q.47,8.15.64,20.3c0,1.3-.27,2.06-.82,2.26A4,4,0,0,1,63,35a2.86,2.86,0,0,1-2-1q-7.62-6.69-18.72-6.69a12.22,12.22,0,0,0-6.79,1.59A4.84,4.84,0,0,0,33.08,33v.52q0,4.74,9.17,4.74c1.22,0,2.54,0,4-.11s3-.15,4.72-.25l4.18-.26h.27a2.57,2.57,0,0,1,1.79.72,2.53,2.53,0,0,1,.78,2l-.09,8.34c0,1-.23,1.67-.69,1.91a2.56,2.56,0,0,1-1.06.36,2,2,0,0,1-1.19-.52A25,25,0,0,0,42.8,47.23h-.36q-9.36.21-9.36,6.49v1.65a6.52,6.52,0,0,0,3.25,5.92c2.17,1.34,5.16,2,9,2q7.15,0,11.38-2.37t7.79-8.45c.37-.69.77-1.08,1.2-1.18a4.09,4.09,0,0,1,.91-.16,2.3,2.3,0,0,1,1.38.57,2.48,2.48,0,0,1,.82,1.9q1,9.48,1.47,24.93c0,1.79-.79,2.75-2.38,2.88q-6.15.42-30.18.42-20.56,0-25.51-.42a2.84,2.84,0,0,1-1.88-.92A2.89,2.89,0,0,1,9.5,78.44Z"/><path class="cls-3" d="M48.13,10.35a2.92,2.92,0,0,1,1.93-1q4.95-.4,9.45-.41,5.77,0,11.28.41a2.62,2.62,0,0,1,2.39,2.78q.45,12.36,2.2,25.45t4,20c.48,1.58,1,2.37,1.46,2.37s1.07-.79,1.56-2.37q2.3-6.9,4-20.09T88.68,12a2.62,2.62,0,0,1,.69-1.8,2.53,2.53,0,0,1,1.7-.88q5.13-.4,10.64-.41a93.36,93.36,0,0,1,10.18.41,2.1,2.1,0,0,1,1.7.88,3.08,3.08,0,0,1,.5,1.7v.62a284.16,284.16,0,0,1-7.15,36.1,244.59,244.59,0,0,1-10,30.74,3.39,3.39,0,0,1-2.57,2.06q-3.59.42-13.58.42-9.81,0-13.3-.42a2.91,2.91,0,0,1-2.57-2.06,255.17,255.17,0,0,1-10-30.84,278.65,278.65,0,0,1-7.21-36V12A3.05,3.05,0,0,1,48.13,10.35Z"/><path class="cls-3" d="M94.94,78.44q.36-40.89,2.38-66.54A2.66,2.66,0,0,1,100,9.32q5.79-.4,23.4-.41,16.78,0,23.76.41c1.53.14,2.38,1.07,2.57,2.78q.45,8.15.64,20.3c0,1.3-.27,2.06-.83,2.26a3.9,3.9,0,0,1-1.1.31,2.86,2.86,0,0,1-2-1q-7.62-6.69-18.72-6.69a12.2,12.2,0,0,0-6.79,1.59A4.84,4.84,0,0,0,118.52,33v.52q0,4.74,9.17,4.74c1.22,0,2.54,0,3.94-.11s3-.15,4.73-.25l4.17-.26h.28a2.57,2.57,0,0,1,1.79.72,2.53,2.53,0,0,1,.78,2l-.09,8.34c0,1-.23,1.67-.69,1.91a2.56,2.56,0,0,1-1.06.36,2,2,0,0,1-1.19-.52,25,25,0,0,0-12.11-3.19h-.37q-9.36.21-9.35,6.49v1.65a6.52,6.52,0,0,0,3.25,5.92q3.26,2,9,2,7.16,0,11.37-2.37t7.8-8.45c.37-.69.77-1.08,1.19-1.18a4.25,4.25,0,0,1,.92-.16,2.3,2.3,0,0,1,1.38.57,2.48,2.48,0,0,1,.82,1.9q1,9.48,1.47,24.93c0,1.79-.79,2.75-2.38,2.88q-6.15.42-30.19.42-20.55,0-25.5-.42a2.84,2.84,0,0,1-1.88-.92A2.89,2.89,0,0,1,94.94,78.44Z"/><path class="cls-3" d="M141.07,78.54q0-32.76,2.38-66.64a3,3,0,0,1,.78-1.8,2.53,2.53,0,0,1,1.7-.88q6.69-.41,29.17-.41,26.06,0,26.06,16.38a18,18,0,0,1-5.37,13q-5.37,5.52-14.45,7.27c-.61.07-1,.22-1.15.46a1.28,1.28,0,0,0-.23.67,1.37,1.37,0,0,0,.28.72,1.57,1.57,0,0,0,1.19.52,24.93,24.93,0,0,1,16,9.16q6.19,7.64,7,21.12v.31a2.84,2.84,0,0,1-.74,2,3.19,3.19,0,0,1-1.92,1,107,107,0,0,1-10.74.42,102.55,102.55,0,0,1-10.91-.42,2.75,2.75,0,0,1-2.66-3,50.28,50.28,0,0,0-2.89-17q-2.81-7.51-6.93-9.06a1.54,1.54,0,0,0-.55-.11c-.55,0-1.05.37-1.51,1.09a6.33,6.33,0,0,0-.69,3.34V58a160.19,160.19,0,0,0,1.74,20.09,2.16,2.16,0,0,1,.09.62,2.47,2.47,0,0,1-.73,1.64,3.18,3.18,0,0,1-1.93,1q-4,.42-10.92.42a79.92,79.92,0,0,1-9.54-.42,3.27,3.27,0,0,1-1.83-1A2.67,2.67,0,0,1,141.07,78.54Zm24-37.8q.09,2.16,1.74,2.16a5,5,0,0,0,1.2-.2,17.19,17.19,0,0,0,7.52-3.25,6.43,6.43,0,0,0,2.66-5q0-5.46-8.07-5.46a23.85,23.85,0,0,0-2.66.1c-1.53.14-2.3,1.1-2.3,2.88-.06,2.55-.09,4.67-.09,6.39Z"/><path class="cls-3" d="M199.17,19.62q10-11,26.24-11.12a54.2,54.2,0,0,1,21.75,4.22,3.33,3.33,0,0,1,1.65,3,3.75,3.75,0,0,1-.09.82q-.74,8.76-1.84,17.41c-.12,1.1-.43,1.72-.92,1.85a4.43,4.43,0,0,1-1,.21,1.9,1.9,0,0,1-1.46-.72,24.34,24.34,0,0,0-16.15-5.77,12.4,12.4,0,0,0-10.23,4.79q-3.81,4.79-3.81,14,0,6.8,2.39,9.94a7.83,7.83,0,0,0,6.6,3.14h.28a7.3,7.3,0,0,0,5.78-2.83A11.21,11.21,0,0,0,230.73,51a12.86,12.86,0,0,0-1.46-6.7A3.62,3.62,0,0,1,229,43a3.55,3.55,0,0,1,.32-1.28c.22-.52.75-.81,1.61-.88q9.36-.62,20.09-1.13h.27a2.19,2.19,0,0,1,1.7.77,3.3,3.3,0,0,1,.78,2q1.29,16.68,1.29,35.84c0,1.93-.86,3-2.57,3.09-1.29.14-4,.21-8,.21s-6.87-.07-8.4-.21c-1.71-.27-2.56-1.09-2.56-2.47v-.41a71.44,71.44,0,0,0,.55-7.73,4.16,4.16,0,0,0-.28-1.9c-.18-.31-.37-.46-.55-.46a1.3,1.3,0,0,0-.69.3,4.51,4.51,0,0,0-1,1.65q-4.77,11.75-16.33,11.74-12.1,0-19.13-8.29t-7-25.18Q189.08,30.64,199.17,19.62Z"/><path class="cls-3" d="M243.53,78.54q0-32.76,2.39-66.64a3,3,0,0,1,.78-1.8,2.53,2.53,0,0,1,1.69-.88q6.71-.41,29.18-.41,26.06,0,26.05,16.38a18,18,0,0,1-5.37,13q-5.36,5.52-14.44,7.27c-.62.07-1,.22-1.15.46a1.08,1.08,0,0,0,0,1.39,1.57,1.57,0,0,0,1.19.52,25,25,0,0,1,16,9.16q6.19,7.64,7,21.12v.31a2.83,2.83,0,0,1-.73,2,3.18,3.18,0,0,1-1.93,1,106.73,106.73,0,0,1-10.73.42,102.89,102.89,0,0,1-10.92-.42,2.76,2.76,0,0,1-2.66-3,49.79,49.79,0,0,0-2.89-17q-2.79-7.51-6.92-9.06a1.58,1.58,0,0,0-.55-.11,1.92,1.92,0,0,0-1.52,1.09,6.33,6.33,0,0,0-.69,3.34V58a158.66,158.66,0,0,0,1.75,20.09,2.16,2.16,0,0,1,.09.62,2.52,2.52,0,0,1-.73,1.64,3.21,3.21,0,0,1-1.93,1q-4,.42-10.92.42a79.8,79.8,0,0,1-9.54-.42,3.3,3.3,0,0,1-1.84-1A2.67,2.67,0,0,1,243.53,78.54Zm24-37.8q.09,2.16,1.74,2.16a4.88,4.88,0,0,0,1.19-.2A17.29,17.29,0,0,0,278,39.45a6.43,6.43,0,0,0,2.66-5q0-5.46-8.08-5.46a24,24,0,0,0-2.66.1c-1.53.14-2.29,1.1-2.29,2.88-.06,2.55-.09,4.67-.09,6.39Z"/><path class="cls-3" d="M291,78.44q.38-40.89,2.39-66.54a2.65,2.65,0,0,1,2.66-2.58q5.78-.4,23.39-.41,16.8,0,23.76.41a2.7,2.7,0,0,1,2.57,2.78q.46,8.15.65,20.3c0,1.3-.28,2.06-.83,2.26a4,4,0,0,1-1.1.31,2.86,2.86,0,0,1-2-1q-7.62-6.69-18.72-6.69A12.18,12.18,0,0,0,317,28.84,4.85,4.85,0,0,0,314.62,33v.52q0,4.74,9.17,4.74c1.23,0,2.54,0,3.95-.11s3-.15,4.72-.25l4.18-.26h.27a2.56,2.56,0,0,1,2.57,2.68l-.09,8.34c0,1-.23,1.67-.69,1.91a2.57,2.57,0,0,1-1.05.36,1.91,1.91,0,0,1-1.19-.52,25.08,25.08,0,0,0-12.12-3.19H324q-9.36.21-9.36,6.49v1.65a6.53,6.53,0,0,0,3.26,5.92q3.25,2,8.94,2,7.15,0,11.38-2.37t7.8-8.45c.36-.69.76-1.08,1.19-1.18a4.15,4.15,0,0,1,.92-.16,2.3,2.3,0,0,1,1.37.57,2.48,2.48,0,0,1,.83,1.9q1,9.48,1.47,24.93c0,1.79-.8,2.75-2.39,2.88q-6.15.42-30.18.42-20.55,0-25.51-.42a2.84,2.84,0,0,1-1.88-.92A2.89,2.89,0,0,1,291,78.44Z"/><path class="cls-3" d="M337.17,78.44q.36-40.89,2.38-66.54a2.66,2.66,0,0,1,2.67-2.58q5.77-.4,23.39-.41,16.78,0,23.76.41a2.7,2.7,0,0,1,2.57,2.78q.46,8.15.64,20.3c0,1.3-.27,2.06-.82,2.26a4,4,0,0,1-1.1.31,2.86,2.86,0,0,1-2-1q-7.62-6.69-18.72-6.69a12.22,12.22,0,0,0-6.79,1.59A4.84,4.84,0,0,0,360.75,33v.52q0,4.74,9.17,4.74c1.22,0,2.54,0,3.95-.11s3-.15,4.72-.25l4.18-.26H383a2.57,2.57,0,0,1,1.79.72,2.53,2.53,0,0,1,.78,2l-.09,8.34c0,1-.23,1.67-.69,1.91a2.56,2.56,0,0,1-1.06.36,2,2,0,0,1-1.19-.52,25,25,0,0,0-12.11-3.19h-.36q-9.36.21-9.36,6.49v1.65A6.52,6.52,0,0,0,364,61.29c2.17,1.34,5.16,2,8.95,2q7.16,0,11.38-2.37t7.79-8.45c.37-.69.77-1.08,1.2-1.18a4.09,4.09,0,0,1,.91-.16,2.3,2.3,0,0,1,1.38.57,2.48,2.48,0,0,1,.82,1.9q1,9.48,1.47,24.93c0,1.79-.79,2.75-2.38,2.88q-6.15.42-30.19.42-20.55,0-25.5-.42A2.84,2.84,0,0,1,338,80.5,2.89,2.89,0,0,1,337.17,78.44Z"/><path class="cls-3" d="M383.3,78.33q0-35.83,2.57-66.33a2.72,2.72,0,0,1,2.47-2.68A38.55,38.55,0,0,1,395,8.91a36.86,36.86,0,0,1,5.87.41q3.48.42,6.05,4.12c.19.35.66,1.31,1.43,2.89s1.34,2.75,1.74,3.5,1,1.94,1.79,3.55,1.47,2.91,2,3.87l2,3.45a31.94,31.94,0,0,0,2.06,3.24c.61.82,1.24,1.63,1.88,2.42a9,9,0,0,0,1.79,1.75,2.78,2.78,0,0,0,1.56.57c.86,0,1.43-.76,1.7-2.27a26.89,26.89,0,0,0,.41-4.74q0-1.34-.18-4.17c-.12-1.88-.34-4.18-.64-6.9s-.68-5.2-1.1-7.47a2.88,2.88,0,0,1-.1-.72,3.38,3.38,0,0,1,.65-1.95,2.82,2.82,0,0,1,2-1.14A64.25,64.25,0,0,1,434,8.91a69.82,69.82,0,0,1,8.26.41A2.79,2.79,0,0,1,445,12q2.21,27.09,2.29,56.14v.51q0,13.6-9.17,13.6A12.53,12.53,0,0,1,430,79a32.21,32.21,0,0,1-6.75-7.82q-2.83-4.59-5.27-9.17a85.73,85.73,0,0,0-4.63-7.83q-2.21-3.24-3.95-3.24-2.48,0-2.66,7.82,0,2.48.28,6t.68,7.67q.42,4.13.51,5.46v.62c0,1.58-.89,2.54-2.66,2.88a79.44,79.44,0,0,1-10.09.42,73.24,73.24,0,0,1-9.45-.42,3.18,3.18,0,0,1-1.93-1A3,3,0,0,1,383.3,78.33Z"/></g><path class="cls-4" d="M1.5,71.44Q1.86,30.55,3.88,4.9A2.66,2.66,0,0,1,6.55,2.32q5.78-.4,23.39-.41,16.79,0,23.76.41A2.7,2.7,0,0,1,56.27,5.1q.46,8.15.64,20.3c0,1.3-.27,2.06-.82,2.26A4,4,0,0,1,55,28a2.86,2.86,0,0,1-2-1q-7.62-6.69-18.72-6.69a12.22,12.22,0,0,0-6.79,1.59A4.84,4.84,0,0,0,25.08,26v.52q0,4.74,9.17,4.74c1.22,0,2.54,0,4-.11s3-.15,4.72-.25l4.18-.26h.27a2.57,2.57,0,0,1,1.79.72,2.53,2.53,0,0,1,.78,2l-.09,8.34c0,1-.23,1.67-.69,1.91a2.56,2.56,0,0,1-1.06.36,2,2,0,0,1-1.19-.52A25,25,0,0,0,34.8,40.23h-.36q-9.36.21-9.36,6.49v1.65a6.52,6.52,0,0,0,3.25,5.92c2.17,1.34,5.16,2,9,2q7.15,0,11.38-2.37t7.79-8.45c.37-.69.77-1.08,1.2-1.18a4.09,4.09,0,0,1,.91-.16,2.3,2.3,0,0,1,1.38.57,2.48,2.48,0,0,1,.82,1.9q1,9.48,1.47,24.93c0,1.79-.79,2.75-2.38,2.88q-6.15.42-30.18.42-20.56,0-25.51-.42a2.84,2.84,0,0,1-1.88-.92A2.89,2.89,0,0,1,1.5,71.44Z"/><path class="cls-4" d="M40.13,3.35a2.92,2.92,0,0,1,1.93-1q4.95-.4,9.45-.41,5.77,0,11.28.41A2.62,2.62,0,0,1,65.18,5.1q.45,12.36,2.2,25.45t4,20c.48,1.58,1,2.37,1.46,2.37s1.07-.79,1.56-2.37q2.3-6.9,4-20.09T80.68,5a2.62,2.62,0,0,1,.69-1.8,2.53,2.53,0,0,1,1.7-.88q5.13-.4,10.64-.41a93.36,93.36,0,0,1,10.18.41,2.1,2.1,0,0,1,1.7.88,3.08,3.08,0,0,1,.5,1.7v.62a284.16,284.16,0,0,1-7.15,36.1,244.59,244.59,0,0,1-10,30.74,3.39,3.39,0,0,1-2.57,2.06q-3.59.42-13.58.42-9.81,0-13.3-.42a2.91,2.91,0,0,1-2.57-2.06,255.17,255.17,0,0,1-10-30.84,278.65,278.65,0,0,1-7.21-36V5A3.05,3.05,0,0,1,40.13,3.35Z"/><path class="cls-4" d="M86.94,71.44Q87.3,30.55,89.32,4.9A2.66,2.66,0,0,1,92,2.32q5.79-.4,23.4-.41,16.78,0,23.76.41c1.53.14,2.38,1.07,2.57,2.78q.45,8.15.64,20.3c0,1.3-.27,2.06-.83,2.26a3.9,3.9,0,0,1-1.1.31,2.86,2.86,0,0,1-2-1q-7.62-6.69-18.72-6.69a12.2,12.2,0,0,0-6.79,1.59A4.84,4.84,0,0,0,110.52,26v.52q0,4.74,9.17,4.74c1.22,0,2.54,0,3.94-.11s3-.15,4.73-.25l4.17-.26h.28a2.57,2.57,0,0,1,1.79.72,2.53,2.53,0,0,1,.78,2l-.09,8.34c0,1-.23,1.67-.69,1.91a2.56,2.56,0,0,1-1.06.36,2,2,0,0,1-1.19-.52,25,25,0,0,0-12.11-3.19h-.37q-9.36.21-9.35,6.49v1.65a6.52,6.52,0,0,0,3.25,5.92q3.26,2,9,2,7.16,0,11.37-2.37t7.8-8.45c.37-.69.77-1.08,1.19-1.18a4.25,4.25,0,0,1,.92-.16,2.3,2.3,0,0,1,1.38.57,2.48,2.48,0,0,1,.82,1.9q1,9.48,1.47,24.93c0,1.79-.79,2.75-2.38,2.88q-6.15.42-30.19.42-20.55,0-25.5-.42a2.84,2.84,0,0,1-1.88-.92A2.89,2.89,0,0,1,86.94,71.44Z"/><path class="cls-4" d="M133.07,71.54q0-32.76,2.38-66.64a3,3,0,0,1,.78-1.8,2.53,2.53,0,0,1,1.7-.88q6.69-.41,29.17-.41,26.06,0,26.06,16.38a18,18,0,0,1-5.37,13q-5.37,5.52-14.45,7.27c-.61.07-1,.22-1.15.46a1.28,1.28,0,0,0-.23.67,1.37,1.37,0,0,0,.28.72,1.57,1.57,0,0,0,1.19.52,24.93,24.93,0,0,1,16,9.16q6.19,7.64,7,21.12v.31a2.84,2.84,0,0,1-.74,2,3.19,3.19,0,0,1-1.92,1,107,107,0,0,1-10.74.42,102.55,102.55,0,0,1-10.91-.42,2.75,2.75,0,0,1-2.66-3,50.28,50.28,0,0,0-2.89-17q-2.81-7.51-6.93-9.06a1.54,1.54,0,0,0-.55-.11c-.55,0-1.05.37-1.51,1.09a6.33,6.33,0,0,0-.69,3.34V51a160.19,160.19,0,0,0,1.74,20.09,2.16,2.16,0,0,1,.09.62,2.47,2.47,0,0,1-.73,1.64,3.18,3.18,0,0,1-1.93,1q-4,.42-10.92.42a79.92,79.92,0,0,1-9.54-.42,3.27,3.27,0,0,1-1.83-1A2.67,2.67,0,0,1,133.07,71.54Zm24-37.8q.09,2.16,1.74,2.16a5,5,0,0,0,1.2-.2,17.19,17.19,0,0,0,7.52-3.25,6.43,6.43,0,0,0,2.66-5q0-5.46-8.07-5.46a23.85,23.85,0,0,0-2.66.1c-1.53.14-2.3,1.1-2.3,2.88-.06,2.55-.09,4.67-.09,6.39Z"/><path class="cls-4" d="M191.17,12.62q10-11,26.24-11.12a54.2,54.2,0,0,1,21.75,4.22,3.33,3.33,0,0,1,1.65,3,3.75,3.75,0,0,1-.09.82q-.74,8.76-1.84,17.41c-.12,1.1-.43,1.72-.92,1.85a4.43,4.43,0,0,1-1,.21,1.9,1.9,0,0,1-1.46-.72,24.34,24.34,0,0,0-16.15-5.77,12.4,12.4,0,0,0-10.23,4.79q-3.81,4.78-3.81,14,0,6.8,2.39,9.94a7.83,7.83,0,0,0,6.6,3.14h.28a7.3,7.3,0,0,0,5.78-2.83A11.21,11.21,0,0,0,222.73,44a12.86,12.86,0,0,0-1.46-6.7A3.62,3.62,0,0,1,221,36a3.55,3.55,0,0,1,.32-1.28c.22-.52.75-.81,1.61-.88q9.36-.62,20.09-1.13h.27a2.19,2.19,0,0,1,1.7.77,3.3,3.3,0,0,1,.78,2q1.29,16.68,1.29,35.84c0,1.93-.86,3-2.57,3.09-1.29.14-4,.21-8,.21s-6.87-.07-8.4-.21c-1.71-.27-2.56-1.09-2.56-2.47v-.41a71.44,71.44,0,0,0,.55-7.73,4.16,4.16,0,0,0-.28-1.9c-.18-.31-.37-.46-.55-.46a1.3,1.3,0,0,0-.69.3,4.51,4.51,0,0,0-1,1.65q-4.77,11.75-16.33,11.74-12.1,0-19.13-8.29t-7-25.18Q181.08,23.64,191.17,12.62Z"/><path class="cls-4" d="M235.53,71.54q0-32.76,2.39-66.64a3,3,0,0,1,.78-1.8,2.53,2.53,0,0,1,1.69-.88q6.71-.41,29.18-.41,26.06,0,26.05,16.38a18,18,0,0,1-5.37,13q-5.36,5.52-14.44,7.27c-.62.07-1,.22-1.15.46a1.08,1.08,0,0,0,0,1.39,1.57,1.57,0,0,0,1.19.52,25,25,0,0,1,16,9.16q6.19,7.64,7,21.12v.31a2.83,2.83,0,0,1-.73,2,3.18,3.18,0,0,1-1.93,1,106.73,106.73,0,0,1-10.73.42,102.89,102.89,0,0,1-10.92-.42,2.76,2.76,0,0,1-2.66-3,49.79,49.79,0,0,0-2.89-17q-2.79-7.51-6.92-9.06a1.58,1.58,0,0,0-.55-.11,1.92,1.92,0,0,0-1.52,1.09,6.33,6.33,0,0,0-.69,3.34V51a158.66,158.66,0,0,0,1.75,20.09,2.16,2.16,0,0,1,.09.62,2.52,2.52,0,0,1-.73,1.64,3.21,3.21,0,0,1-1.93,1q-4,.42-10.92.42a79.8,79.8,0,0,1-9.54-.42,3.3,3.3,0,0,1-1.84-1A2.67,2.67,0,0,1,235.53,71.54Zm24-37.8q.09,2.16,1.74,2.16a4.88,4.88,0,0,0,1.19-.2A17.29,17.29,0,0,0,270,32.45a6.43,6.43,0,0,0,2.66-5q0-5.46-8.08-5.46a24,24,0,0,0-2.66.1c-1.53.14-2.29,1.1-2.29,2.88-.06,2.55-.09,4.67-.09,6.39Z"/><path class="cls-4" d="M283,71.44q.38-40.89,2.39-66.54a2.65,2.65,0,0,1,2.66-2.58q5.78-.4,23.39-.41,16.8,0,23.76.41a2.7,2.7,0,0,1,2.57,2.78q.46,8.15.65,20.3c0,1.3-.28,2.06-.83,2.26a4,4,0,0,1-1.1.31,2.86,2.86,0,0,1-2-1q-7.62-6.69-18.72-6.69A12.18,12.18,0,0,0,309,21.84,4.85,4.85,0,0,0,306.62,26v.52q0,4.74,9.17,4.74c1.23,0,2.54,0,3.95-.11s3-.15,4.72-.25l4.18-.26h.27a2.56,2.56,0,0,1,2.57,2.68l-.09,8.34c0,1-.23,1.67-.69,1.91a2.57,2.57,0,0,1-1.05.36,1.91,1.91,0,0,1-1.19-.52,25.08,25.08,0,0,0-12.12-3.19H316q-9.36.21-9.36,6.49v1.65a6.53,6.53,0,0,0,3.26,5.92q3.25,2,8.94,2,7.15,0,11.38-2.37t7.8-8.45c.36-.69.76-1.08,1.19-1.18a4.15,4.15,0,0,1,.92-.16,2.3,2.3,0,0,1,1.37.57,2.48,2.48,0,0,1,.83,1.9q1,9.48,1.47,24.93c0,1.79-.8,2.75-2.39,2.88q-6.15.42-30.18.42-20.55,0-25.51-.42a2.84,2.84,0,0,1-1.88-.92A2.89,2.89,0,0,1,283,71.44Z"/><path class="cls-4" d="M329.17,71.44q.36-40.89,2.38-66.54a2.66,2.66,0,0,1,2.67-2.58q5.77-.4,23.39-.41,16.78,0,23.76.41a2.7,2.7,0,0,1,2.57,2.78q.46,8.15.64,20.3c0,1.3-.27,2.06-.82,2.26a4,4,0,0,1-1.1.31,2.86,2.86,0,0,1-2-1q-7.62-6.69-18.72-6.69a12.22,12.22,0,0,0-6.79,1.59A4.84,4.84,0,0,0,352.75,26v.52q0,4.74,9.17,4.74c1.22,0,2.54,0,3.95-.11s3-.15,4.72-.25l4.18-.26H375a2.57,2.57,0,0,1,1.79.72,2.53,2.53,0,0,1,.78,2l-.09,8.34c0,1-.23,1.67-.69,1.91a2.56,2.56,0,0,1-1.06.36,2,2,0,0,1-1.19-.52,25,25,0,0,0-12.11-3.19h-.36q-9.36.21-9.36,6.49v1.65A6.52,6.52,0,0,0,356,54.29c2.17,1.34,5.16,2,8.95,2q7.16,0,11.38-2.37t7.79-8.45c.37-.69.77-1.08,1.2-1.18a4.09,4.09,0,0,1,.91-.16,2.3,2.3,0,0,1,1.38.57,2.48,2.48,0,0,1,.82,1.9q1,9.48,1.47,24.93c0,1.79-.79,2.75-2.38,2.88q-6.15.42-30.19.42-20.55,0-25.5-.42A2.84,2.84,0,0,1,330,73.5,2.89,2.89,0,0,1,329.17,71.44Z"/><path class="cls-4" d="M375.3,71.33q0-35.83,2.57-66.33a2.72,2.72,0,0,1,2.47-2.68A38.55,38.55,0,0,1,387,1.91a36.86,36.86,0,0,1,5.87.41q3.48.42,6.05,4.12c.19.35.66,1.31,1.43,2.89s1.34,2.75,1.74,3.5,1,1.94,1.79,3.55,1.47,2.91,2,3.87l2,3.45a31.94,31.94,0,0,0,2.06,3.24c.61.82,1.24,1.63,1.88,2.42a9,9,0,0,0,1.79,1.75,2.78,2.78,0,0,0,1.56.57c.86,0,1.43-.76,1.7-2.27a26.89,26.89,0,0,0,.41-4.74q0-1.34-.18-4.17c-.12-1.88-.34-4.18-.64-6.9s-.68-5.2-1.1-7.47a2.88,2.88,0,0,1-.1-.72,3.38,3.38,0,0,1,.65-1.95,2.82,2.82,0,0,1,2-1.14A64.25,64.25,0,0,1,426,1.91a69.82,69.82,0,0,1,8.26.41A2.79,2.79,0,0,1,437,5q2.21,27.09,2.29,56.14v.51q0,13.6-9.17,13.6A12.53,12.53,0,0,1,422,72a32.21,32.21,0,0,1-6.75-7.82q-2.83-4.59-5.27-9.17a85.73,85.73,0,0,0-4.63-7.83q-2.21-3.24-3.95-3.24-2.48,0-2.66,7.82,0,2.48.28,6t.68,7.67q.42,4.13.51,5.46v.62c0,1.58-.89,2.54-2.66,2.88a79.44,79.44,0,0,1-10.09.42,73.24,73.24,0,0,1-9.45-.42,3.18,3.18,0,0,1-1.93-1A3,3,0,0,1,375.3,71.33Z"/><g class="cls-2"><path class="cls-5" d="M474.11,61.21c14.34,24.83-15.77,24.83-1.42,0C458.34,86,443.28,60,472,60c-28.7,0-13.64-26.06.71-1.22-14.35-24.83,15.76-24.83,1.42,0,14.34-24.83,29.4,1.22.71,1.22C503.51,60,488.45,86.05,474.11,61.21Z"/><path class="cls-6" d="M474.11,61.21c14.34,24.83-15.77,24.83-1.42,0C458.34,86,443.28,60,472,60c-28.7,0-13.64-26.06.71-1.22-14.35-24.83,15.76-24.83,1.42,0,14.34-24.83,29.4,1.22.71,1.22C503.51,60,488.45,86.05,474.11,61.21Z"/></g><path class="cls-7" d="M469.11,56.21c14.34,24.83-15.77,24.83-1.42,0C453.34,81,438.28,55,467,55c-28.7,0-13.64-26.06.71-1.22-14.35-24.83,15.76-24.83,1.42,0,14.34-24.83,29.4,1.22.71,1.22C498.51,55,483.45,81.05,469.11,56.21Z"/><path class="cls-8" d="M469.11,56.21c14.34,24.83-15.77,24.83-1.42,0C453.34,81,438.28,55,467,55c-28.7,0-13.64-26.06.71-1.22-14.35-24.83,15.76-24.83,1.42,0,14.34-24.83,29.4,1.22.71,1.22C498.51,55,483.45,81.05,469.11,56.21Z"/></g></g></g></svg>