<svg width="211" height="211" viewBox="0 0 211 211" fill="none" xmlns="http://www.w3.org/2000/svg">
<path d="M110.511 56.1219L152.129 10L148.953 72.047L211 68.8706L164.9 110.511L211 152.129L148.953 148.975L152.129 211L110.511 164.9L68.8707 211L72.047 148.975L10 152.129L56.1219 110.511L10 68.8706L72.047 72.047L68.8707 10L110.511 56.1219Z" fill="#E9A13B"/>
<path d="M99.7687 46.792L100.511 47.6143L101.253 46.7918L140.987 2.75887L137.954 61.9958L137.898 63.1023L139.004 63.0457L198.243 60.0131L154.23 99.7688L153.408 100.511L154.23 101.253L198.243 140.988L139.004 137.976L137.898 137.92L137.954 139.026L140.987 198.242L101.253 154.23L100.511 153.408L99.7688 154.23L60.0132 198.243L63.0457 139.026L63.1023 137.92L61.9962 137.976L2.75769 140.988L46.7918 101.253L47.6144 100.511L46.792 99.7686L2.7577 60.0131L61.9959 63.0457L63.1023 63.1023L63.0457 61.9958L60.0132 2.7577L99.7687 46.792Z" fill="#F6D9B0" stroke="black" stroke-width="2"/>
</svg>
