<svg width="199" height="207" viewBox="0 0 199 207" fill="none" xmlns="http://www.w3.org/2000/svg">
<path d="M105 11L117.234 62.0187C119.621 71.9741 120.815 76.9518 123.301 81.0023C125.5 84.585 128.418 87.6277 131.855 89.9202C135.74 92.512 140.515 93.7565 150.064 96.2453L199 109L150.064 121.755C140.515 124.244 135.74 125.488 131.855 128.08C128.418 130.372 125.5 133.415 123.301 136.998C120.815 141.048 119.621 146.026 117.234 155.981L105 207L92.7659 155.981C90.3787 146.026 89.185 141.048 86.699 136.998C84.5 133.415 81.5816 130.372 78.145 128.08C74.2599 125.488 69.4854 124.244 59.9363 121.755L11 109L59.9363 96.2453C69.4854 93.7565 74.2599 92.512 78.145 89.9202C81.5816 87.6277 84.5 84.585 86.699 81.0023C89.185 76.9518 90.3787 71.9741 92.7659 62.0187L105 11Z" fill="#C2AFEA"/>
<path d="M105 11L117.234 62.0187C119.621 71.9741 120.815 76.9518 123.301 81.0023C125.5 84.585 128.418 87.6277 131.855 89.9202C135.74 92.512 140.515 93.7565 150.064 96.2453L199 109L150.064 121.755C140.515 124.244 135.74 125.488 131.855 128.08C128.418 130.372 125.5 133.415 123.301 136.998C120.815 141.048 119.621 146.026 117.234 155.981L105 207L92.7659 155.981C90.3787 146.026 89.185 141.048 86.699 136.998C84.5 133.415 81.5816 130.372 78.145 128.08C74.2599 125.488 69.4854 124.244 59.9363 121.755L11 109L59.9363 96.2453C69.4854 93.7565 74.2599 92.512 78.145 89.9202C81.5816 87.6277 84.5 84.585 86.699 81.0023C89.185 76.9518 90.3787 71.9741 92.7659 62.0187L105 11Z" fill="#C2AFEA"/>
<path d="M95 1L107.234 52.0187C109.621 61.9741 110.815 66.9518 113.301 71.0023C115.5 74.585 118.418 77.6277 121.855 79.9202C125.74 82.512 130.515 83.7565 140.064 86.2453L189 99L140.064 111.755C130.515 114.244 125.74 115.488 121.855 118.08C118.418 120.372 115.5 123.415 113.301 126.998C110.815 131.048 109.621 136.026 107.234 145.981L95 197L82.7659 145.981C80.3787 136.026 79.185 131.048 76.699 126.998C74.5 123.415 71.5816 120.372 68.145 118.08C64.2599 115.488 59.4854 114.244 49.9363 111.755L1 99L49.9363 86.2453C59.4854 83.7565 64.2599 82.512 68.145 79.9202C71.5816 77.6277 74.5 74.585 76.699 71.0023C79.185 66.9518 80.3787 61.9741 82.7659 52.0187L95 1Z" fill="#E6DFF6"/>
<path d="M95 1L107.234 52.0187C109.621 61.9741 110.815 66.9518 113.301 71.0023C115.5 74.585 118.418 77.6277 121.855 79.9202C125.74 82.512 130.515 83.7565 140.064 86.2453L189 99L140.064 111.755C130.515 114.244 125.74 115.488 121.855 118.08C118.418 120.372 115.5 123.415 113.301 126.998C110.815 131.048 109.621 136.026 107.234 145.981L95 197L82.7659 145.981C80.3787 136.026 79.185 131.048 76.699 126.998C74.5 123.415 71.5816 120.372 68.145 118.08C64.2599 115.488 59.4854 114.244 49.9363 111.755L1 99L49.9363 86.2453C59.4854 83.7565 64.2599 82.512 68.145 79.9202C71.5816 77.6277 74.5 74.585 76.699 71.0023C79.185 66.9518 80.3787 61.9741 82.7659 52.0187L95 1Z" fill="#E6DFF6"/>
<path d="M95 1L82.7659 52.0187C80.3787 61.9741 79.185 66.9518 76.699 71.0023C74.5 74.585 71.5816 77.6277 68.145 79.9202C64.2599 82.512 59.4854 83.7565 49.9363 86.2453L1 99L49.9363 111.755C59.4854 114.244 64.2599 115.488 68.145 118.08C71.5816 120.372 74.5 123.415 76.699 126.998C79.185 131.048 80.3787 136.026 82.7659 145.981L95 197L107.234 145.981C109.621 136.026 110.815 131.048 113.301 126.998C115.5 123.415 118.418 120.372 121.855 118.08C125.74 115.488 130.515 114.244 140.064 111.755L189 99L140.064 86.2453C130.515 83.7565 125.74 82.512 121.855 79.9202C118.418 77.6277 115.5 74.585 113.301 71.0023C110.815 66.9518 109.621 61.9741 107.234 52.0187L95 1Z" stroke="black" stroke-width="2" stroke-linecap="round" stroke-linejoin="round"/>
</svg>
