<svg width="221" height="220" viewBox="0 0 221 220" fill="none" xmlns="http://www.w3.org/2000/svg">
<path d="M115.5 60.6357L143.764 10L142.803 67.919L192.714 38.1333L162.789 87.8124L221 86.8558L170.107 114.989L221 143.144L162.789 142.166L192.714 191.867L142.803 162.081L143.764 220L115.5 169.343L87.2356 220L88.1967 162.081L38.2644 191.867L68.2107 142.166L10 143.144L60.8934 114.989L10 86.8558L68.2107 87.8124L38.2644 38.1333L88.1967 67.919L87.2356 10L115.5 60.6357Z" fill="#62B273"/>
<path d="M104.627 51.1231L105.5 52.6874L106.373 51.1231L132.699 3.96121L131.803 57.9024L131.774 59.698L133.316 58.7777L179.796 31.0391L151.933 77.2964L151.002 78.8419L152.806 78.8123L207.005 77.9216L159.623 104.114L158.04 104.989L159.623 105.864L207.005 132.077L152.806 131.166L151.002 131.136L151.933 132.682L179.798 178.962L133.316 151.222L131.774 150.302L131.803 152.098L132.699 206.037L106.373 158.855L105.5 157.29L104.627 158.855L78.3015 206.037L79.1965 152.098L79.2263 150.302L77.6844 151.222L31.1822 178.962L59.0672 132.682L59.9989 131.136L58.1939 131.166L3.99503 132.077L51.3774 105.864L52.9598 104.989L51.3772 104.114L3.99502 77.9216L58.1942 78.8123L59.9989 78.8419L59.0671 77.2962L31.1836 31.0391L77.6844 58.7778L79.2263 59.6976L79.1965 57.9024L78.3015 3.96121L104.627 51.1231Z" fill="#C0E0C7" stroke="black" stroke-width="2"/>
</svg>
