<svg xmlns="http://www.w3.org/2000/svg" viewBox="0 0 211 210"><defs><style>.cls-1{fill:#d26174;}.cls-2{fill:#efc6cd;stroke:#000;stroke-miterlimit:10;stroke-width:2px;}</style></defs><g id="Layer_2" data-name="Layer 2"><g id="Layer_1-2" data-name="Layer 1"><path class="cls-1" d="M122.15,30.15l12.91-14.24A15.1,15.1,0,0,1,152,12.16a15,15,0,0,1,9.19,14.64l-1,19.06a14.82,14.82,0,0,0,1,6.11,15,15,0,0,0,8.62,8.58,15.18,15.18,0,0,0,6.15,1l19.15-1a15,15,0,0,1,14.71,9.14,14.88,14.88,0,0,1-3.77,16.85L191.75,99.4a14.88,14.88,0,0,0,0,22.19l14.31,12.85a14.87,14.87,0,0,1,3.77,16.85,15,15,0,0,1-14.71,9.14l-19.15-1a15.18,15.18,0,0,0-6.15,1,14.94,14.94,0,0,0-9.61,14.69l1,19.06a14.86,14.86,0,0,1-2.29,8.75,15,15,0,0,1-23.84,2l-12.91-14.1a15,15,0,0,0-22.3,0L86.94,205.05a15,15,0,0,1-23.84-2,14.83,14.83,0,0,1-2.29-8.74l1-19.06a15,15,0,0,0-9.61-14.69,15.18,15.18,0,0,0-6.15-1l-19.15,1a15.13,15.13,0,0,1-8.82-2.24,14.91,14.91,0,0,1-2.12-23.76L30.25,121.7a14.88,14.88,0,0,0,0-22.19L15.94,86.66a14.88,14.88,0,0,1-3.77-16.85,15,15,0,0,1,14.71-9.15l19.15,1A15,15,0,0,0,61.79,46l-1-19A15,15,0,0,1,79.07,11.47,15.06,15.06,0,0,1,86.94,16L99.85,30.26a15,15,0,0,0,22.3-.11Z"/><path class="cls-2" d="M112.15,20.15,125.06,5.91A15.07,15.07,0,0,1,148.94,8a14.89,14.89,0,0,1,2.25,8.77l-1,19.06a14.82,14.82,0,0,0,1,6.11,15,15,0,0,0,8.62,8.58,15.18,15.18,0,0,0,6.15,1l19.15-1a15,15,0,0,1,14.71,9.14,14.88,14.88,0,0,1-3.77,16.85L181.75,89.4a14.88,14.88,0,0,0,0,22.19l14.31,12.85a14.87,14.87,0,0,1,3.77,16.85,15,15,0,0,1-14.71,9.14l-19.15-1a15.18,15.18,0,0,0-6.15,1,14.94,14.94,0,0,0-9.61,14.69l1,19.06a14.79,14.79,0,0,1-2.29,8.75,15,15,0,0,1-23.84,2l-12.91-14.1a15,15,0,0,0-22.3,0L76.94,195.05a15,15,0,0,1-23.84-2,14.83,14.83,0,0,1-2.29-8.74l1-19.06a15,15,0,0,0-9.61-14.69,15.18,15.18,0,0,0-6.15-1l-19.15,1a15.13,15.13,0,0,1-8.82-2.24,14.91,14.91,0,0,1-2.12-23.76L20.25,111.7a14.88,14.88,0,0,0,0-22.19L5.94,76.66A14.88,14.88,0,0,1,2.17,59.81a15,15,0,0,1,14.71-9.15l19.15,1A15,15,0,0,0,51.79,36l-1-19A15,15,0,0,1,69.07,1.47,15.06,15.06,0,0,1,76.94,6L89.85,20.26a15,15,0,0,0,22.3-.11Z"/></g></g></svg>