<svg width="131" height="130" viewBox="0 0 131 130" fill="none" xmlns="http://www.w3.org/2000/svg">
<g filter="url(#filter0_d_1571_175)">
<path d="M67.2188 11.5472L75.0287 2.96206C76.2904 1.58025 77.9529 0.620597 79.7873 0.215409C81.6216 -0.189779 83.5375 -0.0205858 85.2709 0.699677C87.0043 1.41994 88.4698 2.65581 89.4656 4.23698C90.4613 5.81815 90.9382 7.66679 90.8306 9.52811L90.2349 21.0187C90.1734 22.2765 90.3778 23.5331 90.835 24.7079C91.2922 25.8827 91.9921 26.9496 92.8897 27.8401C93.7873 28.7305 94.8627 29.4248 96.0469 29.8784C97.231 30.332 98.4977 30.5348 99.7656 30.4738L111.348 29.8828C113.224 29.776 115.088 30.2492 116.682 31.237C118.275 32.2248 119.521 33.6788 120.247 35.3984C120.973 37.118 121.144 39.0187 120.735 40.8385C120.327 42.6583 119.36 44.3076 117.967 45.5592L109.313 53.3072C108.367 54.1507 107.611 55.1822 107.093 56.3347C106.576 57.4871 106.308 58.7347 106.308 59.9963C106.308 61.258 106.576 62.5056 107.093 63.658C107.611 64.8104 108.367 65.8419 109.313 66.6855L117.967 74.4334C119.36 75.685 120.327 77.3344 120.735 79.1542C121.144 80.974 120.973 82.8747 120.247 84.5943C119.521 86.3139 118.275 87.7679 116.682 88.7557C115.088 89.7435 113.224 90.2166 111.348 90.1099L99.7656 89.5189C98.4977 89.4579 97.231 89.6607 96.0469 90.1143C94.8627 90.5678 93.7873 91.2622 92.8897 92.1526C91.9921 93.0431 91.2922 94.11 90.835 95.2848C90.3778 96.4595 90.1734 97.7162 90.2349 98.9741L90.8306 110.465C90.9295 112.323 90.445 114.166 89.444 115.739C88.443 117.313 86.9747 118.54 85.2414 119.251C83.5081 119.963 81.5951 120.123 79.766 119.711C77.937 119.298 76.2819 118.333 75.0287 116.949L67.2188 108.446C66.3685 107.507 65.3288 106.757 64.1671 106.244C63.0055 105.73 61.748 105.465 60.4762 105.465C59.2044 105.465 57.9469 105.73 56.7852 106.244C55.6236 106.757 54.5839 107.507 53.7335 108.446L45.9236 117.014C44.6705 118.399 43.0154 119.364 41.1863 119.776C39.3573 120.189 37.4443 120.028 35.711 119.317C33.9777 118.606 32.5094 117.379 31.5084 115.805C30.5074 114.231 30.0229 112.388 30.1218 110.53L30.7175 99.0397C30.779 97.7819 30.5746 96.5252 30.1174 95.3504C29.6602 94.1756 28.9603 93.1088 28.0627 92.2184C27.1651 91.3279 26.0897 90.6336 24.9055 90.18C23.7214 89.7264 22.4546 89.5236 21.1868 89.5846L9.60428 90.1755C7.72808 90.2823 5.86467 89.8091 4.27086 88.8213C2.67705 87.8335 1.43131 86.3796 0.705291 84.6599C-0.0207325 82.9403 -0.191304 81.0397 0.217125 79.2199C0.625554 77.4001 1.59285 75.7507 2.98572 74.4991L11.6395 66.7511C12.5852 65.9076 13.3415 64.8761 13.8591 63.7237C14.3768 62.5712 14.6443 61.3237 14.6443 60.062C14.6443 58.8003 14.3768 57.5527 13.8591 56.4003C13.3415 55.2479 12.5852 54.2164 11.6395 53.3728L2.98572 45.6249C1.59285 44.3733 0.625554 42.724 0.217125 40.9042C-0.191304 39.0844 -0.0207325 37.1837 0.705291 35.4641C1.43131 33.7444 2.67705 32.2905 4.27086 31.3027C5.86467 30.3148 7.72808 29.8417 9.60428 29.9485L21.1868 30.5394C22.4546 30.6004 23.7214 30.3976 24.9055 29.944C26.0897 29.4905 27.1651 28.7962 28.0627 27.9057C28.9603 27.0153 29.6602 25.9484 30.1174 24.7736C30.5746 23.5988 30.779 22.3422 30.7175 21.0844L30.1218 9.59378C30.0142 7.73247 30.4911 5.88382 31.4868 4.30265C32.4826 2.72149 33.9481 1.48561 35.6815 0.765351C37.4149 0.0450887 39.3307 -0.124104 41.1651 0.281084C42.9995 0.686272 44.662 1.64592 45.9236 3.02774L53.7335 11.6128C54.5885 12.5469 55.6319 13.2921 56.7961 13.8001C57.9603 14.308 59.2192 14.5672 60.4909 14.561C61.7627 14.5549 63.019 14.2833 64.1781 13.7641C65.3372 13.2448 66.3732 12.4895 67.2188 11.5472Z" fill="#F6C3B8"/>
<path d="M89.8319 9.47634L89.8322 9.47037C89.9278 7.81746 89.5044 6.17522 88.6194 4.76987C87.7343 3.36439 86.4307 2.26449 84.8872 1.62313C83.3436 0.981726 81.637 0.830934 80.0029 1.19187C78.369 1.55279 76.8893 2.40735 75.7673 3.63632L67.9631 12.2151C67.9622 12.216 67.9614 12.217 67.9605 12.2179C67.0216 13.2634 65.8721 14.101 64.5869 14.6767C63.3005 15.253 61.9067 15.5542 60.4958 15.561C59.085 15.5679 57.6882 15.2803 56.3962 14.7166C55.1042 14.1529 53.9456 13.3256 52.9959 12.288L52.9938 12.2857L45.1851 3.70199C45.185 3.7018 45.1848 3.70161 45.1846 3.70142C44.0626 2.47276 42.5831 1.61841 40.9494 1.25755C39.3154 0.896608 37.6088 1.0474 36.0652 1.6888C34.5217 2.33017 33.2181 3.43006 32.333 4.83554C31.448 6.2409 31.0246 7.88314 31.1202 9.53605L31.1205 9.54201L31.7162 21.0326L31.7163 21.0355C31.7847 22.4338 31.5574 23.8307 31.0493 25.1363C30.5412 26.4418 29.7636 27.6269 28.767 28.6156C27.7704 29.6043 26.5768 30.3747 25.2632 30.8779C23.9496 31.381 22.5447 31.6059 21.1387 31.5383L21.1358 31.5381L9.55333 30.9472L9.54745 30.9469C7.87594 30.8517 6.2164 31.2733 4.79767 32.1526C3.37906 33.0319 2.27162 34.3251 1.62655 35.853C0.98152 37.3808 0.830109 39.0689 1.19285 40.6852C1.55555 42.3012 2.41472 43.7672 3.65345 44.8805C3.65366 44.8807 3.65388 44.8809 3.6541 44.8811L12.3052 52.6266C12.3056 52.6269 12.306 52.6273 12.3064 52.6276C13.3561 53.5643 14.1961 54.71 14.7713 55.9906C15.3468 57.2717 15.6443 58.6589 15.6443 60.062C15.6443 61.4651 15.3468 62.8523 14.7713 64.1334C14.196 65.4142 13.3558 66.5601 12.3058 67.4968C12.3056 67.497 12.3054 67.4972 12.3052 67.4974L3.6541 75.2429L89.8319 9.47634ZM89.8319 9.47634L89.2362 20.9669L89.2361 20.9698M89.8319 9.47634L89.2361 20.9698M89.2361 20.9698C89.1677 22.3682 89.395 23.765 89.9031 25.0706C90.4112 26.3762 91.1888 27.5613 92.1854 28.55C93.182 29.5387 94.3756 30.3091 95.6892 30.8123C97.0028 31.3154 98.4076 31.5403 99.8137 31.4726L99.8166 31.4725M89.2361 20.9698L99.8166 31.4725M99.8166 31.4725L111.399 30.8815L111.405 30.8812M99.8166 31.4725L111.405 30.8812M111.405 30.8812C113.076 30.7861 114.736 31.2077 116.155 32.087M111.405 30.8812L116.155 32.087M111.399 89.1112L111.405 89.1115C113.076 89.2066 114.736 88.785 116.155 87.9057C117.573 87.0265 118.681 85.7332 119.326 84.2054C119.971 82.6776 120.122 80.9894 119.76 79.3732C119.397 77.7573 118.538 76.2914 117.299 75.1781C117.299 75.1778 117.299 75.1776 117.298 75.1773L108.647 67.4318L111.399 89.1112ZM111.399 89.1112L99.8166 88.5202L99.8137 88.5201M111.399 89.1112L99.8137 88.5201M99.8137 88.5201C98.4077 88.4524 97.0028 88.6773 95.6892 89.1804C94.3756 89.6836 93.182 90.454 92.1854 91.4427C91.1888 92.4314 90.4112 93.6165 89.9031 94.9221C89.395 96.2277 89.1677 97.6246 89.2361 99.0229L89.2362 99.0258M99.8137 88.5201L89.2362 99.0258M89.2362 99.0258L89.8319 110.516L89.832 110.518M89.2362 99.0258L89.832 110.518M89.832 110.518C89.9198 112.168 89.4898 113.804 88.6003 115.203C87.7107 116.601 86.4049 117.693 84.8618 118.326C83.3186 118.959 81.6149 119.102 79.986 118.735C78.3571 118.368 76.8844 117.509 75.7702 116.277L75.7652 116.272M89.832 110.518L75.7652 116.272M75.7652 116.272L67.9598 107.774C67.9591 107.773 67.9584 107.772 67.9577 107.772C67.0135 106.73 65.8597 105.898 64.5715 105.329C63.2823 104.759 61.887 104.465 60.4762 104.465C59.0654 104.465 57.6701 104.759 56.3809 105.329C55.0917 105.899 53.9372 106.732 52.9926 107.774L45.1846 116.341L45.1822 116.343M75.7652 116.272L45.1822 116.343M45.1822 116.343C44.068 117.574 42.5953 118.433 40.9664 118.801C39.3374 119.168 37.6338 119.025 36.0906 118.392C34.5475 117.759 33.2417 116.667 32.3521 115.268C31.4626 113.87 31.0326 112.233 31.1204 110.583L31.1205 110.582M45.1822 116.343L31.1205 110.582M31.1205 110.582L31.7162 99.0915L31.7163 99.0885M31.1205 110.582L31.7163 99.0885M31.7163 99.0885C31.7847 97.6902 31.5574 96.2933 31.0493 94.9877C30.5412 93.6821 29.7636 92.4971 28.767 91.5084C27.7704 90.5198 26.5768 89.7493 25.2632 89.2461C23.9497 88.743 22.5448 88.5181 21.1387 88.5857L21.1358 88.5859M31.7163 99.0885L21.1358 88.5859M21.1358 88.5859L9.55333 89.1768L9.54746 89.1771M21.1358 88.5859L9.54746 89.1771M9.54746 89.1771C7.87594 89.2722 6.2164 88.8506 4.79767 87.9713M9.54746 89.1771L4.79767 87.9713M116.155 32.087C117.573 32.9662 118.681 34.2595 119.326 35.7873M116.155 32.087L119.326 35.7873M119.326 35.7873C119.971 37.3151 120.122 39.0032 119.76 40.6195M119.326 35.7873L119.76 40.6195M119.76 40.6195C119.397 42.2358 118.537 43.702 117.298 44.8154M119.76 40.6195L117.298 44.8154M117.298 44.8154L108.647 52.5609C108.647 52.5609 108.647 52.561 108.647 52.561C107.597 53.4979 106.757 54.6439 106.181 55.9249C105.606 57.206 105.308 58.5932 105.308 59.9963C105.308 61.3995 105.606 62.7867 106.181 64.0678C106.756 65.3483 107.596 66.4939 108.646 67.4305L117.298 44.8154ZM4.79767 87.9713C3.37906 87.0921 2.27162 85.7989 1.62655 84.271M4.79767 87.9713L1.62655 84.271M1.62655 84.271C0.981519 82.7432 0.83011 81.0551 1.19285 79.4389M1.62655 84.271L1.19285 79.4389M1.19285 79.4389C1.55548 77.8231 2.41441 76.3574 3.65276 75.2441L1.19285 79.4389Z" stroke="black" stroke-width="2"/>
</g>
<path fill-rule="evenodd" clip-rule="evenodd" d="M41.583 58.7666V62.0999C41.583 62.8708 42.028 63.6183 42.8747 64.1958C43.8813 64.8824 45.5005 65.3499 47.333 65.3499C49.1655 65.3499 50.7847 64.8824 51.7913 64.1958C52.638 63.6183 53.083 62.8708 53.083 62.0999V58.7666C53.083 58.3524 52.7472 58.0166 52.333 58.0166C51.9188 58.0166 51.583 58.3524 51.583 58.7666V62.0999C51.583 62.4341 51.313 62.7066 50.9455 62.9566C50.1322 63.5116 48.8138 63.8499 47.333 63.8499C45.8522 63.8499 44.5338 63.5116 43.7205 62.9566C43.353 62.7066 43.083 62.4341 43.083 62.0999V58.7666C43.083 58.3524 42.7472 58.0166 42.333 58.0166C41.9188 58.0166 41.583 58.3524 41.583 58.7666Z" fill="#2C2C2C"/>
<path fill-rule="evenodd" clip-rule="evenodd" d="M41.583 62.0996V65.4329C41.583 66.2038 42.028 66.9513 42.8747 67.5288C43.8813 68.2154 45.5005 68.6829 47.333 68.6829C49.1655 68.6829 50.7847 68.2154 51.7913 67.5288C52.638 66.9513 53.083 66.2038 53.083 65.4329V62.0996C53.083 61.6854 52.7472 61.3496 52.333 61.3496C51.9188 61.3496 51.583 61.6854 51.583 62.0996V65.4329C51.583 65.7671 51.313 66.0396 50.9455 66.2896C50.1322 66.8446 48.8138 67.1829 47.333 67.1829C45.8522 67.1829 44.5338 66.8446 43.7205 66.2896C43.353 66.0396 43.083 65.7671 43.083 65.4329V62.0996C43.083 61.6854 42.7472 61.3496 42.333 61.3496C41.9188 61.3496 41.583 61.6854 41.583 62.0996Z" fill="#2C2C2C"/>
<path fill-rule="evenodd" clip-rule="evenodd" d="M47.333 55.5166C45.5013 55.5166 43.8822 55.9841 42.8755 56.6708C42.0288 57.2483 41.583 57.9958 41.583 58.7666C41.583 59.5374 42.0288 60.2849 42.8755 60.8624C43.8822 61.5491 45.5013 62.0166 47.333 62.0166C49.1647 62.0166 50.7838 61.5491 51.7905 60.8624C52.6372 60.2849 53.083 59.5374 53.083 58.7666C53.083 57.9958 52.6372 57.2483 51.7905 56.6708C50.7838 55.9841 49.1647 55.5166 47.333 55.5166ZM47.333 57.0166C48.813 57.0166 50.1313 57.3558 50.9455 57.9099C51.313 58.1608 51.583 58.4324 51.583 58.7666C51.583 59.1008 51.313 59.3724 50.9455 59.6233C50.1313 60.1774 48.813 60.5166 47.333 60.5166C45.853 60.5166 44.5347 60.1774 43.7205 59.6233C43.353 59.3724 43.083 59.1008 43.083 58.7666C43.083 58.4324 43.353 58.1608 43.7205 57.9099C44.5347 57.3558 45.853 57.0166 47.333 57.0166Z" fill="#2C2C2C"/>
<path fill-rule="evenodd" clip-rule="evenodd" d="M34.916 54.167V57.5003C34.916 58.1303 35.2068 58.737 35.7718 59.2528C36.4393 59.8628 37.5293 60.3578 38.8552 60.5945C39.2627 60.667 39.6518 60.3953 39.7252 59.9878C39.7977 59.5795 39.5252 59.1903 39.1177 59.1178C38.2727 58.967 37.5435 58.6987 37.0293 58.3403C36.6752 58.0945 36.416 57.827 36.416 57.5003V54.167C36.416 53.7528 36.0802 53.417 35.666 53.417C35.2518 53.417 34.916 53.7528 34.916 54.167Z" fill="#2C2C2C"/>
<path fill-rule="evenodd" clip-rule="evenodd" d="M34.916 57.5003V60.8337C34.916 61.5378 35.2835 62.2187 35.991 62.7712C36.8268 63.4245 38.1827 63.9137 39.7735 64.047C40.186 64.0812 40.5485 63.7745 40.5827 63.362C40.6177 62.9495 40.311 62.5862 39.8985 62.552C38.6485 62.4478 37.571 62.102 36.9135 61.5887C36.6252 61.3637 36.416 61.1212 36.416 60.8337V57.5003C36.416 57.0862 36.0802 56.7503 35.666 56.7503C35.2518 56.7503 34.916 57.0862 34.916 57.5003ZM39.8885 55.8845C38.6427 55.7787 37.5677 55.4328 36.9127 54.9203C36.6243 54.6953 36.416 54.4537 36.416 54.167C36.416 53.8328 36.686 53.5612 37.0535 53.3103C37.8677 52.7562 39.186 52.417 40.666 52.417C42.146 52.417 43.4643 52.7562 44.2785 53.3103C44.646 53.5612 44.916 53.8328 44.916 54.167C44.916 54.5812 45.2518 54.917 45.666 54.917C46.0802 54.917 46.416 54.5812 46.416 54.167C46.416 53.3962 45.9702 52.6487 45.1235 52.0712C44.1168 51.3845 42.4977 50.917 40.666 50.917C38.8343 50.917 37.2152 51.3845 36.2085 52.0712C35.3618 52.6487 34.916 53.3962 34.916 54.167C34.916 54.8703 35.2827 55.5503 35.9885 56.102C36.8227 56.7545 38.176 57.2445 39.7618 57.3787C40.1743 57.4137 40.5377 57.1078 40.5727 56.6953C40.6077 56.2828 40.301 55.9195 39.8885 55.8845Z" fill="#2C2C2C"/>
<path d="M56.087 60.86C55.847 60.86 55.647 60.78 55.487 60.62C55.327 60.46 55.247 60.26 55.247 60.02C55.247 59.78 55.327 59.585 55.487 59.435C55.647 59.285 55.847 59.21 56.087 59.21H62.192C62.432 59.21 62.632 59.29 62.792 59.45C62.952 59.6 63.032 59.795 63.032 60.035C63.032 60.275 62.952 60.475 62.792 60.635C62.632 60.785 62.432 60.86 62.192 60.86H56.087ZM59.117 63.785C58.837 63.785 58.602 63.695 58.412 63.515C58.232 63.335 58.142 63.105 58.142 62.825V56.975C58.142 56.695 58.237 56.465 58.427 56.285C58.617 56.105 58.852 56.015 59.132 56.015C59.422 56.015 59.652 56.105 59.822 56.285C60.002 56.465 60.092 56.695 60.092 56.975V62.825C60.092 63.105 60.002 63.335 59.822 63.515C59.642 63.695 59.407 63.785 59.117 63.785ZM71.0929 65C70.8129 65 70.5829 64.915 70.4029 64.745C70.2229 64.565 70.1329 64.345 70.1329 64.085V56.525L70.3429 56.855L69.2479 57.665C69.1079 57.775 68.9329 57.83 68.7229 57.83C68.4829 57.83 68.2729 57.74 68.0929 57.56C67.9129 57.38 67.8229 57.165 67.8229 56.915C67.8229 56.595 67.9779 56.335 68.2879 56.135L70.4479 54.695C70.5479 54.625 70.6579 54.575 70.7779 54.545C70.9079 54.515 71.0279 54.5 71.1379 54.5C71.4279 54.5 71.6579 54.59 71.8279 54.77C71.9979 54.94 72.0829 55.155 72.0829 55.415V64.085C72.0829 64.345 71.9879 64.565 71.7979 64.745C71.6179 64.915 71.3829 65 71.0929 65Z" fill="black"/>
<defs>
<filter id="filter0_d_1571_175" x="0" y="0" width="130.952" height="130" filterUnits="userSpaceOnUse" color-interpolation-filters="sRGB">
<feFlood flood-opacity="0" result="BackgroundImageFix"/>
<feColorMatrix in="SourceAlpha" type="matrix" values="0 0 0 0 0 0 0 0 0 0 0 0 0 0 0 0 0 0 127 0" result="hardAlpha"/>
<feOffset dx="10" dy="10"/>
<feComposite in2="hardAlpha" operator="out"/>
<feColorMatrix type="matrix" values="0 0 0 0 0.913725 0 0 0 0 0.403922 0 0 0 0 0.301961 0 0 0 1 0"/>
<feBlend mode="normal" in2="BackgroundImageFix" result="effect1_dropShadow_1571_175"/>
<feBlend mode="normal" in="SourceGraphic" in2="effect1_dropShadow_1571_175" result="shape"/>
</filter>
</defs>
</svg>
