<svg width="130" height="130" viewBox="0 0 130 130" fill="none" xmlns="http://www.w3.org/2000/svg">
<g filter="url(#filter0_d_392_118)">
<path d="M60.0065 27.5354L84.8533 0L82.957 37.043L120 35.1467L92.4776 60.0065L120 84.8533L82.957 82.97L84.8533 120L60.0065 92.4775L35.1467 120L37.043 82.97L0 84.8533L27.5355 60.0065L0 35.1467L37.043 37.043L35.1467 0L60.0065 27.5354Z" fill="#FDF9F9"/>
<path d="M59.2643 28.2056L60.0067 29.0279L60.7489 28.2054L83.7108 2.75887L81.9583 36.9918L81.9017 38.0983L83.0082 38.0417L117.243 36.2891L91.8073 59.2644L90.9855 60.0067L91.8074 60.7488L117.243 83.7119L83.0078 81.9713L81.9017 81.9151L81.9584 83.0212L83.7108 117.242L60.7488 91.8074L60.0067 90.9855L59.2644 91.8073L36.2892 117.243L38.0417 83.0212L38.0983 81.9151L36.9922 81.9713L2.75771 83.7118L28.2054 60.7489L29.0279 60.0067L28.2056 59.2643L2.7577 36.2891L36.9919 38.0417L38.0983 38.0983L38.0417 36.9918L36.2892 2.7577L59.2643 28.2056Z" stroke="black" stroke-width="2"/>
</g>
<defs>
<filter id="filter0_d_392_118" x="0" y="0" width="130" height="130" filterUnits="userSpaceOnUse" color-interpolation-filters="sRGB">
<feFlood flood-opacity="0" result="BackgroundImageFix"/>
<feColorMatrix in="SourceAlpha" type="matrix" values="0 0 0 0 0 0 0 0 0 0 0 0 0 0 0 0 0 0 127 0" result="hardAlpha"/>
<feOffset dx="10" dy="10"/>
<feComposite in2="hardAlpha" operator="out"/>
<feColorMatrix type="matrix" values="0 0 0 0 0.0196078 0 0 0 0 0.0431373 0 0 0 0 0.0235294 0 0 0 1 0"/>
<feBlend mode="normal" in2="BackgroundImageFix" result="effect1_dropShadow_392_118"/>
<feBlend mode="normal" in="SourceGraphic" in2="effect1_dropShadow_392_118" result="shape"/>
</filter>
</defs>
</svg>
