<svg xmlns="http://www.w3.org/2000/svg" viewBox="0 0 147.92 147.92"><defs><style>.cls-1{fill:#62b273;}.cls-2{fill:#c0e0c7;stroke:#000;stroke-width:2px;}.cls-3{font-size:18px;font-family:Quicksand-SemiBold, Quicksand;font-weight:600;}.cls-4{fill:#2c2c2c;fill-rule:evenodd;}</style></defs><g id="Layer_2" data-name="Layer 2"><g id="Layer_1-2" data-name="Layer 1"><path class="cls-1" d="M46.06,65.79l.68-.25-.31-.65-16.74-35L64.76,46.48l.66.31.24-.68L78.58,9.52,91.66,46l.25.69.65-.32,35-16.72L111,64.77l-.31.65.68.25,36.57,12.91L111.4,91.65l-.68.24.31.66,16.72,35L92.69,111l-.65-.31-.24.68L78.86,147.92,65.8,111.39l-.24-.68-.66.31-35,16.73L46.48,92.68l.31-.66-.68-.24L9.53,78.86Z"/><path class="cls-2" d="M39.52,59.25,40.2,59l-.31-.65-16.74-35L58.22,39.94l.66.31.24-.68L72,3,85.12,39.5l.25.69.65-.32,35-16.72L104.44,58.23l-.31.65.68.24L141.38,72,104.86,85.11l-.68.24.31.65,16.72,35L86.15,104.43l-.65-.31-.24.68L72.32,141.38,59.26,104.85l-.24-.68-.66.31-35,16.73L39.94,86.14l.31-.66-.68-.24L3,72.32Z"/><text class="cls-3" transform="translate(70.77 80.69)">+ 3</text><path class="cls-4" d="M53.61,74.14v3.33a2.61,2.61,0,0,0,1.3,2.1,9.2,9.2,0,0,0,8.91,0,2.6,2.6,0,0,0,1.29-2.1V74.14a.75.75,0,0,0-1.5,0v3.33c0,.34-.27.61-.63.86a7.79,7.79,0,0,1-7.23,0c-.37-.25-.64-.52-.64-.86V74.14a.75.75,0,0,0-1.5,0Z"/><path class="cls-4" d="M53.61,77.47V80.8a2.6,2.6,0,0,0,1.3,2.1,9.2,9.2,0,0,0,8.91,0,2.58,2.58,0,0,0,1.29-2.1V77.47a.75.75,0,0,0-1.5,0V80.8c0,.34-.27.61-.63.86a7.79,7.79,0,0,1-7.23,0c-.37-.25-.64-.52-.64-.86V77.47a.75.75,0,0,0-1.5,0Z"/><path class="cls-4" d="M59.36,70.89A8.21,8.21,0,0,0,54.91,72a2.61,2.61,0,0,0-1.3,2.1,2.58,2.58,0,0,0,1.3,2.09,9.13,9.13,0,0,0,8.91,0,2.57,2.57,0,0,0,1.29-2.09A2.6,2.6,0,0,0,63.82,72,8.22,8.22,0,0,0,59.36,70.89Zm0,1.5a6.76,6.76,0,0,1,3.62.89c.36.25.63.52.63.86s-.27.6-.63.86a7.79,7.79,0,0,1-7.23,0c-.37-.26-.64-.53-.64-.86s.27-.61.64-.86A6.72,6.72,0,0,1,59.36,72.39Z"/><path class="cls-4" d="M47,69.54v3.33a2.37,2.37,0,0,0,.85,1.75A6.33,6.33,0,0,0,50.89,76a.76.76,0,0,0,.87-.61.75.75,0,0,0-.61-.87,5.34,5.34,0,0,1-2.09-.78c-.35-.24-.61-.51-.61-.84V69.54a.75.75,0,0,0-1.5,0Z"/><path class="cls-4" d="M47,72.87v3.34A2.49,2.49,0,0,0,48,78.14a7.22,7.22,0,0,0,3.79,1.28.75.75,0,0,0,.12-1.5,5.74,5.74,0,0,1-3-1,1,1,0,0,1-.5-.75V72.87a.75.75,0,0,0-1.5,0Zm5-1.61a5.86,5.86,0,0,1-3-1,1,1,0,0,1-.49-.75c0-.34.27-.61.64-.86a6.7,6.7,0,0,1,3.61-.89,6.7,6.7,0,0,1,3.61.89c.37.25.64.52.64.86a.75.75,0,0,0,1.5,0,2.62,2.62,0,0,0-1.29-2.1,9.22,9.22,0,0,0-8.92,0A2.6,2.6,0,0,0,47,69.54,2.46,2.46,0,0,0,48,71.47a7.18,7.18,0,0,0,3.77,1.28.75.75,0,0,0,.13-1.49Z"/></g></g></svg>