<svg width="134" height="130" viewBox="0 0 134 130" fill="none" xmlns="http://www.w3.org/2000/svg">
<g filter="url(#filter0_d_1571_176)">
<g filter="url(#filter1_d_1571_176)">
<path d="M64.0065 27.5354L88.8533 0L86.957 37.043L124 35.1467L96.4776 60.0065L124 84.8533L86.957 82.97L88.8533 120L64.0065 92.4775L39.1467 120L41.043 82.97L4 84.8533L31.5355 60.0065L4 35.1467L41.043 37.043L39.1467 0L64.0065 27.5354Z" fill="#C0E0C7"/>
<path d="M63.2643 28.2056L64.0067 29.0279L64.7489 28.2054L87.7108 2.75887L85.9583 36.9918L85.9017 38.0983L87.0082 38.0417L121.243 36.2891L95.8073 59.2644L94.9855 60.0067L95.8074 60.7488L121.243 83.7119L87.0078 81.9713L85.9017 81.9151L85.9584 83.0212L87.7108 117.242L64.7488 91.8074L64.0067 90.9855L63.2644 91.8073L40.2892 117.243L42.0417 83.0212L42.0983 81.9151L40.9922 81.9713L6.75771 83.7118L32.2054 60.7489L33.0279 60.0067L32.2056 59.2643L6.7577 36.2891L40.9919 38.0417L42.0983 38.0983L42.0417 36.9918L40.2892 2.7577L63.2643 28.2056Z" stroke="black" stroke-width="2"/>
</g>
<path fill-rule="evenodd" clip-rule="evenodd" d="M46.583 59.7666V63.0999C46.583 63.8708 47.028 64.6183 47.8747 65.1958C48.8813 65.8824 50.5005 66.3499 52.333 66.3499C54.1655 66.3499 55.7847 65.8824 56.7913 65.1958C57.638 64.6183 58.083 63.8708 58.083 63.0999V59.7666C58.083 59.3524 57.7472 59.0166 57.333 59.0166C56.9188 59.0166 56.583 59.3524 56.583 59.7666V63.0999C56.583 63.4341 56.313 63.7066 55.9455 63.9566C55.1322 64.5116 53.8138 64.8499 52.333 64.8499C50.8522 64.8499 49.5338 64.5116 48.7205 63.9566C48.353 63.7066 48.083 63.4341 48.083 63.0999V59.7666C48.083 59.3524 47.7472 59.0166 47.333 59.0166C46.9188 59.0166 46.583 59.3524 46.583 59.7666Z" fill="#2C2C2C"/>
<path fill-rule="evenodd" clip-rule="evenodd" d="M46.583 63.0996V66.4329C46.583 67.2038 47.028 67.9513 47.8747 68.5288C48.8813 69.2154 50.5005 69.6829 52.333 69.6829C54.1655 69.6829 55.7847 69.2154 56.7913 68.5288C57.638 67.9513 58.083 67.2038 58.083 66.4329V63.0996C58.083 62.6854 57.7472 62.3496 57.333 62.3496C56.9188 62.3496 56.583 62.6854 56.583 63.0996V66.4329C56.583 66.7671 56.313 67.0396 55.9455 67.2896C55.1322 67.8446 53.8138 68.1829 52.333 68.1829C50.8522 68.1829 49.5338 67.8446 48.7205 67.2896C48.353 67.0396 48.083 66.7671 48.083 66.4329V63.0996C48.083 62.6854 47.7472 62.3496 47.333 62.3496C46.9188 62.3496 46.583 62.6854 46.583 63.0996Z" fill="#2C2C2C"/>
<path fill-rule="evenodd" clip-rule="evenodd" d="M52.333 56.5166C50.5013 56.5166 48.8822 56.9841 47.8755 57.6708C47.0288 58.2483 46.583 58.9958 46.583 59.7666C46.583 60.5374 47.0288 61.2849 47.8755 61.8624C48.8822 62.5491 50.5013 63.0166 52.333 63.0166C54.1647 63.0166 55.7838 62.5491 56.7905 61.8624C57.6372 61.2849 58.083 60.5374 58.083 59.7666C58.083 58.9958 57.6372 58.2483 56.7905 57.6708C55.7838 56.9841 54.1647 56.5166 52.333 56.5166ZM52.333 58.0166C53.813 58.0166 55.1313 58.3558 55.9455 58.9099C56.313 59.1608 56.583 59.4324 56.583 59.7666C56.583 60.1008 56.313 60.3724 55.9455 60.6233C55.1313 61.1774 53.813 61.5166 52.333 61.5166C50.853 61.5166 49.5347 61.1774 48.7205 60.6233C48.353 60.3724 48.083 60.1008 48.083 59.7666C48.083 59.4324 48.353 59.1608 48.7205 58.9099C49.5347 58.3558 50.853 58.0166 52.333 58.0166Z" fill="#2C2C2C"/>
<path fill-rule="evenodd" clip-rule="evenodd" d="M39.916 55.167V58.5003C39.916 59.1303 40.2068 59.737 40.7718 60.2528C41.4393 60.8628 42.5293 61.3578 43.8552 61.5945C44.2627 61.667 44.6518 61.3953 44.7252 60.9878C44.7977 60.5795 44.5252 60.1903 44.1177 60.1178C43.2727 59.967 42.5435 59.6987 42.0293 59.3403C41.6752 59.0945 41.416 58.827 41.416 58.5003V55.167C41.416 54.7528 41.0802 54.417 40.666 54.417C40.2518 54.417 39.916 54.7528 39.916 55.167Z" fill="#2C2C2C"/>
<path fill-rule="evenodd" clip-rule="evenodd" d="M39.916 58.5003V61.8337C39.916 62.5378 40.2835 63.2187 40.991 63.7712C41.8268 64.4245 43.1827 64.9137 44.7735 65.047C45.186 65.0812 45.5485 64.7745 45.5827 64.362C45.6177 63.9495 45.311 63.5862 44.8985 63.552C43.6485 63.4478 42.571 63.102 41.9135 62.5887C41.6252 62.3637 41.416 62.1212 41.416 61.8337V58.5003C41.416 58.0862 41.0802 57.7503 40.666 57.7503C40.2518 57.7503 39.916 58.0862 39.916 58.5003ZM44.8885 56.8845C43.6427 56.7787 42.5677 56.4328 41.9127 55.9203C41.6243 55.6953 41.416 55.4537 41.416 55.167C41.416 54.8328 41.686 54.5612 42.0535 54.3103C42.8677 53.7562 44.186 53.417 45.666 53.417C47.146 53.417 48.4643 53.7562 49.2785 54.3103C49.646 54.5612 49.916 54.8328 49.916 55.167C49.916 55.5812 50.2518 55.917 50.666 55.917C51.0802 55.917 51.416 55.5812 51.416 55.167C51.416 54.3962 50.9702 53.6487 50.1235 53.0712C49.1168 52.3845 47.4977 51.917 45.666 51.917C43.8343 51.917 42.2152 52.3845 41.2085 53.0712C40.3618 53.6487 39.916 54.3962 39.916 55.167C39.916 55.8703 40.2827 56.5503 40.9885 57.102C41.8227 57.7545 43.176 58.2445 44.7618 58.3787C45.1743 58.4137 45.5377 58.1078 45.5727 57.6953C45.6077 57.2828 45.301 56.9195 44.8885 56.8845Z" fill="#2C2C2C"/>
<path d="M59.9737 61.86C59.7337 61.86 59.5337 61.78 59.3737 61.62C59.2137 61.46 59.1337 61.26 59.1337 61.02C59.1337 60.78 59.2137 60.585 59.3737 60.435C59.5337 60.285 59.7337 60.21 59.9737 60.21H66.0787C66.3187 60.21 66.5187 60.29 66.6787 60.45C66.8387 60.6 66.9187 60.795 66.9187 61.035C66.9187 61.275 66.8387 61.475 66.6787 61.635C66.5187 61.785 66.3187 61.86 66.0787 61.86H59.9737ZM63.0037 64.785C62.7237 64.785 62.4887 64.695 62.2987 64.515C62.1187 64.335 62.0287 64.105 62.0287 63.825V57.975C62.0287 57.695 62.1237 57.465 62.3137 57.285C62.5037 57.105 62.7387 57.015 63.0187 57.015C63.3087 57.015 63.5387 57.105 63.7087 57.285C63.8887 57.465 63.9787 57.695 63.9787 57.975V63.825C63.9787 64.105 63.8887 64.335 63.7087 64.515C63.5287 64.695 63.2937 64.785 63.0037 64.785ZM73.0897 63.885C73.1797 63.885 73.2747 63.9 73.3747 63.93C73.4847 63.96 73.6047 64.02 73.7347 64.11C73.9047 64.24 74.1047 64.355 74.3347 64.455C74.5747 64.555 74.8497 64.605 75.1597 64.605C75.4697 64.605 75.7597 64.53 76.0297 64.38C76.3097 64.22 76.5397 64 76.7197 63.72C76.8997 63.43 76.9897 63.085 76.9897 62.685C76.9897 62.305 76.9097 61.99 76.7497 61.74C76.5997 61.49 76.3947 61.3 76.1347 61.17C75.8847 61.04 75.6147 60.975 75.3247 60.975C75.1047 60.975 74.9197 60.995 74.7697 61.035C74.6297 61.075 74.4897 61.12 74.3497 61.17C74.2197 61.21 74.0647 61.23 73.8847 61.23C73.6547 61.23 73.4747 61.15 73.3447 60.99C73.2247 60.83 73.1647 60.64 73.1647 60.42C73.1647 60.28 73.1897 60.155 73.2397 60.045C73.2997 59.935 73.3847 59.815 73.4947 59.685L76.1347 56.88L76.5397 57.225H72.8497C72.6097 57.225 72.4097 57.145 72.2497 56.985C72.0897 56.825 72.0097 56.625 72.0097 56.385C72.0097 56.155 72.0897 55.965 72.2497 55.815C72.4097 55.655 72.6097 55.575 72.8497 55.575H77.4397C77.7497 55.575 77.9797 55.66 78.1297 55.83C78.2897 56 78.3697 56.215 78.3697 56.475C78.3697 56.605 78.3347 56.735 78.2647 56.865C78.1947 56.985 78.1097 57.095 78.0097 57.195L75.3547 60.045L74.9497 59.535C75.0597 59.485 75.2097 59.44 75.3997 59.4C75.5997 59.36 75.7647 59.34 75.8947 59.34C76.4847 59.34 76.9947 59.495 77.4247 59.805C77.8647 60.105 78.1997 60.5 78.4297 60.99C78.6697 61.47 78.7897 61.99 78.7897 62.55C78.7897 63.29 78.6247 63.93 78.2947 64.47C77.9647 65.01 77.4997 65.425 76.8997 65.715C76.2997 66.005 75.5997 66.15 74.7997 66.15C74.4297 66.15 74.0647 66.105 73.7047 66.015C73.3447 65.925 73.0347 65.805 72.7747 65.655C72.5547 65.535 72.4047 65.405 72.3247 65.265C72.2547 65.115 72.2197 64.975 72.2197 64.845C72.2197 64.615 72.2997 64.4 72.4597 64.2C72.6297 63.99 72.8397 63.885 73.0897 63.885Z" fill="black"/>
</g>
<defs>
<filter id="filter0_d_1571_176" x="0" y="0" width="128" height="128" filterUnits="userSpaceOnUse" color-interpolation-filters="sRGB">
<feFlood flood-opacity="0" result="BackgroundImageFix"/>
<feColorMatrix in="SourceAlpha" type="matrix" values="0 0 0 0 0 0 0 0 0 0 0 0 0 0 0 0 0 0 127 0" result="hardAlpha"/>
<feOffset dy="4"/>
<feGaussianBlur stdDeviation="2"/>
<feComposite in2="hardAlpha" operator="out"/>
<feColorMatrix type="matrix" values="0 0 0 0 0 0 0 0 0 0 0 0 0 0 0 0 0 0 0.25 0"/>
<feBlend mode="normal" in2="BackgroundImageFix" result="effect1_dropShadow_1571_176"/>
<feBlend mode="normal" in="SourceGraphic" in2="effect1_dropShadow_1571_176" result="shape"/>
</filter>
<filter id="filter1_d_1571_176" x="4" y="0" width="130" height="130" filterUnits="userSpaceOnUse" color-interpolation-filters="sRGB">
<feFlood flood-opacity="0" result="BackgroundImageFix"/>
<feColorMatrix in="SourceAlpha" type="matrix" values="0 0 0 0 0 0 0 0 0 0 0 0 0 0 0 0 0 0 127 0" result="hardAlpha"/>
<feOffset dx="10" dy="10"/>
<feComposite in2="hardAlpha" operator="out"/>
<feColorMatrix type="matrix" values="0 0 0 0 0.384314 0 0 0 0 0.698039 0 0 0 0 0.45098 0 0 0 1 0"/>
<feBlend mode="normal" in2="BackgroundImageFix" result="effect1_dropShadow_1571_176"/>
<feBlend mode="normal" in="SourceGraphic" in2="effect1_dropShadow_1571_176" result="shape"/>
</filter>
</defs>
</svg>
