<svg xmlns="http://www.w3.org/2000/svg" viewBox="0 0 147.92 147.92"><defs><style>.cls-1{fill:#fdfaf9;stroke:#000;stroke-miterlimit:10;stroke-width:2px;}</style></defs><g id="Layer_2" data-name="Layer 2"><g id="Layer_1-2" data-name="Layer 1"><path d="M46.06,65.79l.68-.25-.31-.65-16.74-35L64.76,46.48l.66.31.24-.68L78.58,9.52,91.66,46l.25.69.65-.32,35-16.72L111,64.77l-.31.65.68.25,36.57,12.91L111.4,91.65l-.68.24.31.66,16.72,35L92.69,111l-.65-.31-.24.68L78.86,147.92,65.8,111.39l-.24-.68-.66.31-35,16.73L46.48,92.68l.31-.66-.68-.24L9.53,78.86Z"/><path class="cls-1" d="M39.52,59.25,40.2,59l-.31-.65-16.74-35L58.22,39.94l.66.31.24-.68L72,3,85.12,39.5l.25.69.65-.32,35-16.72L104.44,58.23l-.31.65.68.24L141.38,72,104.86,85.11l-.68.24.31.65,16.72,35L86.15,104.43l-.65-.31-.24.68L72.32,141.38,59.26,104.85l-.24-.68-.66.31-35,16.73L39.94,86.14l.31-.66-.68-.24L3,72.32Z"/></g></g></svg>