<svg xmlns="http://www.w3.org/2000/svg" viewBox="0 0 139.4 145.88"><defs><style>.cls-1{fill:#fdfaf9;stroke:#000;stroke-miterlimit:10;stroke-width:2px;}</style></defs><g id="Layer_2" data-name="Layer 2"><g id="Layer_1-2" data-name="Layer 1"><path d="M75.1,11.81l8.37,34.9c1.63,6.81,2.45,10.21,4.15,13a19.6,19.6,0,0,0,5.85,6.1c2.66,1.78,5.92,2.63,12.46,4.33l33.47,8.72-33.47,8.73c-6.54,1.7-9.8,2.55-12.46,4.33A19.49,19.49,0,0,0,87.62,98c-1.7,2.77-2.52,6.17-4.15,13l-8.37,34.9L66.73,111c-1.63-6.81-2.45-10.21-4.15-13a19.49,19.49,0,0,0-5.85-6.1c-2.66-1.78-5.92-2.63-12.45-4.33L10.8,78.84l33.48-8.72c6.53-1.7,9.79-2.55,12.45-4.33a19.6,19.6,0,0,0,5.85-6.1c1.7-2.77,2.52-6.17,4.15-13Z"/><path class="cls-1" d="M68.26,4.29l8.37,34.9c1.63,6.8,2.45,10.21,4.15,13a19.7,19.7,0,0,0,5.85,6.1c2.66,1.77,5.92,2.62,12.46,4.33l33.47,8.72L99.09,80.05c-6.54,1.7-9.8,2.55-12.46,4.32a19.7,19.7,0,0,0-5.85,6.1c-1.7,2.77-2.52,6.18-4.15,13l-8.37,34.89-8.37-34.89c-1.63-6.81-2.45-10.22-4.15-13a19.7,19.7,0,0,0-5.85-6.1C47.23,82.6,44,81.75,37.44,80.05L4,71.32,37.44,62.6C44,60.89,47.23,60,49.89,58.27a19.7,19.7,0,0,0,5.85-6.1c1.7-2.77,2.52-6.18,4.15-13Z"/></g></g></svg>