<svg width="128" height="132" viewBox="0 0 128 132" fill="none" xmlns="http://www.w3.org/2000/svg">
<g filter="url(#filter0_d_392_115)">
<path d="M58.551 1L66.0413 32.2359C67.5029 38.3311 68.2337 41.3787 69.7557 43.8585C71.102 46.0521 72.8888 47.9149 74.9928 49.3185C77.3715 50.9053 80.2947 51.6672 86.141 53.191L116.102 61L86.141 68.809C80.2947 70.3328 77.3715 71.0947 74.9928 72.6815C72.8888 74.0851 71.102 75.9479 69.7557 78.1415C68.2337 80.6213 67.5029 83.6689 66.0413 89.7641L58.551 121L51.0608 89.764C49.5992 83.6689 48.8684 80.6213 47.3463 78.1415C46 75.9479 44.2132 74.0851 42.1092 72.6815C39.7306 71.0947 36.8074 70.3328 30.961 68.809L1 61L30.961 53.191C36.8074 51.6672 39.7306 50.9053 42.1092 49.3185C44.2132 47.9149 46 46.0521 47.3463 43.8585C48.8684 41.3787 49.5992 38.3311 51.0608 32.2359L58.551 1Z" fill="#FDF9F9"/>
<path d="M58.551 1L66.0413 32.2359C67.5029 38.3311 68.2337 41.3787 69.7557 43.8585C71.102 46.0521 72.8888 47.9149 74.9928 49.3185C77.3715 50.9053 80.2947 51.6672 86.141 53.191L116.102 61L86.141 68.809C80.2947 70.3328 77.3715 71.0947 74.9928 72.6815C72.8888 74.0851 71.102 75.9479 69.7557 78.1415C68.2337 80.6213 67.5029 83.6689 66.0413 89.7641L58.551 121L51.0608 89.764C49.5992 83.6689 48.8684 80.6213 47.3463 78.1415C46 75.9479 44.2132 74.0851 42.1092 72.6815C39.7306 71.0947 36.8074 70.3328 30.961 68.809L1 61L30.961 53.191C36.8074 51.6672 39.7306 50.9053 42.1092 49.3185C44.2132 47.9149 46 46.0521 47.3463 43.8585C48.8684 41.3787 49.5992 38.3311 51.0608 32.2359L58.551 1Z" fill="#FDF9F9"/>
<path d="M58.551 1L66.0413 32.2359C67.5029 38.3311 68.2337 41.3787 69.7557 43.8585C71.102 46.0521 72.8888 47.9149 74.9928 49.3185C77.3715 50.9053 80.2947 51.6672 86.141 53.191L116.102 61L86.141 68.809C80.2947 70.3328 77.3715 71.0947 74.9928 72.6815C72.8888 74.0851 71.102 75.9479 69.7557 78.1415C68.2337 80.6213 67.5029 83.6689 66.0413 89.7641L58.551 121L51.0608 89.764C49.5992 83.6689 48.8684 80.6213 47.3463 78.1415C46 75.9479 44.2132 74.0851 42.1092 72.6815C39.7306 71.0947 36.8074 70.3328 30.961 68.809L1 61L30.961 53.191C36.8074 51.6672 39.7306 50.9053 42.1092 49.3185C44.2132 47.9149 46 46.0521 47.3463 43.8585C48.8684 41.3787 49.5992 38.3311 51.0608 32.2359L58.551 1Z" stroke="black" stroke-width="2" stroke-linecap="round" stroke-linejoin="round"/>
<path d="M58.551 1L66.0413 32.2359C67.5029 38.3311 68.2337 41.3787 69.7557 43.8585C71.102 46.0521 72.8888 47.9149 74.9928 49.3185C77.3715 50.9053 80.2947 51.6672 86.141 53.191L116.102 61L86.141 68.809C80.2947 70.3328 77.3715 71.0947 74.9928 72.6815C72.8888 74.0851 71.102 75.9479 69.7557 78.1415C68.2337 80.6213 67.5029 83.6689 66.0413 89.7641L58.551 121L51.0608 89.764C49.5992 83.6689 48.8684 80.6213 47.3463 78.1415C46 75.9479 44.2132 74.0851 42.1092 72.6815C39.7306 71.0947 36.8074 70.3328 30.961 68.809L1 61L30.961 53.191C36.8074 51.6672 39.7306 50.9053 42.1092 49.3185C44.2132 47.9149 46 46.0521 47.3463 43.8585C48.8684 41.3787 49.5992 38.3311 51.0608 32.2359L58.551 1Z" stroke="black" stroke-width="2" stroke-linecap="round" stroke-linejoin="round"/>
</g>
<defs>
<filter id="filter0_d_392_115" x="0" y="0" width="127.102" height="132" filterUnits="userSpaceOnUse" color-interpolation-filters="sRGB">
<feFlood flood-opacity="0" result="BackgroundImageFix"/>
<feColorMatrix in="SourceAlpha" type="matrix" values="0 0 0 0 0 0 0 0 0 0 0 0 0 0 0 0 0 0 127 0" result="hardAlpha"/>
<feOffset dx="10" dy="10"/>
<feComposite in2="hardAlpha" operator="out"/>
<feColorMatrix type="matrix" values="0 0 0 0 0.0196078 0 0 0 0 0.0431373 0 0 0 0 0.0235294 0 0 0 1 0"/>
<feBlend mode="normal" in2="BackgroundImageFix" result="effect1_dropShadow_392_115"/>
<feBlend mode="normal" in="SourceGraphic" in2="effect1_dropShadow_392_115" result="shape"/>
</filter>
</defs>
</svg>
