<svg xmlns="http://www.w3.org/2000/svg" viewBox="0 0 139.4 145.88"><defs><style>.cls-1{fill:#c2b0ea;}.cls-2{fill:#e6dff6;stroke:#000;stroke-miterlimit:10;stroke-width:2px;}.cls-3{font-size:18px;font-family:Quicksand-SemiBold, Quicksand;font-weight:600;}.cls-4{fill:#2c2c2c;fill-rule:evenodd;}</style></defs><g id="Layer_2" data-name="Layer 2"><g id="Layer_1-2" data-name="Layer 1"><path class="cls-1" d="M75.1,11.81l8.37,34.9c1.63,6.81,2.45,10.21,4.15,13a19.6,19.6,0,0,0,5.85,6.1c2.66,1.78,5.92,2.63,12.46,4.33l33.47,8.72-33.47,8.73c-6.54,1.7-9.8,2.55-12.46,4.33A19.49,19.49,0,0,0,87.62,98c-1.7,2.77-2.52,6.17-4.15,13l-8.37,34.9L66.73,111c-1.63-6.81-2.45-10.21-4.15-13a19.49,19.49,0,0,0-5.85-6.1c-2.66-1.78-5.92-2.63-12.45-4.33L10.8,78.84l33.48-8.72c6.53-1.7,9.79-2.55,12.45-4.33a19.6,19.6,0,0,0,5.85-6.1c1.7-2.77,2.52-6.17,4.15-13Z"/><path class="cls-2" d="M68.26,4.29l8.37,34.9c1.63,6.8,2.45,10.21,4.15,13a19.7,19.7,0,0,0,5.85,6.1c2.66,1.77,5.92,2.62,12.46,4.33l33.47,8.72L99.09,80.05c-6.54,1.7-9.8,2.55-12.46,4.32a19.7,19.7,0,0,0-5.85,6.1c-1.7,2.77-2.52,6.18-4.15,13l-8.37,34.89-8.37-34.89c-1.63-6.81-2.45-10.22-4.15-13a19.7,19.7,0,0,0-5.85-6.1C47.23,82.6,44,81.75,37.44,80.05L4,71.32,37.44,62.6C44,60.89,47.23,60,49.89,58.27a19.7,19.7,0,0,0,5.85-6.1c1.7-2.77,2.52-6.18,4.15-13Z"/><text class="cls-3" transform="translate(68.56 77.82)">+5</text><path class="cls-4" d="M53.83,70.29v3.33a2.62,2.62,0,0,0,1.29,2.1,9.22,9.22,0,0,0,8.92,0,2.6,2.6,0,0,0,1.29-2.1V70.29a.75.75,0,0,0-1.5,0v3.33c0,.33-.27.61-.64.86a7.77,7.77,0,0,1-7.22,0c-.37-.25-.64-.53-.64-.86V70.29a.75.75,0,0,0-1.5,0Z"/><path class="cls-4" d="M53.83,73.62V77a2.62,2.62,0,0,0,1.29,2.1,9.22,9.22,0,0,0,8.92,0A2.6,2.6,0,0,0,65.33,77V73.62a.75.75,0,0,0-1.5,0V77c0,.34-.27.61-.64.86a7.77,7.77,0,0,1-7.22,0c-.37-.25-.64-.52-.64-.86V73.62a.75.75,0,0,0-1.5,0Z"/><path class="cls-4" d="M59.58,67a8.19,8.19,0,0,0-4.46,1.15,2.62,2.62,0,0,0-1.29,2.1,2.59,2.59,0,0,0,1.29,2.09,9.15,9.15,0,0,0,8.92,0,2.59,2.59,0,0,0,1.29-2.09A2.62,2.62,0,0,0,64,68.19,8.19,8.19,0,0,0,59.58,67Zm0,1.5a6.7,6.7,0,0,1,3.61.89c.37.25.64.52.64.86s-.27.6-.64.85a7.69,7.69,0,0,1-7.22,0c-.37-.25-.64-.52-.64-.85s.27-.61.64-.86A6.7,6.7,0,0,1,59.58,68.54Z"/><path class="cls-4" d="M47.16,65.69V69A2.34,2.34,0,0,0,48,70.77a6.34,6.34,0,0,0,3.08,1.35.75.75,0,0,0,.26-1.48,5.29,5.29,0,0,1-2.08-.78c-.36-.24-.62-.51-.62-.84V65.69a.75.75,0,0,0-1.5,0Z"/><path class="cls-4" d="M47.16,69v3.33a2.47,2.47,0,0,0,1.08,1.94A7.27,7.27,0,0,0,52,75.57a.75.75,0,0,0,.13-1.5,5.81,5.81,0,0,1-3-1,1,1,0,0,1-.5-.76V69a.75.75,0,0,0-1.5,0Zm5-1.61a5.83,5.83,0,0,1-3-1,1,1,0,0,1-.5-.75c0-.34.27-.61.64-.86a7.79,7.79,0,0,1,7.23,0c.36.25.63.52.63.86a.75.75,0,0,0,1.5,0,2.6,2.6,0,0,0-1.29-2.1,9.2,9.2,0,0,0-8.91,0,2.61,2.61,0,0,0-1.3,2.1,2.47,2.47,0,0,0,1.08,1.93A7.15,7.15,0,0,0,52,68.9a.76.76,0,0,0,.81-.68A.74.74,0,0,0,52.14,67.41Z"/></g></g></svg>