<svg width="128" height="132" viewBox="0 0 128 132" fill="none" xmlns="http://www.w3.org/2000/svg">
<g filter="url(#filter0_d_1571_177)">
<path d="M58.551 1L66.0413 32.2359C67.5029 38.3311 68.2337 41.3787 69.7557 43.8585C71.102 46.0521 72.8888 47.9149 74.9928 49.3185C77.3715 50.9053 80.2947 51.6672 86.141 53.191L116.102 61L86.141 68.809C80.2947 70.3328 77.3715 71.0947 74.9928 72.6815C72.8888 74.0851 71.102 75.9479 69.7557 78.1415C68.2337 80.6213 67.5029 83.6689 66.0413 89.7641L58.551 121L51.0608 89.764C49.5992 83.6689 48.8684 80.6213 47.3463 78.1415C46 75.9479 44.2132 74.0851 42.1092 72.6815C39.7306 71.0947 36.8074 70.3328 30.961 68.809L1 61L30.961 53.191C36.8074 51.6672 39.7306 50.9053 42.1092 49.3185C44.2132 47.9149 46 46.0521 47.3463 43.8585C48.8684 41.3787 49.5992 38.3311 51.0608 32.2359L58.551 1Z" fill="#E6DFF6"/>
<path d="M58.551 1L66.0413 32.2359C67.5029 38.3311 68.2337 41.3787 69.7557 43.8585C71.102 46.0521 72.8888 47.9149 74.9928 49.3185C77.3715 50.9053 80.2947 51.6672 86.141 53.191L116.102 61L86.141 68.809C80.2947 70.3328 77.3715 71.0947 74.9928 72.6815C72.8888 74.0851 71.102 75.9479 69.7557 78.1415C68.2337 80.6213 67.5029 83.6689 66.0413 89.7641L58.551 121L51.0608 89.764C49.5992 83.6689 48.8684 80.6213 47.3463 78.1415C46 75.9479 44.2132 74.0851 42.1092 72.6815C39.7306 71.0947 36.8074 70.3328 30.961 68.809L1 61L30.961 53.191C36.8074 51.6672 39.7306 50.9053 42.1092 49.3185C44.2132 47.9149 46 46.0521 47.3463 43.8585C48.8684 41.3787 49.5992 38.3311 51.0608 32.2359L58.551 1Z" fill="#E6DFF6"/>
<path d="M58.551 1L66.0413 32.2359C67.5029 38.3311 68.2337 41.3787 69.7557 43.8585C71.102 46.0521 72.8888 47.9149 74.9928 49.3185C77.3715 50.9053 80.2947 51.6672 86.141 53.191L116.102 61L86.141 68.809C80.2947 70.3328 77.3715 71.0947 74.9928 72.6815C72.8888 74.0851 71.102 75.9479 69.7557 78.1415C68.2337 80.6213 67.5029 83.6689 66.0413 89.7641L58.551 121L51.0608 89.764C49.5992 83.6689 48.8684 80.6213 47.3463 78.1415C46 75.9479 44.2132 74.0851 42.1092 72.6815C39.7306 71.0947 36.8074 70.3328 30.961 68.809L1 61L30.961 53.191C36.8074 51.6672 39.7306 50.9053 42.1092 49.3185C44.2132 47.9149 46 46.0521 47.3463 43.8585C48.8684 41.3787 49.5992 38.3311 51.0608 32.2359L58.551 1Z" stroke="black" stroke-width="2" stroke-linecap="round" stroke-linejoin="round"/>
<path d="M58.551 1L66.0413 32.2359C67.5029 38.3311 68.2337 41.3787 69.7557 43.8585C71.102 46.0521 72.8888 47.9149 74.9928 49.3185C77.3715 50.9053 80.2947 51.6672 86.141 53.191L116.102 61L86.141 68.809C80.2947 70.3328 77.3715 71.0947 74.9928 72.6815C72.8888 74.0851 71.102 75.9479 69.7557 78.1415C68.2337 80.6213 67.5029 83.6689 66.0413 89.7641L58.551 121L51.0608 89.764C49.5992 83.6689 48.8684 80.6213 47.3463 78.1415C46 75.9479 44.2132 74.0851 42.1092 72.6815C39.7306 71.0947 36.8074 70.3328 30.961 68.809L1 61L30.961 53.191C36.8074 51.6672 39.7306 50.9053 42.1092 49.3185C44.2132 47.9149 46 46.0521 47.3463 43.8585C48.8684 41.3787 49.5992 38.3311 51.0608 32.2359L58.551 1Z" stroke="black" stroke-width="2" stroke-linecap="round" stroke-linejoin="round"/>
</g>
<path fill-rule="evenodd" clip-rule="evenodd" d="M43.583 60.7666V64.0999C43.583 64.8708 44.028 65.6183 44.8747 66.1958C45.8813 66.8824 47.5005 67.3499 49.333 67.3499C51.1655 67.3499 52.7847 66.8824 53.7913 66.1958C54.638 65.6183 55.083 64.8708 55.083 64.0999V60.7666C55.083 60.3524 54.7472 60.0166 54.333 60.0166C53.9188 60.0166 53.583 60.3524 53.583 60.7666V64.0999C53.583 64.4341 53.313 64.7066 52.9455 64.9566C52.1322 65.5116 50.8138 65.8499 49.333 65.8499C47.8522 65.8499 46.5338 65.5116 45.7205 64.9566C45.353 64.7066 45.083 64.4341 45.083 64.0999V60.7666C45.083 60.3524 44.7472 60.0166 44.333 60.0166C43.9188 60.0166 43.583 60.3524 43.583 60.7666Z" fill="#2C2C2C"/>
<path fill-rule="evenodd" clip-rule="evenodd" d="M43.583 64.0996V67.4329C43.583 68.2038 44.028 68.9513 44.8747 69.5288C45.8813 70.2154 47.5005 70.6829 49.333 70.6829C51.1655 70.6829 52.7847 70.2154 53.7913 69.5288C54.638 68.9513 55.083 68.2038 55.083 67.4329V64.0996C55.083 63.6854 54.7472 63.3496 54.333 63.3496C53.9188 63.3496 53.583 63.6854 53.583 64.0996V67.4329C53.583 67.7671 53.313 68.0396 52.9455 68.2896C52.1322 68.8446 50.8138 69.1829 49.333 69.1829C47.8522 69.1829 46.5338 68.8446 45.7205 68.2896C45.353 68.0396 45.083 67.7671 45.083 67.4329V64.0996C45.083 63.6854 44.7472 63.3496 44.333 63.3496C43.9188 63.3496 43.583 63.6854 43.583 64.0996Z" fill="#2C2C2C"/>
<path fill-rule="evenodd" clip-rule="evenodd" d="M49.333 57.5166C47.5013 57.5166 45.8822 57.9841 44.8755 58.6708C44.0288 59.2483 43.583 59.9958 43.583 60.7666C43.583 61.5374 44.0288 62.2849 44.8755 62.8624C45.8822 63.5491 47.5013 64.0166 49.333 64.0166C51.1647 64.0166 52.7838 63.5491 53.7905 62.8624C54.6372 62.2849 55.083 61.5374 55.083 60.7666C55.083 59.9958 54.6372 59.2483 53.7905 58.6708C52.7838 57.9841 51.1647 57.5166 49.333 57.5166ZM49.333 59.0166C50.813 59.0166 52.1313 59.3558 52.9455 59.9099C53.313 60.1608 53.583 60.4324 53.583 60.7666C53.583 61.1008 53.313 61.3724 52.9455 61.6233C52.1313 62.1774 50.813 62.5166 49.333 62.5166C47.853 62.5166 46.5347 62.1774 45.7205 61.6233C45.353 61.3724 45.083 61.1008 45.083 60.7666C45.083 60.4324 45.353 60.1608 45.7205 59.9099C46.5347 59.3558 47.853 59.0166 49.333 59.0166Z" fill="#2C2C2C"/>
<path fill-rule="evenodd" clip-rule="evenodd" d="M36.916 56.167V59.5003C36.916 60.1303 37.2068 60.737 37.7718 61.2528C38.4393 61.8628 39.5293 62.3578 40.8552 62.5945C41.2627 62.667 41.6518 62.3953 41.7252 61.9878C41.7977 61.5795 41.5252 61.1903 41.1177 61.1178C40.2727 60.967 39.5435 60.6987 39.0293 60.3403C38.6752 60.0945 38.416 59.827 38.416 59.5003V56.167C38.416 55.7528 38.0802 55.417 37.666 55.417C37.2518 55.417 36.916 55.7528 36.916 56.167Z" fill="#2C2C2C"/>
<path fill-rule="evenodd" clip-rule="evenodd" d="M36.916 59.5003V62.8337C36.916 63.5378 37.2835 64.2187 37.991 64.7712C38.8268 65.4245 40.1827 65.9137 41.7735 66.047C42.186 66.0812 42.5485 65.7745 42.5827 65.362C42.6177 64.9495 42.311 64.5862 41.8985 64.552C40.6485 64.4478 39.571 64.102 38.9135 63.5887C38.6252 63.3637 38.416 63.1212 38.416 62.8337V59.5003C38.416 59.0862 38.0802 58.7503 37.666 58.7503C37.2518 58.7503 36.916 59.0862 36.916 59.5003ZM41.8885 57.8845C40.6427 57.7787 39.5677 57.4328 38.9127 56.9203C38.6243 56.6953 38.416 56.4537 38.416 56.167C38.416 55.8328 38.686 55.5612 39.0535 55.3103C39.8677 54.7562 41.186 54.417 42.666 54.417C44.146 54.417 45.4643 54.7562 46.2785 55.3103C46.646 55.5612 46.916 55.8328 46.916 56.167C46.916 56.5812 47.2518 56.917 47.666 56.917C48.0802 56.917 48.416 56.5812 48.416 56.167C48.416 55.3962 47.9702 54.6487 47.1235 54.0712C46.1168 53.3845 44.4977 52.917 42.666 52.917C40.8343 52.917 39.2152 53.3845 38.2085 54.0712C37.3618 54.6487 36.916 55.3962 36.916 56.167C36.916 56.8703 37.2827 57.5503 37.9885 58.102C38.8227 58.7545 40.176 59.2445 41.7618 59.3787C42.1743 59.4137 42.5377 59.1078 42.5727 58.6953C42.6077 58.2828 42.301 57.9195 41.8885 57.8845Z" fill="#2C2C2C"/>
<path d="M56.6807 62.86C56.4407 62.86 56.2407 62.78 56.0807 62.62C55.9207 62.46 55.8407 62.26 55.8407 62.02C55.8407 61.78 55.9207 61.585 56.0807 61.435C56.2407 61.285 56.4407 61.21 56.6807 61.21H62.7857C63.0257 61.21 63.2257 61.29 63.3857 61.45C63.5457 61.6 63.6257 61.795 63.6257 62.035C63.6257 62.275 63.5457 62.475 63.3857 62.635C63.2257 62.785 63.0257 62.86 62.7857 62.86H56.6807ZM59.7107 65.785C59.4307 65.785 59.1957 65.695 59.0057 65.515C58.8257 65.335 58.7357 65.105 58.7357 64.825V58.975C58.7357 58.695 58.8307 58.465 59.0207 58.285C59.2107 58.105 59.4457 58.015 59.7257 58.015C60.0157 58.015 60.2457 58.105 60.4157 58.285C60.5957 58.465 60.6857 58.695 60.6857 58.975V64.825C60.6857 65.105 60.5957 65.335 60.4157 65.515C60.2357 65.695 60.0007 65.785 59.7107 65.785ZM71.7317 67.15C71.3617 67.15 70.9667 67.095 70.5467 66.985C70.1267 66.865 69.7817 66.695 69.5117 66.475C69.3817 66.365 69.2767 66.225 69.1967 66.055C69.1267 65.875 69.0917 65.705 69.0917 65.545C69.0917 65.375 69.1617 65.215 69.3017 65.065C69.4517 64.915 69.6617 64.84 69.9317 64.84C70.1117 64.84 70.3367 64.935 70.6067 65.125C70.7667 65.225 70.9417 65.315 71.1317 65.395C71.3217 65.475 71.5167 65.515 71.7167 65.515C72.1967 65.515 72.6117 65.43 72.9617 65.26C73.3117 65.08 73.5817 64.835 73.7717 64.525C73.9617 64.215 74.0567 63.85 74.0567 63.43C74.0567 63.05 73.9667 62.725 73.7867 62.455C73.6167 62.185 73.3867 61.975 73.0967 61.825C72.8167 61.675 72.5117 61.6 72.1817 61.6C71.8717 61.6 71.6017 61.65 71.3717 61.75C71.1417 61.85 70.9317 61.955 70.7417 62.065C70.5517 62.165 70.3617 62.215 70.1717 62.215C69.8417 62.215 69.5967 62.145 69.4367 62.005C69.2767 61.855 69.1767 61.68 69.1367 61.48C69.0967 61.28 69.0867 61.1 69.1067 60.94L69.5717 57.295C69.6117 57.085 69.7117 56.915 69.8717 56.785C70.0417 56.645 70.2417 56.575 70.4717 56.575H74.8067C75.0467 56.575 75.2467 56.655 75.4067 56.815C75.5667 56.975 75.6467 57.175 75.6467 57.415C75.6467 57.645 75.5667 57.84 75.4067 58C75.2467 58.15 75.0467 58.225 74.8067 58.225H70.9367L71.1017 58.09L70.6967 61.135L70.5017 60.565C70.5617 60.465 70.6917 60.37 70.8917 60.28C71.0917 60.19 71.3217 60.115 71.5817 60.055C71.8417 59.985 72.0967 59.95 72.3467 59.95C73.0167 59.95 73.6167 60.105 74.1467 60.415C74.6767 60.715 75.0917 61.13 75.3917 61.66C75.7017 62.18 75.8567 62.77 75.8567 63.43C75.8567 64.18 75.6867 64.835 75.3467 65.395C75.0067 65.955 74.5267 66.39 73.9067 66.7C73.2967 67 72.5717 67.15 71.7317 67.15Z" fill="black"/>
<defs>
<filter id="filter0_d_1571_177" x="0" y="0" width="127.102" height="132" filterUnits="userSpaceOnUse" color-interpolation-filters="sRGB">
<feFlood flood-opacity="0" result="BackgroundImageFix"/>
<feColorMatrix in="SourceAlpha" type="matrix" values="0 0 0 0 0 0 0 0 0 0 0 0 0 0 0 0 0 0 127 0" result="hardAlpha"/>
<feOffset dx="10" dy="10"/>
<feComposite in2="hardAlpha" operator="out"/>
<feColorMatrix type="matrix" values="0 0 0 0 0.760784 0 0 0 0 0.686275 0 0 0 0 0.917647 0 0 0 1 0"/>
<feBlend mode="normal" in2="BackgroundImageFix" result="effect1_dropShadow_1571_177"/>
<feBlend mode="normal" in="SourceGraphic" in2="effect1_dropShadow_1571_177" result="shape"/>
</filter>
</defs>
</svg>
