<svg xmlns="http://www.w3.org/2000/svg" viewBox="0 0 149.57 148.89"><defs><style>.cls-1{fill:#fdfaf9;stroke:#000;stroke-miterlimit:10;stroke-width:2px;}</style></defs><g id="Layer_2" data-name="Layer 2"><g id="Layer_1-2" data-name="Layer 1"><path d="M79.6,43l.6,1.06L80.79,43l18-32.23-.62,36.86,0,1.23,1.06-.63L131,29.3l-19,31.61L111.29,62l1.24,0,37-.61-32.38,17.9-1.09.6,1.09.6,32.38,17.91-37-.62-1.24,0,.64,1.05,19,31.63-31.76-19-1.06-.63,0,1.23.62,36.86-18-32.24-.59-1.07-.6,1.07-18,32.24L62.22,112l0-1.23-1.05.63-31.78,19L48.47,98.76l.63-1.05-1.23,0-37,.62L43.21,80.44l1.08-.6-1.08-.6L10.83,61.34l37,.61,1.23,0-.63-1.06L29.41,29.3l31.78,19,1.05.63,0-1.23L61.61,10.8Z"/><path class="cls-1" d="M72.77,36.19l.59,1.07.6-1.07L92,4l-.61,36.86,0,1.23,1.05-.63,31.77-19-19,31.61-.64,1.05,1.23,0,37-.6-32.38,17.9-1.08.59,1.08.6,32.38,17.92-37-.63-1.23,0,.64,1.06,19,31.63-31.77-19L91.32,104l0,1.23L92,142.06,74,109.82l-.6-1.07-.59,1.07-18,32.24.61-36.86,0-1.23-1.06.63-31.78,19L41.63,91.93l.64-1.06-1.24,0L4,91.52,36.38,73.6l1.08-.6-1.08-.59L4,54.51l37,.6,1.24,0-.64-1.05L22.58,22.47l31.77,19,1.06.63,0-1.23L54.78,4Z"/></g></g></svg>