<svg width="131" height="130" viewBox="0 0 131 130" fill="none" xmlns="http://www.w3.org/2000/svg">
<g filter="url(#filter0_d_1571_178)">
<path d="M60.2857 28.9347L76.4368 0L75.8876 33.0966L104.408 16.0762L87.3082 44.4642L120.571 43.9176L91.4895 59.9938L120.571 76.0824L87.3082 75.5233L104.408 103.924L75.8876 86.9034L76.4368 120L60.2857 91.0529L44.1346 120L44.6838 86.9034L16.1511 103.924L33.2632 75.5233L0 76.0824L29.0819 59.9938L0 43.9176L33.2632 44.4642L16.1511 16.0762L44.6838 33.0966L44.1346 0L60.2857 28.9347Z" fill="#F6D9B0"/>
<path d="M59.4125 29.4221L60.2857 30.9864L61.1589 29.4221L75.3709 3.9612L74.8877 33.08L74.858 34.8756L76.4001 33.9553L101.49 18.982L86.4516 43.9482L85.5207 45.4937L87.3246 45.4641L116.576 44.9834L91.0057 59.1186L89.4231 59.9934L91.0054 60.8688L116.576 75.0151L87.325 74.5235L85.5207 74.4932L86.4515 76.0392L101.492 101.019L76.4001 86.0447L74.858 85.1244L74.8877 86.92L75.3709 116.037L61.159 90.5657L60.2857 89.0005L59.4124 90.5657L45.2005 116.037L45.6837 86.92L45.7135 85.1248L44.1715 86.0446L19.0689 101.019L34.1198 76.0394L35.0515 74.4931L33.2464 74.5235L3.99501 75.0151L29.566 60.8688L31.1483 59.9934L29.5657 59.1186L3.99502 44.9834L33.2468 45.4641L35.0515 45.4937L34.1197 43.948L19.0703 18.982L44.1715 33.9554L45.7135 34.8752L45.6837 33.08L45.2005 3.9612L59.4125 29.4221Z" stroke="black" stroke-width="2"/>
</g>
<path fill-rule="evenodd" clip-rule="evenodd" d="M48.583 59.7666V63.0999C48.583 63.8708 49.028 64.6183 49.8747 65.1958C50.8813 65.8824 52.5005 66.3499 54.333 66.3499C56.1655 66.3499 57.7847 65.8824 58.7913 65.1958C59.638 64.6183 60.083 63.8708 60.083 63.0999V59.7666C60.083 59.3524 59.7472 59.0166 59.333 59.0166C58.9188 59.0166 58.583 59.3524 58.583 59.7666V63.0999C58.583 63.4341 58.313 63.7066 57.9455 63.9566C57.1322 64.5116 55.8138 64.8499 54.333 64.8499C52.8522 64.8499 51.5338 64.5116 50.7205 63.9566C50.353 63.7066 50.083 63.4341 50.083 63.0999V59.7666C50.083 59.3524 49.7472 59.0166 49.333 59.0166C48.9188 59.0166 48.583 59.3524 48.583 59.7666Z" fill="#2C2C2C"/>
<path fill-rule="evenodd" clip-rule="evenodd" d="M48.583 63.0996V66.4329C48.583 67.2038 49.028 67.9513 49.8747 68.5288C50.8813 69.2154 52.5005 69.6829 54.333 69.6829C56.1655 69.6829 57.7847 69.2154 58.7913 68.5288C59.638 67.9513 60.083 67.2038 60.083 66.4329V63.0996C60.083 62.6854 59.7472 62.3496 59.333 62.3496C58.9188 62.3496 58.583 62.6854 58.583 63.0996V66.4329C58.583 66.7671 58.313 67.0396 57.9455 67.2896C57.1322 67.8446 55.8138 68.1829 54.333 68.1829C52.8522 68.1829 51.5338 67.8446 50.7205 67.2896C50.353 67.0396 50.083 66.7671 50.083 66.4329V63.0996C50.083 62.6854 49.7472 62.3496 49.333 62.3496C48.9188 62.3496 48.583 62.6854 48.583 63.0996Z" fill="#2C2C2C"/>
<path fill-rule="evenodd" clip-rule="evenodd" d="M54.333 56.5166C52.5013 56.5166 50.8822 56.9841 49.8755 57.6708C49.0288 58.2483 48.583 58.9958 48.583 59.7666C48.583 60.5374 49.0288 61.2849 49.8755 61.8624C50.8822 62.5491 52.5013 63.0166 54.333 63.0166C56.1647 63.0166 57.7838 62.5491 58.7905 61.8624C59.6372 61.2849 60.083 60.5374 60.083 59.7666C60.083 58.9958 59.6372 58.2483 58.7905 57.6708C57.7838 56.9841 56.1647 56.5166 54.333 56.5166ZM54.333 58.0166C55.813 58.0166 57.1313 58.3558 57.9455 58.9099C58.313 59.1608 58.583 59.4324 58.583 59.7666C58.583 60.1008 58.313 60.3724 57.9455 60.6233C57.1313 61.1774 55.813 61.5166 54.333 61.5166C52.853 61.5166 51.5347 61.1774 50.7205 60.6233C50.353 60.3724 50.083 60.1008 50.083 59.7666C50.083 59.4324 50.353 59.1608 50.7205 58.9099C51.5347 58.3558 52.853 58.0166 54.333 58.0166Z" fill="#2C2C2C"/>
<path fill-rule="evenodd" clip-rule="evenodd" d="M41.916 55.167V58.5003C41.916 59.1303 42.2068 59.737 42.7718 60.2528C43.4393 60.8628 44.5293 61.3578 45.8552 61.5945C46.2627 61.667 46.6518 61.3953 46.7252 60.9878C46.7977 60.5795 46.5252 60.1903 46.1177 60.1178C45.2727 59.967 44.5435 59.6987 44.0293 59.3403C43.6752 59.0945 43.416 58.827 43.416 58.5003V55.167C43.416 54.7528 43.0802 54.417 42.666 54.417C42.2518 54.417 41.916 54.7528 41.916 55.167Z" fill="#2C2C2C"/>
<path fill-rule="evenodd" clip-rule="evenodd" d="M41.916 58.5003V61.8337C41.916 62.5378 42.2835 63.2187 42.991 63.7712C43.8268 64.4245 45.1827 64.9137 46.7735 65.047C47.186 65.0812 47.5485 64.7745 47.5827 64.362C47.6177 63.9495 47.311 63.5862 46.8985 63.552C45.6485 63.4478 44.571 63.102 43.9135 62.5887C43.6252 62.3637 43.416 62.1212 43.416 61.8337V58.5003C43.416 58.0862 43.0802 57.7503 42.666 57.7503C42.2518 57.7503 41.916 58.0862 41.916 58.5003ZM46.8885 56.8845C45.6427 56.7787 44.5677 56.4328 43.9127 55.9203C43.6243 55.6953 43.416 55.4537 43.416 55.167C43.416 54.8328 43.686 54.5612 44.0535 54.3103C44.8677 53.7562 46.186 53.417 47.666 53.417C49.146 53.417 50.4643 53.7562 51.2785 54.3103C51.646 54.5612 51.916 54.8328 51.916 55.167C51.916 55.5812 52.2518 55.917 52.666 55.917C53.0802 55.917 53.416 55.5812 53.416 55.167C53.416 54.3962 52.9702 53.6487 52.1235 53.0712C51.1168 52.3845 49.4977 51.917 47.666 51.917C45.8343 51.917 44.2152 52.3845 43.2085 53.0712C42.3618 53.6487 41.916 54.3962 41.916 55.167C41.916 55.8703 42.2827 56.5503 42.9885 57.102C43.8227 57.7545 45.176 58.2445 46.7618 58.3787C47.1743 58.4137 47.5377 58.1078 47.5727 57.6953C47.6077 57.2828 47.301 56.9195 46.8885 56.8845Z" fill="#2C2C2C"/>
<path d="M61.8931 61.86C61.6531 61.86 61.4531 61.78 61.2931 61.62C61.1331 61.46 61.0531 61.26 61.0531 61.02C61.0531 60.78 61.1331 60.585 61.2931 60.435C61.4531 60.285 61.6531 60.21 61.8931 60.21H67.9981C68.2381 60.21 68.4381 60.29 68.5981 60.45C68.7581 60.6 68.8381 60.795 68.8381 61.035C68.8381 61.275 68.7581 61.475 68.5981 61.635C68.4381 61.785 68.2381 61.86 67.9981 61.86H61.8931ZM64.9231 64.785C64.6431 64.785 64.4081 64.695 64.2181 64.515C64.0381 64.335 63.9481 64.105 63.9481 63.825V57.975C63.9481 57.695 64.0431 57.465 64.2331 57.285C64.4231 57.105 64.6581 57.015 64.9381 57.015C65.2281 57.015 65.4581 57.105 65.6281 57.285C65.8081 57.465 65.8981 57.695 65.8981 57.975V63.825C65.8981 64.105 65.8081 64.335 65.6281 64.515C65.4481 64.695 65.2131 64.785 64.9231 64.785ZM79.1191 60.675L79.0891 60.33C79.4691 60.5 79.7991 60.72 80.0791 60.99C80.3591 61.26 80.5741 61.555 80.7241 61.875C80.8741 62.195 80.9491 62.525 80.9491 62.865C80.9491 63.435 80.7891 63.96 80.4691 64.44C80.1591 64.91 79.7391 65.29 79.2091 65.58C78.6791 65.86 78.0891 66 77.4391 66C76.7891 66 76.1991 65.86 75.6691 65.58C75.1391 65.29 74.7141 64.91 74.3941 64.44C74.0841 63.96 73.9291 63.435 73.9291 62.865C73.9291 62.405 74.0241 62.01 74.2141 61.68C74.4141 61.34 74.6591 61.055 74.9491 60.825C75.2491 60.595 75.5441 60.405 75.8341 60.255L75.7141 60.675C75.4641 60.575 75.2191 60.435 74.9791 60.255C74.7491 60.065 74.5591 59.825 74.4091 59.535C74.2591 59.245 74.1841 58.905 74.1841 58.515C74.1841 57.955 74.3291 57.45 74.6191 57C74.9091 56.54 75.2991 56.175 75.7891 55.905C76.2891 55.635 76.8391 55.5 77.4391 55.5C78.0491 55.5 78.5941 55.635 79.0741 55.905C79.5641 56.175 79.9541 56.54 80.2441 57C80.5341 57.45 80.6791 57.955 80.6791 58.515C80.6791 58.945 80.5941 59.305 80.4241 59.595C80.2541 59.885 80.0491 60.115 79.8091 60.285C79.5691 60.455 79.3391 60.585 79.1191 60.675ZM75.9841 58.545C75.9841 58.815 76.0441 59.055 76.1641 59.265C76.2941 59.475 76.4691 59.645 76.6891 59.775C76.9091 59.895 77.1591 59.955 77.4391 59.955C77.7191 59.955 77.9641 59.895 78.1741 59.775C78.3941 59.645 78.5641 59.475 78.6841 59.265C78.8141 59.055 78.8791 58.815 78.8791 58.545C78.8791 58.145 78.7391 57.815 78.4591 57.555C78.1891 57.285 77.8491 57.15 77.4391 57.15C77.0191 57.15 76.6691 57.285 76.3891 57.555C76.1191 57.815 75.9841 58.145 75.9841 58.545ZM77.4391 64.35C77.9191 64.35 78.3241 64.205 78.6541 63.915C78.9841 63.615 79.1491 63.255 79.1491 62.835C79.1491 62.545 79.0741 62.285 78.9241 62.055C78.7741 61.825 78.5691 61.645 78.3091 61.515C78.0491 61.375 77.7591 61.305 77.4391 61.305C77.1191 61.305 76.8291 61.375 76.5691 61.515C76.3091 61.645 76.1041 61.825 75.9541 62.055C75.8041 62.285 75.7291 62.545 75.7291 62.835C75.7291 63.255 75.8941 63.615 76.2241 63.915C76.5541 64.205 76.9591 64.35 77.4391 64.35Z" fill="black"/>
<defs>
<filter id="filter0_d_1571_178" x="0" y="0" width="130.571" height="130" filterUnits="userSpaceOnUse" color-interpolation-filters="sRGB">
<feFlood flood-opacity="0" result="BackgroundImageFix"/>
<feColorMatrix in="SourceAlpha" type="matrix" values="0 0 0 0 0 0 0 0 0 0 0 0 0 0 0 0 0 0 127 0" result="hardAlpha"/>
<feOffset dx="10" dy="10"/>
<feComposite in2="hardAlpha" operator="out"/>
<feColorMatrix type="matrix" values="0 0 0 0 0.913725 0 0 0 0 0.631373 0 0 0 0 0.231373 0 0 0 1 0"/>
<feBlend mode="normal" in2="BackgroundImageFix" result="effect1_dropShadow_1571_178"/>
<feBlend mode="normal" in="SourceGraphic" in2="effect1_dropShadow_1571_178" result="shape"/>
</filter>
</defs>
</svg>
