<svg xmlns="http://www.w3.org/2000/svg" viewBox="0 0 146.06 145.42"><defs><style>.cls-1{fill:#e9a13b;}.cls-2{fill:#f6d9b0;stroke:#000;stroke-width:2px;}.cls-3{font-size:18px;font-family:Quicksand-SemiBold, Quicksand;font-weight:600;}.cls-4{fill:#2c2c2c;fill-rule:evenodd;}</style></defs><g id="Layer_2" data-name="Layer 2"><g id="Layer_1-2" data-name="Layer 1"><path class="cls-1" d="M76.09,39.55l.6,1.07.59-1.07,18-32.23-.61,36.86,0,1.23,1.06-.63,31.76-19-19,31.61-.64,1.06,1.24,0,37-.6-32.39,17.9-1.08.59,1.08.6,32.39,17.92-37-.63-1.24,0,.64,1.06,19,31.63L95.7,108l-1.06-.63,0,1.23.61,36.86-18-32.24-.59-1.07-.6,1.07-18,32.24.61-36.86,0-1.23-1,.63-31.78,19L45,95.29l.64-1.06-1.23,0-37,.63L39.7,77l1.08-.6-1.08-.59L7.32,57.87l37,.6,1.23,0L45,57.44,25.9,25.83l31.78,19,1,.63,0-1.23L58.1,7.32Z"/><path class="cls-2" d="M69.26,32.72l.59,1.07.6-1.07L88.44.49l-.61,36.86,0,1.23,1-.63,31.77-19-19,31.61L101,51.66l1.23,0,37-.61-32.38,17.9-1.08.6,1.08.6L139.22,88l-37-.62-1.23,0,.64,1.06,19,31.62-31.77-19-1-.63,0,1.22.61,36.87-18-32.25-.6-1.07-.59,1.07-18,32.25.61-36.87,0-1.22-1.06.63-31.78,19L38.12,88.46l.64-1.06-1.24,0L.48,88,32.87,70.13l1.08-.6-1.08-.6L.48,51l37,.61,1.24,0-.64-1.06L19.06,19,50.84,38l1.06.63,0-1.23L51.27.49Z"/><text class="cls-3" transform="translate(70.52 75.01)">+ 8</text><path class="cls-4" d="M53.37,68.45v3.34a2.59,2.59,0,0,0,1.29,2.09,9.15,9.15,0,0,0,8.92,0,2.57,2.57,0,0,0,1.29-2.09V68.45a.75.75,0,0,0-1.5,0v3.34c0,.33-.27.6-.64.85a7.69,7.69,0,0,1-7.22,0c-.37-.25-.64-.52-.64-.85V68.45a.75.75,0,0,0-1.5,0Z"/><path class="cls-4" d="M53.37,71.79v3.33a2.62,2.62,0,0,0,1.29,2.1,9.22,9.22,0,0,0,8.92,0,2.6,2.6,0,0,0,1.29-2.1V71.79a.75.75,0,1,0-1.5,0v3.33c0,.33-.27.61-.64.86a7.77,7.77,0,0,1-7.22,0c-.37-.25-.64-.53-.64-.86V71.79a.75.75,0,0,0-1.5,0Z"/><path class="cls-4" d="M59.12,65.2a8.18,8.18,0,0,0-4.46,1.16,2.35,2.35,0,0,0,0,4.19,9.22,9.22,0,0,0,8.92,0,2.35,2.35,0,0,0,0-4.19A8.18,8.18,0,0,0,59.12,65.2Zm0,1.5a6.61,6.61,0,0,1,3.61.9c.37.25.64.52.64.85s-.27.61-.64.86a7.77,7.77,0,0,1-7.22,0c-.37-.25-.64-.52-.64-.86s.27-.6.64-.85A6.61,6.61,0,0,1,59.12,66.7Z"/><path class="cls-4" d="M46.7,63.85v3.34a2.36,2.36,0,0,0,.86,1.75,6.24,6.24,0,0,0,3.08,1.34.75.75,0,1,0,.26-1.47A5.45,5.45,0,0,1,48.82,68c-.36-.25-.62-.52-.62-.84V63.85a.75.75,0,0,0-1.5,0Z"/><path class="cls-4" d="M46.7,67.19v3.33a2.47,2.47,0,0,0,1.08,1.94,7.27,7.27,0,0,0,3.78,1.27.75.75,0,0,0,.13-1.49,5.81,5.81,0,0,1-3-1,1,1,0,0,1-.5-.76V67.19a.75.75,0,0,0-1.5,0Zm5-1.62a5.74,5.74,0,0,1-3-1,1,1,0,0,1-.5-.76c0-.33.27-.6.64-.85a6.61,6.61,0,0,1,3.61-.9,6.67,6.67,0,0,1,3.62.9c.36.25.63.52.63.85a.75.75,0,0,0,1.5,0,2.58,2.58,0,0,0-1.29-2.09,9.13,9.13,0,0,0-8.91,0,2.59,2.59,0,0,0-1.3,2.09,2.47,2.47,0,0,0,1.08,1.94,7.32,7.32,0,0,0,3.77,1.28.75.75,0,0,0,.13-1.5Z"/></g></g></svg>