<svg width="131" height="130" viewBox="0 0 131 130" fill="none" xmlns="http://www.w3.org/2000/svg">
<g filter="url(#filter0_d_392_116)">
<path d="M60.2857 28.9347L76.4368 0L75.8876 33.0966L104.408 16.0762L87.3082 44.4642L120.571 43.9176L91.4895 59.9938L120.571 76.0824L87.3082 75.5233L104.408 103.924L75.8876 86.9034L76.4368 120L60.2857 91.0529L44.1346 120L44.6838 86.9034L16.1511 103.924L33.2632 75.5233L0 76.0824L29.0819 59.9938L0 43.9176L33.2632 44.4642L16.1511 16.0762L44.6838 33.0966L44.1346 0L60.2857 28.9347Z" fill="#FDF9F9"/>
<path d="M59.4125 29.4221L60.2857 30.9864L61.1589 29.4221L75.3709 3.9612L74.8877 33.08L74.858 34.8756L76.4001 33.9553L101.49 18.982L86.4516 43.9482L85.5207 45.4937L87.3246 45.4641L116.576 44.9834L91.0057 59.1186L89.4231 59.9934L91.0054 60.8688L116.576 75.0151L87.325 74.5235L85.5207 74.4932L86.4515 76.0392L101.492 101.019L76.4001 86.0447L74.858 85.1244L74.8877 86.92L75.3709 116.037L61.159 90.5657L60.2857 89.0005L59.4124 90.5657L45.2005 116.037L45.6837 86.92L45.7135 85.1248L44.1715 86.0446L19.0689 101.019L34.1198 76.0394L35.0515 74.4931L33.2464 74.5235L3.99501 75.0151L29.566 60.8688L31.1483 59.9934L29.5657 59.1186L3.99502 44.9834L33.2468 45.4641L35.0515 45.4937L34.1197 43.948L19.0703 18.982L44.1715 33.9554L45.7135 34.8752L45.6837 33.08L45.2005 3.9612L59.4125 29.4221Z" stroke="black" stroke-width="2"/>
</g>
<defs>
<filter id="filter0_d_392_116" x="0" y="0" width="130.571" height="130" filterUnits="userSpaceOnUse" color-interpolation-filters="sRGB">
<feFlood flood-opacity="0" result="BackgroundImageFix"/>
<feColorMatrix in="SourceAlpha" type="matrix" values="0 0 0 0 0 0 0 0 0 0 0 0 0 0 0 0 0 0 127 0" result="hardAlpha"/>
<feOffset dx="10" dy="10"/>
<feComposite in2="hardAlpha" operator="out"/>
<feColorMatrix type="matrix" values="0 0 0 0 0.0196078 0 0 0 0 0.0431373 0 0 0 0 0.0235294 0 0 0 1 0"/>
<feBlend mode="normal" in2="BackgroundImageFix" result="effect1_dropShadow_392_116"/>
<feBlend mode="normal" in="SourceGraphic" in2="effect1_dropShadow_392_116" result="shape"/>
</filter>
</defs>
</svg>
