<svg width="131" height="130" viewBox="0 0 131 130" fill="none" xmlns="http://www.w3.org/2000/svg">
<g filter="url(#filter0_d_1577_179)">
<path d="M67.2188 11.5472L75.0287 2.96206C76.2904 1.58025 77.9529 0.620597 79.7873 0.215409C81.6216 -0.189779 83.5375 -0.0205858 85.2709 0.699677C87.0043 1.41994 88.4698 2.65581 89.4656 4.23698C90.4613 5.81815 90.9382 7.66679 90.8306 9.52811L90.2349 21.0187C90.1734 22.2765 90.3778 23.5331 90.835 24.7079C91.2922 25.8827 91.9921 26.9496 92.8897 27.8401C93.7873 28.7305 94.8627 29.4248 96.0469 29.8784C97.231 30.332 98.4977 30.5348 99.7656 30.4738L111.348 29.8828C113.224 29.776 115.088 30.2492 116.682 31.237C118.275 32.2248 119.521 33.6788 120.247 35.3984C120.973 37.118 121.144 39.0187 120.735 40.8385C120.327 42.6583 119.36 44.3076 117.967 45.5592L109.313 53.3072C108.367 54.1507 107.611 55.1822 107.093 56.3347C106.576 57.4871 106.308 58.7347 106.308 59.9963C106.308 61.258 106.576 62.5056 107.093 63.658C107.611 64.8104 108.367 65.8419 109.313 66.6855L117.967 74.4334C119.36 75.685 120.327 77.3344 120.735 79.1542C121.144 80.974 120.973 82.8747 120.247 84.5943C119.521 86.3139 118.275 87.7679 116.682 88.7557C115.088 89.7435 113.224 90.2166 111.348 90.1099L99.7656 89.5189C98.4977 89.4579 97.231 89.6607 96.0469 90.1143C94.8627 90.5678 93.7873 91.2622 92.8897 92.1526C91.9921 93.0431 91.2922 94.11 90.835 95.2848C90.3778 96.4595 90.1734 97.7162 90.2349 98.9741L90.8306 110.465C90.9295 112.323 90.445 114.166 89.444 115.739C88.443 117.313 86.9747 118.54 85.2414 119.251C83.5081 119.963 81.5951 120.123 79.766 119.711C77.937 119.298 76.2819 118.333 75.0287 116.949L67.2188 108.446C66.3685 107.507 65.3288 106.757 64.1671 106.244C63.0055 105.73 61.748 105.465 60.4762 105.465C59.2044 105.465 57.9469 105.73 56.7852 106.244C55.6236 106.757 54.5839 107.507 53.7335 108.446L45.9236 117.014C44.6705 118.399 43.0154 119.364 41.1863 119.776C39.3573 120.189 37.4443 120.028 35.711 119.317C33.9777 118.606 32.5094 117.379 31.5084 115.805C30.5074 114.231 30.0229 112.388 30.1218 110.53L30.7175 99.0397C30.779 97.7819 30.5746 96.5252 30.1174 95.3504C29.6602 94.1756 28.9603 93.1088 28.0627 92.2184C27.1651 91.3279 26.0897 90.6336 24.9055 90.18C23.7214 89.7264 22.4546 89.5236 21.1868 89.5846L9.60428 90.1755C7.72808 90.2823 5.86467 89.8091 4.27086 88.8213C2.67705 87.8335 1.43131 86.3796 0.705291 84.6599C-0.0207325 82.9403 -0.191304 81.0397 0.217125 79.2199C0.625554 77.4001 1.59285 75.7507 2.98572 74.4991L11.6395 66.7511C12.5852 65.9076 13.3415 64.8761 13.8591 63.7237C14.3768 62.5712 14.6443 61.3237 14.6443 60.062C14.6443 58.8003 14.3768 57.5527 13.8591 56.4003C13.3415 55.2479 12.5852 54.2164 11.6395 53.3728L2.98572 45.6249C1.59285 44.3733 0.625554 42.724 0.217125 40.9042C-0.191304 39.0844 -0.0207325 37.1837 0.705291 35.4641C1.43131 33.7444 2.67705 32.2905 4.27086 31.3027C5.86467 30.3148 7.72808 29.8417 9.60428 29.9485L21.1868 30.5394C22.4546 30.6004 23.7214 30.3976 24.9055 29.944C26.0897 29.4905 27.1651 28.7962 28.0627 27.9057C28.9603 27.0153 29.6602 25.9484 30.1174 24.7736C30.5746 23.5988 30.779 22.3422 30.7175 21.0844L30.1218 9.59378C30.0142 7.73247 30.4911 5.88382 31.4868 4.30265C32.4826 2.72149 33.9481 1.48561 35.6815 0.765351C37.4149 0.0450887 39.3307 -0.124104 41.1651 0.281084C42.9995 0.686272 44.662 1.64592 45.9236 3.02774L53.7335 11.6128C54.5885 12.5469 55.6319 13.2921 56.7961 13.8001C57.9603 14.308 59.2192 14.5672 60.4909 14.561C61.7627 14.5549 63.019 14.2833 64.1781 13.7641C65.3372 13.2448 66.3732 12.4895 67.2188 11.5472Z" fill="#EFC6CD"/>
<path d="M89.8319 9.47634L89.8322 9.47037C89.9278 7.81746 89.5044 6.17522 88.6194 4.76987C87.7343 3.36439 86.4307 2.26449 84.8872 1.62313C83.3436 0.981726 81.637 0.830934 80.0029 1.19187C78.369 1.55279 76.8893 2.40735 75.7673 3.63632L67.9631 12.2151C67.9622 12.216 67.9614 12.217 67.9605 12.2179C67.0216 13.2634 65.8721 14.101 64.5869 14.6767C63.3005 15.253 61.9067 15.5542 60.4958 15.561C59.085 15.5679 57.6882 15.2803 56.3962 14.7166C55.1042 14.1529 53.9456 13.3256 52.9959 12.288L52.9938 12.2857L45.1851 3.70199C45.185 3.7018 45.1848 3.70161 45.1846 3.70142C44.0626 2.47276 42.5831 1.61841 40.9494 1.25755C39.3154 0.896608 37.6088 1.0474 36.0652 1.6888C34.5217 2.33017 33.2181 3.43006 32.333 4.83554C31.448 6.2409 31.0246 7.88314 31.1202 9.53605L31.1205 9.54201L31.7162 21.0326L31.7163 21.0355C31.7847 22.4338 31.5574 23.8307 31.0493 25.1363C30.5412 26.4418 29.7636 27.6269 28.767 28.6156C27.7704 29.6043 26.5768 30.3747 25.2632 30.8779C23.9496 31.381 22.5447 31.6059 21.1387 31.5383L21.1358 31.5381L9.55333 30.9472L9.54745 30.9469C7.87594 30.8517 6.2164 31.2733 4.79767 32.1526C3.37906 33.0319 2.27162 34.3251 1.62655 35.853C0.98152 37.3808 0.830109 39.0689 1.19285 40.6852C1.55555 42.3012 2.41472 43.7672 3.65345 44.8805C3.65366 44.8807 3.65388 44.8809 3.6541 44.8811L12.3052 52.6266C12.3056 52.6269 12.306 52.6273 12.3064 52.6276C13.3561 53.5643 14.1961 54.71 14.7713 55.9906C15.3468 57.2717 15.6443 58.6589 15.6443 60.062C15.6443 61.4651 15.3468 62.8523 14.7713 64.1334C14.196 65.4142 13.3558 66.5601 12.3058 67.4968C12.3056 67.497 12.3054 67.4972 12.3052 67.4974L3.6541 75.2429L89.8319 9.47634ZM89.8319 9.47634L89.2362 20.9669L89.2361 20.9698M89.8319 9.47634L89.2361 20.9698M89.2361 20.9698C89.1677 22.3682 89.395 23.765 89.9031 25.0706C90.4112 26.3762 91.1888 27.5613 92.1854 28.55C93.182 29.5387 94.3756 30.3091 95.6892 30.8123C97.0028 31.3154 98.4076 31.5403 99.8137 31.4726L99.8166 31.4725M89.2361 20.9698L99.8166 31.4725M99.8166 31.4725L111.399 30.8815L111.405 30.8812M99.8166 31.4725L111.405 30.8812M111.405 30.8812C113.076 30.7861 114.736 31.2077 116.155 32.087M111.405 30.8812L116.155 32.087M111.399 89.1112L111.405 89.1115C113.076 89.2066 114.736 88.785 116.155 87.9057C117.573 87.0265 118.681 85.7332 119.326 84.2054C119.971 82.6776 120.122 80.9894 119.76 79.3732C119.397 77.7573 118.538 76.2914 117.299 75.1781C117.299 75.1778 117.299 75.1776 117.298 75.1773L108.647 67.4318L111.399 89.1112ZM111.399 89.1112L99.8166 88.5202L99.8137 88.5201M111.399 89.1112L99.8137 88.5201M99.8137 88.5201C98.4077 88.4524 97.0028 88.6773 95.6892 89.1804C94.3756 89.6836 93.182 90.454 92.1854 91.4427C91.1888 92.4314 90.4112 93.6165 89.9031 94.9221C89.395 96.2277 89.1677 97.6246 89.2361 99.0229L89.2362 99.0258M99.8137 88.5201L89.2362 99.0258M89.2362 99.0258L89.8319 110.516L89.832 110.518M89.2362 99.0258L89.832 110.518M89.832 110.518C89.9198 112.168 89.4898 113.804 88.6003 115.203C87.7107 116.601 86.4049 117.693 84.8618 118.326C83.3186 118.959 81.6149 119.102 79.986 118.735C78.3571 118.368 76.8844 117.509 75.7702 116.277L75.7652 116.272M89.832 110.518L75.7652 116.272M75.7652 116.272L67.9598 107.774C67.9591 107.773 67.9584 107.772 67.9577 107.772C67.0135 106.73 65.8597 105.898 64.5715 105.329C63.2823 104.759 61.887 104.465 60.4762 104.465C59.0654 104.465 57.6701 104.759 56.3809 105.329C55.0917 105.899 53.9372 106.732 52.9926 107.774L45.1846 116.341L45.1822 116.343M75.7652 116.272L45.1822 116.343M45.1822 116.343C44.068 117.574 42.5953 118.433 40.9664 118.801C39.3374 119.168 37.6338 119.025 36.0906 118.392C34.5475 117.759 33.2417 116.667 32.3521 115.268C31.4626 113.87 31.0326 112.233 31.1204 110.583L31.1205 110.582M45.1822 116.343L31.1205 110.582M31.1205 110.582L31.7162 99.0915L31.7163 99.0885M31.1205 110.582L31.7163 99.0885M31.7163 99.0885C31.7847 97.6902 31.5574 96.2933 31.0493 94.9877C30.5412 93.6821 29.7636 92.4971 28.767 91.5084C27.7704 90.5198 26.5768 89.7493 25.2632 89.2461C23.9497 88.743 22.5448 88.5181 21.1387 88.5857L21.1358 88.5859M31.7163 99.0885L21.1358 88.5859M21.1358 88.5859L9.55333 89.1768L9.54746 89.1771M21.1358 88.5859L9.54746 89.1771M9.54746 89.1771C7.87594 89.2722 6.2164 88.8506 4.79767 87.9713M9.54746 89.1771L4.79767 87.9713M116.155 32.087C117.573 32.9662 118.681 34.2595 119.326 35.7873M116.155 32.087L119.326 35.7873M119.326 35.7873C119.971 37.3151 120.122 39.0032 119.76 40.6195M119.326 35.7873L119.76 40.6195M119.76 40.6195C119.397 42.2358 118.537 43.702 117.298 44.8154M119.76 40.6195L117.298 44.8154M117.298 44.8154L108.647 52.5609C108.647 52.5609 108.647 52.561 108.647 52.561C107.597 53.4979 106.757 54.6439 106.181 55.9249C105.606 57.206 105.308 58.5932 105.308 59.9963C105.308 61.3995 105.606 62.7867 106.181 64.0678C106.756 65.3483 107.596 66.4939 108.646 67.4305L117.298 44.8154ZM4.79767 87.9713C3.37906 87.0921 2.27162 85.7989 1.62655 84.271M4.79767 87.9713L1.62655 84.271M1.62655 84.271C0.981519 82.7432 0.83011 81.0551 1.19285 79.4389M1.62655 84.271L1.19285 79.4389M1.19285 79.4389C1.55548 77.8231 2.41441 76.3574 3.65276 75.2441L1.19285 79.4389Z" stroke="black" stroke-width="2"/>
</g>
<path fill-rule="evenodd" clip-rule="evenodd" d="M42.583 59.7666V63.0999C42.583 63.8708 43.028 64.6183 43.8747 65.1958C44.8813 65.8824 46.5005 66.3499 48.333 66.3499C50.1655 66.3499 51.7847 65.8824 52.7913 65.1958C53.638 64.6183 54.083 63.8708 54.083 63.0999V59.7666C54.083 59.3524 53.7472 59.0166 53.333 59.0166C52.9188 59.0166 52.583 59.3524 52.583 59.7666V63.0999C52.583 63.4341 52.313 63.7066 51.9455 63.9566C51.1322 64.5116 49.8138 64.8499 48.333 64.8499C46.8522 64.8499 45.5338 64.5116 44.7205 63.9566C44.353 63.7066 44.083 63.4341 44.083 63.0999V59.7666C44.083 59.3524 43.7472 59.0166 43.333 59.0166C42.9188 59.0166 42.583 59.3524 42.583 59.7666Z" fill="#2C2C2C"/>
<path fill-rule="evenodd" clip-rule="evenodd" d="M42.583 63.0996V66.4329C42.583 67.2038 43.028 67.9513 43.8747 68.5288C44.8813 69.2154 46.5005 69.6829 48.333 69.6829C50.1655 69.6829 51.7847 69.2154 52.7913 68.5288C53.638 67.9513 54.083 67.2038 54.083 66.4329V63.0996C54.083 62.6854 53.7472 62.3496 53.333 62.3496C52.9188 62.3496 52.583 62.6854 52.583 63.0996V66.4329C52.583 66.7671 52.313 67.0396 51.9455 67.2896C51.1322 67.8446 49.8138 68.1829 48.333 68.1829C46.8522 68.1829 45.5338 67.8446 44.7205 67.2896C44.353 67.0396 44.083 66.7671 44.083 66.4329V63.0996C44.083 62.6854 43.7472 62.3496 43.333 62.3496C42.9188 62.3496 42.583 62.6854 42.583 63.0996Z" fill="#2C2C2C"/>
<path fill-rule="evenodd" clip-rule="evenodd" d="M48.333 56.5166C46.5013 56.5166 44.8822 56.9841 43.8755 57.6708C43.0288 58.2483 42.583 58.9958 42.583 59.7666C42.583 60.5374 43.0288 61.2849 43.8755 61.8624C44.8822 62.5491 46.5013 63.0166 48.333 63.0166C50.1647 63.0166 51.7838 62.5491 52.7905 61.8624C53.6372 61.2849 54.083 60.5374 54.083 59.7666C54.083 58.9958 53.6372 58.2483 52.7905 57.6708C51.7838 56.9841 50.1647 56.5166 48.333 56.5166ZM48.333 58.0166C49.813 58.0166 51.1313 58.3558 51.9455 58.9099C52.313 59.1608 52.583 59.4324 52.583 59.7666C52.583 60.1008 52.313 60.3724 51.9455 60.6233C51.1313 61.1774 49.813 61.5166 48.333 61.5166C46.853 61.5166 45.5347 61.1774 44.7205 60.6233C44.353 60.3724 44.083 60.1008 44.083 59.7666C44.083 59.4324 44.353 59.1608 44.7205 58.9099C45.5347 58.3558 46.853 58.0166 48.333 58.0166Z" fill="#2C2C2C"/>
<path fill-rule="evenodd" clip-rule="evenodd" d="M35.916 55.167V58.5003C35.916 59.1303 36.2068 59.737 36.7718 60.2528C37.4393 60.8628 38.5293 61.3578 39.8552 61.5945C40.2627 61.667 40.6518 61.3953 40.7252 60.9878C40.7977 60.5795 40.5252 60.1903 40.1177 60.1178C39.2727 59.967 38.5435 59.6987 38.0293 59.3403C37.6752 59.0945 37.416 58.827 37.416 58.5003V55.167C37.416 54.7528 37.0802 54.417 36.666 54.417C36.2518 54.417 35.916 54.7528 35.916 55.167Z" fill="#2C2C2C"/>
<path fill-rule="evenodd" clip-rule="evenodd" d="M35.916 58.5003V61.8337C35.916 62.5378 36.2835 63.2187 36.991 63.7712C37.8268 64.4245 39.1827 64.9137 40.7735 65.047C41.186 65.0812 41.5485 64.7745 41.5827 64.362C41.6177 63.9495 41.311 63.5862 40.8985 63.552C39.6485 63.4478 38.571 63.102 37.9135 62.5887C37.6252 62.3637 37.416 62.1212 37.416 61.8337V58.5003C37.416 58.0862 37.0802 57.7503 36.666 57.7503C36.2518 57.7503 35.916 58.0862 35.916 58.5003ZM40.8885 56.8845C39.6427 56.7787 38.5677 56.4328 37.9127 55.9203C37.6243 55.6953 37.416 55.4537 37.416 55.167C37.416 54.8328 37.686 54.5612 38.0535 54.3103C38.8677 53.7562 40.186 53.417 41.666 53.417C43.146 53.417 44.4643 53.7562 45.2785 54.3103C45.646 54.5612 45.916 54.8328 45.916 55.167C45.916 55.5812 46.2518 55.917 46.666 55.917C47.0802 55.917 47.416 55.5812 47.416 55.167C47.416 54.3962 46.9702 53.6487 46.1235 53.0712C45.1168 52.3845 43.4977 51.917 41.666 51.917C39.8343 51.917 38.2152 52.3845 37.2085 53.0712C36.3618 53.6487 35.916 54.3962 35.916 55.167C35.916 55.8703 36.2827 56.5503 36.9885 57.102C37.8227 57.7545 39.176 58.2445 40.7618 58.3787C41.1743 58.4137 41.5377 58.1078 41.5727 57.6953C41.6077 57.2828 41.301 56.9195 40.8885 56.8845Z" fill="#2C2C2C"/>
<path d="M58.48 61.86C58.24 61.86 58.04 61.78 57.88 61.62C57.72 61.46 57.64 61.26 57.64 61.02C57.64 60.78 57.72 60.585 57.88 60.435C58.04 60.285 58.24 60.21 58.48 60.21H64.585C64.825 60.21 65.025 60.29 65.185 60.45C65.345 60.6 65.425 60.795 65.425 61.035C65.425 61.275 65.345 61.475 65.185 61.635C65.025 61.785 64.825 61.86 64.585 61.86H58.48ZM61.51 64.785C61.23 64.785 60.995 64.695 60.805 64.515C60.625 64.335 60.535 64.105 60.535 63.825V57.975C60.535 57.695 60.63 57.465 60.82 57.285C61.01 57.105 61.245 57.015 61.525 57.015C61.815 57.015 62.045 57.105 62.215 57.285C62.395 57.465 62.485 57.695 62.485 57.975V63.825C62.485 64.105 62.395 64.335 62.215 64.515C62.035 64.695 61.8 64.785 61.51 64.785ZM73.486 66C73.206 66 72.976 65.915 72.796 65.745C72.616 65.565 72.526 65.345 72.526 65.085V57.525L72.736 57.855L71.641 58.665C71.501 58.775 71.326 58.83 71.116 58.83C70.876 58.83 70.666 58.74 70.486 58.56C70.306 58.38 70.216 58.165 70.216 57.915C70.216 57.595 70.371 57.335 70.681 57.135L72.841 55.695C72.941 55.625 73.051 55.575 73.171 55.545C73.301 55.515 73.421 55.5 73.531 55.5C73.821 55.5 74.051 55.59 74.221 55.77C74.391 55.94 74.476 56.155 74.476 56.415V65.085C74.476 65.345 74.381 65.565 74.191 65.745C74.011 65.915 73.776 66 73.486 66ZM80.3511 66.15C79.4911 66.15 78.7611 65.925 78.1611 65.475C77.5711 65.015 77.1211 64.38 76.8111 63.57C76.5011 62.75 76.3461 61.81 76.3461 60.75C76.3461 59.68 76.5011 58.74 76.8111 57.93C77.1211 57.12 77.5711 56.49 78.1611 56.04C78.7611 55.58 79.4911 55.35 80.3511 55.35C81.2111 55.35 81.9361 55.58 82.5261 56.04C83.1261 56.49 83.5811 57.12 83.8911 57.93C84.2011 58.74 84.3561 59.68 84.3561 60.75C84.3561 61.81 84.2011 62.75 83.8911 63.57C83.5811 64.38 83.1261 65.015 82.5261 65.475C81.9361 65.925 81.2111 66.15 80.3511 66.15ZM80.3511 64.35C80.7711 64.35 81.1311 64.22 81.4311 63.96C81.7411 63.69 81.9811 63.29 82.1511 62.76C82.3211 62.22 82.4061 61.55 82.4061 60.75C82.4061 59.94 82.3211 59.27 82.1511 58.74C81.9811 58.21 81.7411 57.815 81.4311 57.555C81.1311 57.285 80.7711 57.15 80.3511 57.15C79.9411 57.15 79.5811 57.285 79.2711 57.555C78.9611 57.815 78.7211 58.21 78.5511 58.74C78.3811 59.27 78.2961 59.94 78.2961 60.75C78.2961 61.55 78.3811 62.22 78.5511 62.76C78.7211 63.29 78.9611 63.69 79.2711 63.96C79.5811 64.22 79.9411 64.35 80.3511 64.35Z" fill="black"/>
<defs>
<filter id="filter0_d_1577_179" x="0" y="0" width="130.952" height="130" filterUnits="userSpaceOnUse" color-interpolation-filters="sRGB">
<feFlood flood-opacity="0" result="BackgroundImageFix"/>
<feColorMatrix in="SourceAlpha" type="matrix" values="0 0 0 0 0 0 0 0 0 0 0 0 0 0 0 0 0 0 127 0" result="hardAlpha"/>
<feOffset dx="10" dy="10"/>
<feComposite in2="hardAlpha" operator="out"/>
<feColorMatrix type="matrix" values="0 0 0 0 0.823529 0 0 0 0 0.380392 0 0 0 0 0.454902 0 0 0 1 0"/>
<feBlend mode="normal" in2="BackgroundImageFix" result="effect1_dropShadow_1577_179"/>
<feBlend mode="normal" in="SourceGraphic" in2="effect1_dropShadow_1577_179" result="shape"/>
</filter>
</defs>
</svg>
