<svg width="130" height="130" viewBox="0 0 130 130" fill="none" xmlns="http://www.w3.org/2000/svg">
<g filter="url(#filter0_d_1577_180)">
<path d="M60.0065 27.5354L84.8533 0L82.957 37.043L120 35.1467L92.4776 60.0065L120 84.8533L82.957 82.97L84.8533 120L60.0065 92.4775L35.1467 120L37.043 82.97L0 84.8533L27.5355 60.0065L0 35.1467L37.043 37.043L35.1467 0L60.0065 27.5354Z" fill="#F6C3B8"/>
<path d="M59.2643 28.2056L60.0067 29.0279L60.7489 28.2054L83.7108 2.75887L81.9583 36.9918L81.9017 38.0983L83.0082 38.0417L117.243 36.2891L91.8073 59.2644L90.9855 60.0067L91.8074 60.7488L117.243 83.7119L83.0078 81.9713L81.9017 81.9151L81.9584 83.0212L83.7108 117.242L60.7488 91.8074L60.0067 90.9855L59.2644 91.8073L36.2892 117.243L38.0417 83.0212L38.0983 81.9151L36.9922 81.9713L2.75771 83.7118L28.2054 60.7489L29.0279 60.0067L28.2056 59.2643L2.7577 36.2891L36.9919 38.0417L38.0983 38.0983L38.0417 36.9918L36.2892 2.7577L59.2643 28.2056Z" stroke="black" stroke-width="2"/>
</g>
<path fill-rule="evenodd" clip-rule="evenodd" d="M42.583 58.7666V62.0999C42.583 62.8708 43.028 63.6183 43.8747 64.1958C44.8813 64.8824 46.5005 65.3499 48.333 65.3499C50.1655 65.3499 51.7847 64.8824 52.7913 64.1958C53.638 63.6183 54.083 62.8708 54.083 62.0999V58.7666C54.083 58.3524 53.7472 58.0166 53.333 58.0166C52.9188 58.0166 52.583 58.3524 52.583 58.7666V62.0999C52.583 62.4341 52.313 62.7066 51.9455 62.9566C51.1322 63.5116 49.8138 63.8499 48.333 63.8499C46.8522 63.8499 45.5338 63.5116 44.7205 62.9566C44.353 62.7066 44.083 62.4341 44.083 62.0999V58.7666C44.083 58.3524 43.7472 58.0166 43.333 58.0166C42.9188 58.0166 42.583 58.3524 42.583 58.7666Z" fill="#2C2C2C"/>
<path fill-rule="evenodd" clip-rule="evenodd" d="M42.583 62.0996V65.4329C42.583 66.2038 43.028 66.9513 43.8747 67.5288C44.8813 68.2154 46.5005 68.6829 48.333 68.6829C50.1655 68.6829 51.7847 68.2154 52.7913 67.5288C53.638 66.9513 54.083 66.2038 54.083 65.4329V62.0996C54.083 61.6854 53.7472 61.3496 53.333 61.3496C52.9188 61.3496 52.583 61.6854 52.583 62.0996V65.4329C52.583 65.7671 52.313 66.0396 51.9455 66.2896C51.1322 66.8446 49.8138 67.1829 48.333 67.1829C46.8522 67.1829 45.5338 66.8446 44.7205 66.2896C44.353 66.0396 44.083 65.7671 44.083 65.4329V62.0996C44.083 61.6854 43.7472 61.3496 43.333 61.3496C42.9188 61.3496 42.583 61.6854 42.583 62.0996Z" fill="#2C2C2C"/>
<path fill-rule="evenodd" clip-rule="evenodd" d="M48.333 55.5166C46.5013 55.5166 44.8822 55.9841 43.8755 56.6708C43.0288 57.2483 42.583 57.9958 42.583 58.7666C42.583 59.5374 43.0288 60.2849 43.8755 60.8624C44.8822 61.5491 46.5013 62.0166 48.333 62.0166C50.1647 62.0166 51.7838 61.5491 52.7905 60.8624C53.6372 60.2849 54.083 59.5374 54.083 58.7666C54.083 57.9958 53.6372 57.2483 52.7905 56.6708C51.7838 55.9841 50.1647 55.5166 48.333 55.5166ZM48.333 57.0166C49.813 57.0166 51.1313 57.3558 51.9455 57.9099C52.313 58.1608 52.583 58.4324 52.583 58.7666C52.583 59.1008 52.313 59.3724 51.9455 59.6233C51.1313 60.1774 49.813 60.5166 48.333 60.5166C46.853 60.5166 45.5347 60.1774 44.7205 59.6233C44.353 59.3724 44.083 59.1008 44.083 58.7666C44.083 58.4324 44.353 58.1608 44.7205 57.9099C45.5347 57.3558 46.853 57.0166 48.333 57.0166Z" fill="#2C2C2C"/>
<path fill-rule="evenodd" clip-rule="evenodd" d="M35.916 54.167V57.5003C35.916 58.1303 36.2068 58.737 36.7718 59.2528C37.4393 59.8628 38.5293 60.3578 39.8552 60.5945C40.2627 60.667 40.6518 60.3953 40.7252 59.9878C40.7977 59.5795 40.5252 59.1903 40.1177 59.1178C39.2727 58.967 38.5435 58.6987 38.0293 58.3403C37.6752 58.0945 37.416 57.827 37.416 57.5003V54.167C37.416 53.7528 37.0802 53.417 36.666 53.417C36.2518 53.417 35.916 53.7528 35.916 54.167Z" fill="#2C2C2C"/>
<path fill-rule="evenodd" clip-rule="evenodd" d="M35.916 57.5003V60.8337C35.916 61.5378 36.2835 62.2187 36.991 62.7712C37.8268 63.4245 39.1827 63.9137 40.7735 64.047C41.186 64.0812 41.5485 63.7745 41.5827 63.362C41.6177 62.9495 41.311 62.5862 40.8985 62.552C39.6485 62.4478 38.571 62.102 37.9135 61.5887C37.6252 61.3637 37.416 61.1212 37.416 60.8337V57.5003C37.416 57.0862 37.0802 56.7503 36.666 56.7503C36.2518 56.7503 35.916 57.0862 35.916 57.5003ZM40.8885 55.8845C39.6427 55.7787 38.5677 55.4328 37.9127 54.9203C37.6243 54.6953 37.416 54.4537 37.416 54.167C37.416 53.8328 37.686 53.5612 38.0535 53.3103C38.8677 52.7562 40.186 52.417 41.666 52.417C43.146 52.417 44.4643 52.7562 45.2785 53.3103C45.646 53.5612 45.916 53.8328 45.916 54.167C45.916 54.5812 46.2518 54.917 46.666 54.917C47.0802 54.917 47.416 54.5812 47.416 54.167C47.416 53.3962 46.9702 52.6487 46.1235 52.0712C45.1168 51.3845 43.4977 50.917 41.666 50.917C39.8343 50.917 38.2152 51.3845 37.2085 52.0712C36.3618 52.6487 35.916 53.3962 35.916 54.167C35.916 54.8703 36.2827 55.5503 36.9885 56.102C37.8227 56.7545 39.176 57.2445 40.7618 57.3787C41.1743 57.4137 41.5377 57.1078 41.5727 56.6953C41.6077 56.2828 41.301 55.9195 40.8885 55.8845Z" fill="#2C2C2C"/>
<path d="M56.7657 60.86C56.5257 60.86 56.3257 60.78 56.1657 60.62C56.0057 60.46 55.9257 60.26 55.9257 60.02C55.9257 59.78 56.0057 59.585 56.1657 59.435C56.3257 59.285 56.5257 59.21 56.7657 59.21H62.8707C63.1107 59.21 63.3107 59.29 63.4707 59.45C63.6307 59.6 63.7107 59.795 63.7107 60.035C63.7107 60.275 63.6307 60.475 63.4707 60.635C63.3107 60.785 63.1107 60.86 62.8707 60.86H56.7657ZM59.7957 63.785C59.5157 63.785 59.2807 63.695 59.0907 63.515C58.9107 63.335 58.8207 63.105 58.8207 62.825V56.975C58.8207 56.695 58.9157 56.465 59.1057 56.285C59.2957 56.105 59.5307 56.015 59.8107 56.015C60.1007 56.015 60.3307 56.105 60.5007 56.285C60.6807 56.465 60.7707 56.695 60.7707 56.975V62.825C60.7707 63.105 60.6807 63.335 60.5007 63.515C60.3207 63.695 60.0857 63.785 59.7957 63.785ZM71.7717 65C71.4917 65 71.2617 64.915 71.0817 64.745C70.9017 64.565 70.8117 64.345 70.8117 64.085V56.525L71.0217 56.855L69.9267 57.665C69.7867 57.775 69.6117 57.83 69.4017 57.83C69.1617 57.83 68.9517 57.74 68.7717 57.56C68.5917 57.38 68.5017 57.165 68.5017 56.915C68.5017 56.595 68.6567 56.335 68.9667 56.135L71.1267 54.695C71.2267 54.625 71.3367 54.575 71.4567 54.545C71.5867 54.515 71.7067 54.5 71.8167 54.5C72.1067 54.5 72.3367 54.59 72.5067 54.77C72.6767 54.94 72.7617 55.155 72.7617 55.415V64.085C72.7617 64.345 72.6667 64.565 72.4767 64.745C72.2967 64.915 72.0617 65 71.7717 65ZM77.6467 65.15C77.2767 65.15 76.8817 65.095 76.4617 64.985C76.0417 64.865 75.6967 64.695 75.4267 64.475C75.2967 64.365 75.1917 64.225 75.1117 64.055C75.0417 63.875 75.0067 63.705 75.0067 63.545C75.0067 63.375 75.0767 63.215 75.2167 63.065C75.3667 62.915 75.5767 62.84 75.8467 62.84C76.0267 62.84 76.2517 62.935 76.5217 63.125C76.6817 63.225 76.8567 63.315 77.0467 63.395C77.2367 63.475 77.4317 63.515 77.6317 63.515C78.1117 63.515 78.5267 63.43 78.8767 63.26C79.2267 63.08 79.4967 62.835 79.6867 62.525C79.8767 62.215 79.9717 61.85 79.9717 61.43C79.9717 61.05 79.8817 60.725 79.7017 60.455C79.5317 60.185 79.3017 59.975 79.0117 59.825C78.7317 59.675 78.4267 59.6 78.0967 59.6C77.7867 59.6 77.5167 59.65 77.2867 59.75C77.0567 59.85 76.8467 59.955 76.6567 60.065C76.4667 60.165 76.2767 60.215 76.0867 60.215C75.7567 60.215 75.5117 60.145 75.3517 60.005C75.1917 59.855 75.0917 59.68 75.0517 59.48C75.0117 59.28 75.0017 59.1 75.0217 58.94L75.4867 55.295C75.5267 55.085 75.6267 54.915 75.7867 54.785C75.9567 54.645 76.1567 54.575 76.3867 54.575H80.7217C80.9617 54.575 81.1617 54.655 81.3217 54.815C81.4817 54.975 81.5617 55.175 81.5617 55.415C81.5617 55.645 81.4817 55.84 81.3217 56C81.1617 56.15 80.9617 56.225 80.7217 56.225H76.8517L77.0167 56.09L76.6117 59.135L76.4167 58.565C76.4767 58.465 76.6067 58.37 76.8067 58.28C77.0067 58.19 77.2367 58.115 77.4967 58.055C77.7567 57.985 78.0117 57.95 78.2617 57.95C78.9317 57.95 79.5317 58.105 80.0617 58.415C80.5917 58.715 81.0067 59.13 81.3067 59.66C81.6167 60.18 81.7717 60.77 81.7717 61.43C81.7717 62.18 81.6017 62.835 81.2617 63.395C80.9217 63.955 80.4417 64.39 79.8217 64.7C79.2117 65 78.4867 65.15 77.6467 65.15Z" fill="black"/>
<defs>
<filter id="filter0_d_1577_180" x="0" y="0" width="130" height="130" filterUnits="userSpaceOnUse" color-interpolation-filters="sRGB">
<feFlood flood-opacity="0" result="BackgroundImageFix"/>
<feColorMatrix in="SourceAlpha" type="matrix" values="0 0 0 0 0 0 0 0 0 0 0 0 0 0 0 0 0 0 127 0" result="hardAlpha"/>
<feOffset dx="10" dy="10"/>
<feComposite in2="hardAlpha" operator="out"/>
<feColorMatrix type="matrix" values="0 0 0 0 0.913725 0 0 0 0 0.403922 0 0 0 0 0.301961 0 0 0 1 0"/>
<feBlend mode="normal" in2="BackgroundImageFix" result="effect1_dropShadow_1577_180"/>
<feBlend mode="normal" in="SourceGraphic" in2="effect1_dropShadow_1577_180" result="shape"/>
</filter>
</defs>
</svg>
