<svg xmlns="http://www.w3.org/2000/svg" viewBox="0 0 147.92 147.92"><defs><style>.cls-1{fill:#e9674d;}.cls-2{fill:#f6c3b8;stroke:#000;stroke-width:2px;}.cls-3{font-size:18px;font-family:Quicksand-SemiBold, Quicksand;font-weight:600;}.cls-4{fill:#2c2c2c;fill-rule:evenodd;}</style></defs><g id="Layer_2" data-name="Layer 2"><g id="Layer_1-2" data-name="Layer 1"><path class="cls-1" d="M46.06,65.79l.68-.25-.31-.65-16.74-35L64.76,46.48l.66.31.24-.68L78.58,9.52,91.66,46l.25.69.65-.32,35-16.72L111,64.77l-.31.65.68.25,36.57,12.91L111.4,91.65l-.68.24.31.66,16.72,35L92.69,111l-.65-.31-.24.68L78.86,147.92,65.8,111.39l-.24-.68-.66.31-35,16.73L46.48,92.68l.31-.66-.68-.24L9.53,78.86Z"/><path class="cls-2" d="M39.52,59.25,40.2,59l-.31-.65-16.74-35L58.22,39.94l.66.31.24-.68L72,3,85.12,39.5l.25.69.65-.32,35-16.72L104.44,58.23l-.31.65.68.24L141.38,72,104.86,85.11l-.68.24.31.65,16.72,35L86.15,104.43l-.65-.31-.24.68L72.32,141.38,59.26,104.85l-.24-.68-.66.31-35,16.73L39.94,86.14l.31-.66-.68-.24L3,72.32Z"/><text class="cls-3" transform="translate(69.48 81.1)">+ 15</text><path class="cls-4" d="M50.2,73.56V76.9A2.57,2.57,0,0,0,51.49,79a9.15,9.15,0,0,0,8.92,0A2.59,2.59,0,0,0,61.7,76.9V73.56a.75.75,0,0,0-1.5,0V76.9c0,.33-.27.6-.64.85a7.69,7.69,0,0,1-7.22,0c-.37-.25-.64-.52-.64-.85V73.56a.75.75,0,0,0-1.5,0Z"/><path class="cls-4" d="M50.2,76.9v3.33a2.6,2.6,0,0,0,1.29,2.1,9.22,9.22,0,0,0,8.92,0,2.62,2.62,0,0,0,1.29-2.1V76.9a.75.75,0,0,0-1.5,0v3.33c0,.34-.27.61-.64.86a7.77,7.77,0,0,1-7.22,0c-.37-.25-.64-.52-.64-.86V76.9a.75.75,0,0,0-1.5,0Z"/><path class="cls-4" d="M56,70.31a8.18,8.18,0,0,0-4.46,1.16,2.35,2.35,0,0,0,0,4.19,9.22,9.22,0,0,0,8.92,0,2.35,2.35,0,0,0,0-4.19A8.18,8.18,0,0,0,56,70.31Zm0,1.5a6.61,6.61,0,0,1,3.61.9c.37.25.64.52.64.85s-.27.61-.64.86a6.61,6.61,0,0,1-3.61.89,6.61,6.61,0,0,1-3.61-.89c-.37-.25-.64-.52-.64-.86s.27-.6.64-.85A6.61,6.61,0,0,1,56,71.81Z"/><path class="cls-4" d="M43.53,69V72.3a2.34,2.34,0,0,0,.86,1.75,6.16,6.16,0,0,0,3.08,1.34.75.75,0,1,0,.26-1.47,5.4,5.4,0,0,1-2.09-.78c-.35-.25-.61-.51-.61-.84V69a.75.75,0,0,0-1.5,0Z"/><path class="cls-4" d="M43.53,72.3v3.33a2.47,2.47,0,0,0,1.08,1.94,7.36,7.36,0,0,0,3.78,1.28.76.76,0,0,0,.81-.69.75.75,0,0,0-.69-.81,5.77,5.77,0,0,1-3-1,1,1,0,0,1-.5-.76V72.3a.75.75,0,0,0-1.5,0Zm5-1.62a5.73,5.73,0,0,1-3-1A1,1,0,0,1,45,69c0-.34.27-.61.64-.86a6.61,6.61,0,0,1,3.61-.89,6.61,6.61,0,0,1,3.61.89c.37.25.64.52.64.86A.75.75,0,0,0,55,69a2.58,2.58,0,0,0-1.29-2.1,8.19,8.19,0,0,0-4.46-1.15,8.19,8.19,0,0,0-4.46,1.15A2.61,2.61,0,0,0,43.53,69,2.49,2.49,0,0,0,44.6,70.9a7.4,7.4,0,0,0,3.78,1.28.75.75,0,1,0,.12-1.5Z"/></g></g></svg>