<svg width="128" height="132" viewBox="0 0 128 132" fill="none" xmlns="http://www.w3.org/2000/svg">
<g filter="url(#filter0_d_1577_181)">
<path d="M58.551 1L66.0413 32.2359C67.5029 38.3311 68.2337 41.3787 69.7557 43.8585C71.102 46.0521 72.8888 47.9149 74.9928 49.3185C77.3715 50.9053 80.2947 51.6672 86.141 53.191L116.102 61L86.141 68.809C80.2947 70.3328 77.3715 71.0947 74.9928 72.6815C72.8888 74.0851 71.102 75.9479 69.7557 78.1415C68.2337 80.6213 67.5029 83.6689 66.0413 89.7641L58.551 121L51.0608 89.764C49.5992 83.6689 48.8684 80.6213 47.3463 78.1415C46 75.9479 44.2132 74.0851 42.1092 72.6815C39.7306 71.0947 36.8074 70.3328 30.961 68.809L1 61L30.961 53.191C36.8074 51.6672 39.7305 50.9053 42.1092 49.3185C44.2132 47.9149 46 46.0521 47.3463 43.8585C48.8684 41.3787 49.5992 38.3311 51.0608 32.2359L58.551 1Z" fill="#C0E0C7"/>
<path d="M58.551 1L66.0413 32.2359C67.5029 38.3311 68.2337 41.3787 69.7557 43.8585C71.102 46.0521 72.8888 47.9149 74.9928 49.3185C77.3715 50.9053 80.2947 51.6672 86.141 53.191L116.102 61L86.141 68.809C80.2947 70.3328 77.3715 71.0947 74.9928 72.6815C72.8888 74.0851 71.102 75.9479 69.7557 78.1415C68.2337 80.6213 67.5029 83.6689 66.0413 89.7641L58.551 121L51.0608 89.764C49.5992 83.6689 48.8684 80.6213 47.3463 78.1415C46 75.9479 44.2132 74.0851 42.1092 72.6815C39.7306 71.0947 36.8074 70.3328 30.961 68.809L1 61L30.961 53.191C36.8074 51.6672 39.7305 50.9053 42.1092 49.3185C44.2132 47.9149 46 46.0521 47.3463 43.8585C48.8684 41.3787 49.5992 38.3311 51.0608 32.2359L58.551 1Z" fill="#C0E0C7"/>
<path d="M58.551 1L51.0608 32.2359C49.5992 38.3311 48.8684 41.3787 47.3463 43.8585C46 46.0521 44.2132 47.9149 42.1092 49.3185C39.7305 50.9053 36.8074 51.6672 30.961 53.191L1 61L30.961 68.809C36.8074 70.3328 39.7306 71.0947 42.1092 72.6815C44.2132 74.0851 46 75.9479 47.3463 78.1415C48.8684 80.6213 49.5992 83.6689 51.0608 89.764L58.551 121L66.0413 89.7641C67.5029 83.6689 68.2337 80.6213 69.7557 78.1415C71.102 75.9479 72.8888 74.0851 74.9928 72.6815C77.3715 71.0947 80.2947 70.3328 86.141 68.809L116.102 61L86.141 53.191C80.2947 51.6672 77.3715 50.9053 74.9928 49.3185C72.8888 47.9149 71.102 46.0521 69.7557 43.8585C68.2337 41.3787 67.5029 38.3311 66.0413 32.2359L58.551 1Z" stroke="black" stroke-width="2" stroke-linecap="round" stroke-linejoin="round"/>
</g>
<path fill-rule="evenodd" clip-rule="evenodd" d="M40.583 60.7666V64.0999C40.583 64.8708 41.028 65.6183 41.8747 66.1958C42.8813 66.8824 44.5005 67.3499 46.333 67.3499C48.1655 67.3499 49.7847 66.8824 50.7913 66.1958C51.638 65.6183 52.083 64.8708 52.083 64.0999V60.7666C52.083 60.3524 51.7472 60.0166 51.333 60.0166C50.9188 60.0166 50.583 60.3524 50.583 60.7666V64.0999C50.583 64.4341 50.313 64.7066 49.9455 64.9566C49.1322 65.5116 47.8138 65.8499 46.333 65.8499C44.8522 65.8499 43.5338 65.5116 42.7205 64.9566C42.353 64.7066 42.083 64.4341 42.083 64.0999V60.7666C42.083 60.3524 41.7472 60.0166 41.333 60.0166C40.9188 60.0166 40.583 60.3524 40.583 60.7666Z" fill="#2C2C2C"/>
<path fill-rule="evenodd" clip-rule="evenodd" d="M40.583 64.0996V67.4329C40.583 68.2038 41.028 68.9513 41.8747 69.5288C42.8813 70.2154 44.5005 70.6829 46.333 70.6829C48.1655 70.6829 49.7847 70.2154 50.7913 69.5288C51.638 68.9513 52.083 68.2038 52.083 67.4329V64.0996C52.083 63.6854 51.7472 63.3496 51.333 63.3496C50.9188 63.3496 50.583 63.6854 50.583 64.0996V67.4329C50.583 67.7671 50.313 68.0396 49.9455 68.2896C49.1322 68.8446 47.8138 69.1829 46.333 69.1829C44.8522 69.1829 43.5338 68.8446 42.7205 68.2896C42.353 68.0396 42.083 67.7671 42.083 67.4329V64.0996C42.083 63.6854 41.7472 63.3496 41.333 63.3496C40.9188 63.3496 40.583 63.6854 40.583 64.0996Z" fill="#2C2C2C"/>
<path fill-rule="evenodd" clip-rule="evenodd" d="M46.333 57.5166C44.5013 57.5166 42.8822 57.9841 41.8755 58.6708C41.0288 59.2483 40.583 59.9958 40.583 60.7666C40.583 61.5374 41.0288 62.2849 41.8755 62.8624C42.8822 63.5491 44.5013 64.0166 46.333 64.0166C48.1647 64.0166 49.7838 63.5491 50.7905 62.8624C51.6372 62.2849 52.083 61.5374 52.083 60.7666C52.083 59.9958 51.6372 59.2483 50.7905 58.6708C49.7838 57.9841 48.1647 57.5166 46.333 57.5166ZM46.333 59.0166C47.813 59.0166 49.1313 59.3558 49.9455 59.9099C50.313 60.1608 50.583 60.4324 50.583 60.7666C50.583 61.1008 50.313 61.3724 49.9455 61.6233C49.1313 62.1774 47.813 62.5166 46.333 62.5166C44.853 62.5166 43.5347 62.1774 42.7205 61.6233C42.353 61.3724 42.083 61.1008 42.083 60.7666C42.083 60.4324 42.353 60.1608 42.7205 59.9099C43.5347 59.3558 44.853 59.0166 46.333 59.0166Z" fill="#2C2C2C"/>
<path fill-rule="evenodd" clip-rule="evenodd" d="M33.916 56.167V59.5003C33.916 60.1303 34.2068 60.737 34.7718 61.2528C35.4393 61.8628 36.5293 62.3578 37.8552 62.5945C38.2627 62.667 38.6518 62.3953 38.7252 61.9878C38.7977 61.5795 38.5252 61.1903 38.1177 61.1178C37.2727 60.967 36.5435 60.6987 36.0293 60.3403C35.6752 60.0945 35.416 59.827 35.416 59.5003V56.167C35.416 55.7528 35.0802 55.417 34.666 55.417C34.2518 55.417 33.916 55.7528 33.916 56.167Z" fill="#2C2C2C"/>
<path fill-rule="evenodd" clip-rule="evenodd" d="M33.916 59.5003V62.8337C33.916 63.5378 34.2835 64.2187 34.991 64.7712C35.8268 65.4245 37.1827 65.9137 38.7735 66.047C39.186 66.0812 39.5485 65.7745 39.5827 65.362C39.6177 64.9495 39.311 64.5862 38.8985 64.552C37.6485 64.4478 36.571 64.102 35.9135 63.5887C35.6252 63.3637 35.416 63.1212 35.416 62.8337V59.5003C35.416 59.0862 35.0802 58.7503 34.666 58.7503C34.2518 58.7503 33.916 59.0862 33.916 59.5003ZM38.8885 57.8845C37.6427 57.7787 36.5677 57.4328 35.9127 56.9203C35.6243 56.6953 35.416 56.4537 35.416 56.167C35.416 55.8328 35.686 55.5612 36.0535 55.3103C36.8677 54.7562 38.186 54.417 39.666 54.417C41.146 54.417 42.4643 54.7562 43.2785 55.3103C43.646 55.5612 43.916 55.8328 43.916 56.167C43.916 56.5812 44.2518 56.917 44.666 56.917C45.0802 56.917 45.416 56.5812 45.416 56.167C45.416 55.3962 44.9702 54.6487 44.1235 54.0712C43.1168 53.3845 41.4977 52.917 39.666 52.917C37.8343 52.917 36.2152 53.3845 35.2085 54.0712C34.3618 54.6487 33.916 55.3962 33.916 56.167C33.916 56.8703 34.2827 57.5503 34.9885 58.102C35.8227 58.7545 37.176 59.2445 38.7618 59.3787C39.1743 59.4137 39.5377 59.1078 39.5727 58.6953C39.6077 58.2828 39.301 57.9195 38.8885 57.8845Z" fill="#2C2C2C"/>
<path d="M56.1251 62.86C55.8851 62.86 55.6851 62.78 55.5251 62.62C55.3651 62.46 55.2851 62.26 55.2851 62.02C55.2851 61.78 55.3651 61.585 55.5251 61.435C55.6851 61.285 55.8851 61.21 56.1251 61.21H62.2301C62.4701 61.21 62.6701 61.29 62.8301 61.45C62.9901 61.6 63.0701 61.795 63.0701 62.035C63.0701 62.275 62.9901 62.475 62.8301 62.635C62.6701 62.785 62.4701 62.86 62.2301 62.86H56.1251ZM59.1551 65.785C58.8751 65.785 58.6401 65.695 58.4501 65.515C58.2701 65.335 58.1801 65.105 58.1801 64.825V58.975C58.1801 58.695 58.2751 58.465 58.4651 58.285C58.6551 58.105 58.8901 58.015 59.1701 58.015C59.4601 58.015 59.6901 58.105 59.8601 58.285C60.0401 58.465 60.1301 58.695 60.1301 58.975V64.825C60.1301 65.105 60.0401 65.335 59.8601 65.515C59.6801 65.695 59.4451 65.785 59.1551 65.785ZM74.431 65.35C74.671 65.35 74.871 65.43 75.031 65.59C75.191 65.75 75.271 65.95 75.271 66.19C75.271 66.42 75.191 66.615 75.031 66.775C74.871 66.925 74.671 67 74.431 67H69.331C69.071 67 68.866 66.92 68.716 66.76C68.566 66.6 68.491 66.395 68.491 66.145C68.491 65.895 68.581 65.675 68.761 65.485L72.031 61.99C72.401 61.59 72.691 61.18 72.901 60.76C73.121 60.34 73.231 59.975 73.231 59.665C73.231 59.165 73.086 58.765 72.796 58.465C72.506 58.155 72.121 58 71.641 58C71.451 58 71.256 58.045 71.056 58.135C70.856 58.225 70.661 58.35 70.471 58.51C70.291 58.67 70.121 58.855 69.961 59.065C69.841 59.225 69.721 59.325 69.601 59.365C69.481 59.405 69.371 59.425 69.271 59.425C69.051 59.425 68.846 59.345 68.656 59.185C68.476 59.015 68.386 58.82 68.386 58.6C68.386 58.43 68.441 58.265 68.551 58.105C68.671 57.945 68.816 57.78 68.986 57.61C69.236 57.36 69.516 57.14 69.826 56.95C70.136 56.76 70.456 56.615 70.786 56.515C71.116 56.405 71.436 56.35 71.746 56.35C72.416 56.35 72.996 56.485 73.486 56.755C73.986 57.015 74.371 57.39 74.641 57.88C74.911 58.36 75.046 58.93 75.046 59.59C75.046 60.14 74.881 60.755 74.551 61.435C74.231 62.105 73.796 62.735 73.246 63.325L71.221 65.485L71.056 65.35H74.431ZM80.7061 67.15C79.8461 67.15 79.1161 66.925 78.5161 66.475C77.9261 66.015 77.4761 65.38 77.1661 64.57C76.8561 63.75 76.7011 62.81 76.7011 61.75C76.7011 60.68 76.8561 59.74 77.1661 58.93C77.4761 58.12 77.9261 57.49 78.5161 57.04C79.1161 56.58 79.8461 56.35 80.7061 56.35C81.5661 56.35 82.2911 56.58 82.8811 57.04C83.4811 57.49 83.9361 58.12 84.2461 58.93C84.5561 59.74 84.7111 60.68 84.7111 61.75C84.7111 62.81 84.5561 63.75 84.2461 64.57C83.9361 65.38 83.4811 66.015 82.8811 66.475C82.2911 66.925 81.5661 67.15 80.7061 67.15ZM80.7061 65.35C81.1261 65.35 81.4861 65.22 81.7861 64.96C82.0961 64.69 82.3361 64.29 82.5061 63.76C82.6761 63.22 82.7611 62.55 82.7611 61.75C82.7611 60.94 82.6761 60.27 82.5061 59.74C82.3361 59.21 82.0961 58.815 81.7861 58.555C81.4861 58.285 81.1261 58.15 80.7061 58.15C80.2961 58.15 79.9361 58.285 79.6261 58.555C79.3161 58.815 79.0761 59.21 78.9061 59.74C78.7361 60.27 78.6511 60.94 78.6511 61.75C78.6511 62.55 78.7361 63.22 78.9061 63.76C79.0761 64.29 79.3161 64.69 79.6261 64.96C79.9361 65.22 80.2961 65.35 80.7061 65.35Z" fill="black"/>
<defs>
<filter id="filter0_d_1577_181" x="0" y="0" width="127.102" height="132" filterUnits="userSpaceOnUse" color-interpolation-filters="sRGB">
<feFlood flood-opacity="0" result="BackgroundImageFix"/>
<feColorMatrix in="SourceAlpha" type="matrix" values="0 0 0 0 0 0 0 0 0 0 0 0 0 0 0 0 0 0 127 0" result="hardAlpha"/>
<feOffset dx="10" dy="10"/>
<feComposite in2="hardAlpha" operator="out"/>
<feColorMatrix type="matrix" values="0 0 0 0 0.384314 0 0 0 0 0.698039 0 0 0 0 0.45098 0 0 0 1 0"/>
<feBlend mode="normal" in2="BackgroundImageFix" result="effect1_dropShadow_1577_181"/>
<feBlend mode="normal" in="SourceGraphic" in2="effect1_dropShadow_1577_181" result="shape"/>
</filter>
</defs>
</svg>
