<svg xmlns="http://www.w3.org/2000/svg" viewBox="0 0 215.82 216.82"><defs><style>.cls-1{fill:#62b273;}.cls-2{fill:#c0e0c7;}.cls-3{fill:none;stroke:#000;stroke-width:2px;}</style></defs><g id="Layer_2" data-name="Layer 2"><g id="Layer_1-2" data-name="Layer 1"><path class="cls-1" d="M114.91,108.8c34.59-129.07-37.59-129.07-3,0-34.59-129.07-97.09-93-2.61,1.5-94.48-94.48-130.57-32-1.5,2.61-129.07-34.59-129.07,37.59,0,3-129.07,34.59-93,97.09,1.5,2.61-94.48,94.48-32,130.57,2.61,1.5-34.59,129.07,37.59,129.07,3,0,34.59,129.07,97.09,93,2.61-1.5,94.48,94.48,130.57,32,1.5-2.61,129.07,34.59,129.07-37.59,0-3,129.07-34.59,93-97.09-1.5-2.61C212,15.82,149.5-20.27,114.91,108.8Z"/><path class="cls-2" d="M104.91,97.8c34.59-129.07-37.59-129.07-3,0C67.32-31.27,4.82,4.82,99.3,99.3c-94.48-94.48-130.57-32-1.5,2.61-129.07-34.59-129.07,37.59,0,3-129.07,34.59-93,97.09,1.5,2.61-94.48,94.48-32,130.57,2.61,1.5-34.59,129.07,37.59,129.07,3,0,34.59,129.07,97.09,93,2.61-1.5,94.48,94.48,130.57,32,1.5-2.61,129.07,34.59,129.07-37.59,0-3,129.07-34.59,93-97.09-1.5-2.61C202,4.82,139.5-31.27,104.91,97.8Z"/><path class="cls-3" d="M104.91,97.8c34.59-129.07-37.59-129.07-3,0C67.32-31.27,4.82,4.82,99.3,99.3c-94.48-94.48-130.57-32-1.5,2.61-129.07-34.59-129.07,37.59,0,3-129.07,34.59-93,97.09,1.5,2.61-94.48,94.48-32,130.57,2.61,1.5-34.59,129.07,37.59,129.07,3,0,34.59,129.07,97.09,93,2.61-1.5,94.48,94.48,130.57,32,1.5-2.61,129.07,34.59,129.07-37.59,0-3,129.07-34.59,93-97.09-1.5-2.61C202,4.82,139.5-31.27,104.91,97.8Z"/></g></g></svg>