<svg xmlns="http://www.w3.org/2000/svg" viewBox="0 0 202.11 203.75"><defs><style>.cls-1{fill:#efc6cd;}.cls-2{fill:#f4d8dd;stroke:#000;stroke-width:2px;}</style></defs><g id="Layer_2" data-name="Layer 2"><g id="Layer_1-2" data-name="Layer 1"><path class="cls-1" d="M116.8,21.62l2-3.55c5.92-10.7,22.16-6.33,22,5.91L140.67,28a11.72,11.72,0,0,0,17.74,10.29l3.47-2.09c10.46-6.3,22.36,5.64,16.08,16.13l-2.08,3.48a11.76,11.76,0,0,0,10.25,17.81l4-.07c12.2-.2,16.55,16.1,5.89,22l-3.54,2a11.78,11.78,0,0,0,0,20.56l3.54,2c10.66,5.94,6.31,22.24-5.89,22l-4-.07a11.76,11.76,0,0,0-10.25,17.81l2.08,3.48c6.28,10.5-5.62,22.43-16.08,16.13l-3.47-2.08a11.71,11.71,0,0,0-17.74,10.28l.06,4.06c.2,12.24-16,16.6-22,5.9l-2-3.55a11.7,11.7,0,0,0-20.49,0l-2,3.55c-5.92,10.7-22.16,6.34-22-5.9l.06-4.06A11.71,11.71,0,0,0,54.7,177.44l-3.47,2.08c-10.46,6.3-22.36-5.63-16.08-16.13l2.08-3.48A11.76,11.76,0,0,0,27,142.1l-4,.07c-12.2.2-16.55-16.1-5.89-22l3.54-2a11.78,11.78,0,0,0,0-20.56l-3.54-2c-10.66-5.94-6.31-22.24,5.89-22l4,.07A11.76,11.76,0,0,0,37.23,55.84l-2.08-3.48c-6.28-10.49,5.62-22.43,16.08-16.13l3.47,2.09A11.72,11.72,0,0,0,72.44,28L72.38,24c-.2-12.24,16-16.61,22-5.91l2,3.55A11.7,11.7,0,0,0,116.8,21.62Z"/><path class="cls-2" d="M106.8,10.62l2-3.55c5.92-10.7,22.16-6.33,22,5.91L130.67,17a11.72,11.72,0,0,0,17.74,10.29l3.47-2.09c10.46-6.3,22.36,5.64,16.08,16.13l-2.08,3.48a11.76,11.76,0,0,0,10.25,17.81l4-.07c12.2-.2,16.55,16.1,5.89,22l-3.54,2a11.78,11.78,0,0,0,0,20.56l3.54,2c10.66,5.94,6.31,22.24-5.89,22l-4-.07a11.76,11.76,0,0,0-10.25,17.81l2.08,3.48c6.28,10.5-5.62,22.43-16.08,16.13l-3.47-2.08a11.71,11.71,0,0,0-17.74,10.28l.06,4.06c.2,12.24-16,16.6-22,5.9l-2-3.55a11.7,11.7,0,0,0-20.49,0l-2,3.55c-5.92,10.7-22.16,6.34-22-5.9l.06-4.06A11.71,11.71,0,0,0,44.7,166.44l-3.47,2.08c-10.46,6.3-22.36-5.63-16.08-16.13l2.08-3.48A11.76,11.76,0,0,0,17,131.1l-4,.07c-12.2.2-16.55-16.1-5.89-22l3.54-2a11.78,11.78,0,0,0,0-20.56l-3.54-2c-10.66-5.94-6.31-22.24,5.89-22l4,.07A11.76,11.76,0,0,0,27.23,44.84l-2.08-3.48c-6.28-10.49,5.62-22.43,16.08-16.13l3.47,2.09A11.72,11.72,0,0,0,62.44,17L62.38,13c-.2-12.24,16-16.61,22-5.91l2,3.55A11.7,11.7,0,0,0,106.8,10.62Z"/></g></g></svg>