<svg xmlns="http://www.w3.org/2000/svg" viewBox="0 0 191 212"><defs><style>.cls-1{fill:#c2b0ea;}.cls-2{fill:#e6dff6;stroke:#000;stroke-miterlimit:10;stroke-width:2px;}</style></defs><g id="Layer_2" data-name="Layer 2"><g id="Layer_1-2" data-name="Layer 1"><path class="cls-1" d="M104.61,117.71c72.87,125.72-80.09,125.72-7.22,0C24.52,243.43-52,111.49,93.8,111.49c-145.79,0-69.28-131.95,3.59-6.2-72.87-125.72,80.09-125.72,7.22,0,72.87-125.72,149.38,6.2,3.59,6.2C254,111.49,177.48,243.46,104.61,117.71Z"/><path class="cls-2" d="M94.61,107.71c72.87,125.72-80.09,125.72-7.22,0C14.52,233.43-62,101.49,83.8,101.49c-145.79,0-69.28-131.95,3.59-6.2-72.87-125.72,80.09-125.72,7.22,0,72.87-125.72,149.38,6.2,3.59,6.2C244,101.49,167.48,233.46,94.61,107.71Z"/></g></g></svg>