<svg xmlns="http://www.w3.org/2000/svg" viewBox="0 0 208.24 208.24"><defs><style>.cls-1{fill:#e9674d;}.cls-2{fill:#f6c3b8;stroke:#000;stroke-width:2px;}</style></defs><g id="Layer_2" data-name="Layer 2"><g id="Layer_1-2" data-name="Layer 1"><path class="cls-1" d="M109.77,56.79l.74.82.74-.82,39.74-44L148,72l0,1.1,1.1,0,59.24-3-44,39.76-.82.74.82.74,44,39.74L149,148l-1.1-.06,0,1.11,3,59.21-39.74-44-.74-.82-.74.82L70,208.24l3-59.21,0-1.11L72,148l-59.24,3,44-39.74.82-.74-.82-.74L12.76,70l59.24,3,1.1,0,0-1.1L70,12.76Z"/><path class="cls-2" d="M99.77,46.79l.74.82.74-.82L141,2.76,138,62l0,1.1,1.1-.05,59.24-3-44,39.76-.82.74.82.74,44,39.74L139,138l-1.1-.06,0,1.11,3,59.21-39.74-44-.74-.82-.74.82L60,198.24l3-59.21.05-1.11L62,138,2.76,141l44-39.74.82-.74-.82-.74L2.76,60l59.24,3,1.1.05L63.05,62,60,2.76Z"/></g></g></svg>