<svg xmlns="http://www.w3.org/2000/svg" viewBox="0 0 201.96 207.23"><defs><style>.cls-1{fill:#e9a13b;}.cls-2{fill:#f6d9b0;stroke:#000;stroke-width:2px;}</style></defs><g id="Layer_2" data-name="Layer 2"><g id="Layer_1-2" data-name="Layer 1"><path class="cls-1" d="M108,11.23l12.24,51c2.39,10,3.58,14.93,6.07,19a28.65,28.65,0,0,0,8.55,8.91c3.88,2.6,8.66,3.84,18.21,6.33L202,109.23,153,122c-9.55,2.49-14.33,3.73-18.21,6.32a28.79,28.79,0,0,0-8.55,8.92c-2.49,4.05-3.68,9-6.07,19l-12.24,51-12.23-51c-2.39-10-3.58-14.93-6.07-19a28.91,28.91,0,0,0-8.55-8.92c-3.89-2.59-8.66-3.83-18.21-6.32L14,109.23,62.9,96.48c9.55-2.49,14.32-3.73,18.21-6.33a28.77,28.77,0,0,0,8.55-8.91c2.49-4.06,3.68-9,6.07-19Z"/><path class="cls-2" d="M98,.23l12.24,51c2.39,10,3.58,14.93,6.07,19a28.65,28.65,0,0,0,8.55,8.91c3.88,2.6,8.66,3.84,18.21,6.33L192,98.23,143,111c-9.55,2.49-14.33,3.73-18.21,6.32a28.79,28.79,0,0,0-8.55,8.92c-2.49,4-3.68,9-6.07,19L98,196.23l-12.23-51c-2.39-10-3.58-14.93-6.07-19a28.91,28.91,0,0,0-8.55-8.92c-3.89-2.59-8.66-3.83-18.21-6.32L4,98.23,52.9,85.48c9.55-2.49,14.32-3.73,18.21-6.33a28.77,28.77,0,0,0,8.55-8.91c2.49-4.06,3.68-9,6.07-19Z"/></g></g></svg>