<svg xmlns="http://www.w3.org/2000/svg" viewBox="0 0 51.1 52.75"><defs><style>.cls-1{fill:#e9a13b;}.cls-2{fill:#f6d9b0;stroke:#000;stroke-miterlimit:10;stroke-width:2px;}</style></defs><g id="Layer_2" data-name="Layer 2"><g id="Layer_1-2" data-name="Layer 1"><path class="cls-1" d="M30.57,11.38a.49.49,0,0,1,1,0l2.32,9.71a15.71,15.71,0,0,0,1.38,4.36,6.59,6.59,0,0,0,2,2A13.7,13.7,0,0,0,41.36,29l9.37,2.45a.49.49,0,0,1,0,1L41.36,34.8a13.7,13.7,0,0,0-4.17,1.46,6.59,6.59,0,0,0-2,2,15.71,15.71,0,0,0-1.38,4.36l-2.32,9.71a.49.49,0,0,1-1,0l-2.32-9.71a15.64,15.64,0,0,0-1.39-4.36,6.56,6.56,0,0,0-1.95-2,13.7,13.7,0,0,0-4.17-1.46l-9.37-2.45a.49.49,0,0,1,0-1L20.74,29a13.7,13.7,0,0,0,4.17-1.46,6.56,6.56,0,0,0,1.95-2,15.64,15.64,0,0,0,1.39-4.36Z"/><path class="cls-2" d="M20.57,1.38a.49.49,0,0,1,1,0l2.32,9.71a15.71,15.71,0,0,0,1.38,4.36,6.59,6.59,0,0,0,2,2A13.7,13.7,0,0,0,31.36,19l9.37,2.45a.49.49,0,0,1,0,1L31.36,24.8a13.7,13.7,0,0,0-4.17,1.46,6.59,6.59,0,0,0-2,2,15.71,15.71,0,0,0-1.38,4.36l-2.32,9.71a.49.49,0,0,1-1,0l-2.32-9.71a15.64,15.64,0,0,0-1.39-4.36,6.56,6.56,0,0,0-1.95-2,13.7,13.7,0,0,0-4.17-1.46L1.37,22.35a.49.49,0,0,1,0-1L10.74,19a13.7,13.7,0,0,0,4.17-1.46,6.56,6.56,0,0,0,1.95-2,15.64,15.64,0,0,0,1.39-4.36Z"/></g></g></svg>