<svg xmlns="http://www.w3.org/2000/svg" viewBox="0 0 58.95 59.95"><defs><style>.cls-1{fill:#c2b0ea;}.cls-2{fill:#e6dff6;stroke:#000;stroke-miterlimit:10;stroke-width:2px;}</style></defs><g id="Layer_2" data-name="Layer 2"><g id="Layer_1-2" data-name="Layer 1"><polygon class="cls-1" points="35.85 24.35 45.42 13.76 44.69 28.02 58.95 27.29 48.35 36.85 58.95 46.42 44.69 45.69 45.42 59.95 35.85 49.35 26.29 59.95 27.02 45.69 12.76 46.42 23.35 36.85 12.76 27.29 27.02 28.02 26.29 13.76 35.85 24.35"/><polygon class="cls-2" points="25.85 13.35 35.42 2.76 34.69 17.02 48.95 16.29 38.35 25.85 48.95 35.42 34.69 34.69 35.42 48.95 25.85 38.35 16.29 48.95 17.02 34.69 2.76 35.42 13.35 25.85 2.76 16.29 17.02 17.02 16.29 2.76 25.85 13.35"/></g></g></svg>