<svg width="1662" height="587" viewBox="0 0 1662 587" fill="none" xmlns="http://www.w3.org/2000/svg">
<path d="M1603.18 154L1610.75 184.605C1612.23 190.577 1612.97 193.563 1614.51 195.993C1615.87 198.142 1617.68 199.967 1619.8 201.342C1622.21 202.897 1625.16 203.644 1631.07 205.137L1661.36 212.788L1631.07 220.439C1625.16 221.932 1622.21 222.678 1619.8 224.233C1617.68 225.608 1615.87 227.434 1614.51 229.583C1612.97 232.013 1612.23 234.999 1610.75 240.971L1603.18 271.575L1595.61 240.971C1594.13 234.999 1593.39 232.013 1591.85 229.583C1590.49 227.434 1588.69 225.608 1586.56 224.233C1584.16 222.678 1581.2 221.932 1575.29 220.439L1545 212.788L1575.29 205.137C1581.2 203.644 1584.16 202.897 1586.56 201.342C1588.69 199.967 1590.49 198.142 1591.85 195.993C1593.39 193.563 1594.13 190.577 1595.61 184.605L1603.18 154Z" fill="#E9A13B"/>
<path d="M1603.18 154L1610.75 184.605C1612.23 190.577 1612.97 193.563 1614.51 195.993C1615.87 198.142 1617.68 199.967 1619.8 201.342C1622.21 202.897 1625.16 203.644 1631.07 205.137L1661.36 212.788L1631.07 220.439C1625.16 221.932 1622.21 222.678 1619.8 224.233C1617.68 225.608 1615.87 227.434 1614.51 229.583C1612.97 232.013 1612.23 234.999 1610.75 240.971L1603.18 271.575L1595.61 240.971C1594.13 234.999 1593.39 232.013 1591.85 229.583C1590.49 227.434 1588.69 225.608 1586.56 224.233C1584.16 222.678 1581.2 221.932 1575.29 220.439L1545 212.788L1575.29 205.137C1581.2 203.644 1584.16 202.897 1586.56 201.342C1588.69 199.967 1590.49 198.142 1591.85 195.993C1593.39 193.563 1594.13 190.577 1595.61 184.605L1603.18 154Z" fill="#E9A13B"/>
<path d="M306.496 521.381C296.429 594.994 232.518 547.351 303.475 519.129C232.518 547.351 243.07 470.08 303.984 515.49C243.07 470.08 317.556 440.47 307.48 514.095C317.547 440.482 381.458 488.125 310.501 516.347C381.458 488.125 370.916 565.385 310.001 519.975C370.916 565.385 296.42 595.006 306.496 521.381Z" fill="#E9674D"/>
<path d="M101.866 52.6442L126.478 10L125.641 58.7781L169.101 33.6933L143.044 75.5318L193.732 74.7262L149.416 98.4195L193.732 122.131L143.044 121.307L169.101 163.164L125.641 138.079L126.478 186.857L101.866 144.195L77.2543 186.857L78.0912 138.079L34.6117 163.164L60.688 121.307L10 122.131L54.3163 98.4195L10 74.7262L60.688 75.5318L34.6117 33.6933L78.0912 58.7781L77.2543 10L101.866 52.6442Z" fill="#62B273"/>
<path d="M297.662 511.503L296.672 511.383L296.665 511.382L296.656 511.381L296.649 511.38L295.649 511.259C295.648 511.268 295.647 511.278 295.645 511.287C293.143 529.552 287.326 540.101 281.286 545.321C275.263 550.527 269.094 550.426 265.384 547.661C261.674 544.895 259.998 539.147 263.66 532.181C267.333 525.192 276.391 517.049 294.014 510.04L293.635 509.129L293.256 508.219C275.635 515.227 263.257 515.61 255.538 513.145C247.835 510.686 244.833 505.458 245.444 500.986C246.054 496.521 250.343 492.253 258.431 491.853C266.542 491.452 278.39 494.992 293.521 506.272L294.144 505.49L294.767 504.707C279.635 493.427 273.073 483.243 271.402 475.551C269.736 467.879 272.903 462.776 277.206 461.065C281.517 459.351 287.504 460.827 291.927 467.409C296.358 474.005 299.136 485.69 296.634 503.973C296.634 503.974 296.634 503.974 296.634 503.974L297.64 504.095C298.15 500.367 298.798 496.949 299.56 493.824C299.45 497.042 299.155 500.503 298.646 504.217L297.65 504.097L298.646 504.217C301.147 485.935 306.967 475.378 313.009 470.156C319.032 464.949 325.202 465.05 328.912 467.816C332.622 470.581 334.298 476.329 330.636 483.296C326.962 490.284 317.905 498.427 300.282 505.436L300.661 506.347L301.039 507.258C318.66 500.249 331.04 499.866 338.759 502.329C346.464 504.788 349.467 510.014 348.856 514.485C348.247 518.948 343.959 523.215 335.872 523.613C327.762 524.013 315.915 520.473 300.784 509.193L300.161 509.975L299.538 510.758C314.67 522.038 321.231 532.222 322.901 539.916C324.567 547.588 321.398 552.693 317.094 554.405C312.782 556.121 306.793 554.646 302.37 548.065C297.938 541.47 295.16 529.787 297.662 511.503C297.662 511.503 297.662 511.503 297.662 511.503Z" fill="#F19983" stroke="black" stroke-width="2"/>
<path d="M90.9999 43.1441L91.866 44.6448L92.7321 43.1441L115.412 3.84787L114.641 48.7609L114.611 50.5273L116.141 49.6442L156.139 26.5575L132.195 65.0032L131.225 66.5609L133.06 66.5317L179.618 65.7917L138.944 87.5376L137.295 88.4191L138.944 89.3012L179.618 111.064L133.06 110.307L131.225 110.277L132.195 111.836L156.141 150.301L116.141 127.213L114.611 126.33L114.641 128.096L115.412 173.008L92.7322 133.695L91.866 132.194L90.9998 133.695L68.3205 173.008L69.091 128.096L69.1213 126.33L67.5914 127.213L27.5738 150.301L51.5368 111.836L52.5077 110.277L50.6717 110.307L4.11389 111.064L44.7881 89.3012L46.4366 88.4191L44.7878 87.5376L4.11391 65.7917L50.6721 66.5317L52.5077 66.5609L51.5366 65.0029L27.5752 26.5575L67.5914 49.6443L69.1213 50.5269L69.091 48.7609L68.3205 3.84787L90.9999 43.1441Z" fill="#C0E0C7" stroke="black" stroke-width="2"/>
<path d="M1593.37 144L1600.94 174.605C1602.42 180.577 1603.15 183.563 1604.69 185.993C1606.05 188.142 1607.86 189.967 1609.99 191.342C1612.39 192.897 1615.35 193.644 1621.26 195.137L1651.55 202.788L1621.26 210.439C1615.35 211.932 1612.39 212.678 1609.99 214.233C1607.86 215.608 1606.05 217.434 1604.69 219.583C1603.15 222.013 1602.42 224.999 1600.94 230.971L1593.37 261.575L1585.79 230.971C1584.32 224.999 1583.58 222.013 1582.04 219.583C1580.68 217.434 1578.87 215.608 1576.74 214.233C1574.34 212.678 1571.38 211.932 1565.47 210.439L1535.18 202.788L1565.47 195.137C1571.38 193.644 1574.34 192.897 1576.74 191.342C1578.87 189.967 1580.68 188.142 1582.04 185.993C1583.58 183.563 1584.32 180.577 1585.79 174.605L1593.37 144Z" fill="#F6D9B0"/>
<path d="M1593.37 144L1600.94 174.605C1602.42 180.577 1603.15 183.563 1604.69 185.993C1606.05 188.142 1607.86 189.967 1609.99 191.342C1612.39 192.897 1615.35 193.644 1621.26 195.137L1651.55 202.788L1621.26 210.439C1615.35 211.932 1612.39 212.678 1609.99 214.233C1607.86 215.608 1606.05 217.434 1604.69 219.583C1603.15 222.013 1602.42 224.999 1600.94 230.971L1593.37 261.575L1585.79 230.971C1584.32 224.999 1583.58 222.013 1582.04 219.583C1580.68 217.434 1578.87 215.608 1576.74 214.233C1574.34 212.678 1571.38 211.932 1565.47 210.439L1535.18 202.788L1565.47 195.137C1571.38 193.644 1574.34 192.897 1576.74 191.342C1578.87 189.967 1580.68 188.142 1582.04 185.993C1583.58 183.563 1584.32 180.577 1585.79 174.605L1593.37 144Z" fill="#F6D9B0"/>
<path d="M1593.37 144L1585.79 174.605C1584.32 180.577 1583.58 183.563 1582.04 185.993C1580.68 188.142 1578.87 189.967 1576.74 191.342C1574.34 192.897 1571.38 193.644 1565.47 195.137L1535.18 202.788L1565.47 210.439C1571.38 211.932 1574.34 212.678 1576.74 214.233C1578.87 215.608 1580.68 217.434 1582.04 219.583C1583.58 222.013 1584.32 224.999 1585.79 230.971L1593.37 261.575L1600.94 230.971C1602.42 224.999 1603.15 222.013 1604.69 219.583C1606.05 217.434 1607.86 215.608 1609.99 214.233C1612.39 212.678 1615.35 211.932 1621.26 210.439L1651.55 202.788L1621.26 195.137C1615.35 193.644 1612.39 192.897 1609.99 191.342C1607.86 189.967 1606.05 188.142 1604.69 185.993C1603.15 183.563 1602.42 180.577 1600.94 174.605L1593.37 144Z" stroke="black" stroke-width="2" stroke-linecap="round" stroke-linejoin="round"/>
</svg>
