<svg xmlns="http://www.w3.org/2000/svg" viewBox="0 0 224.58 224.58"><defs><style>.cls-1{fill:#d26174;}.cls-2{fill:#efc6cd;stroke:#000;stroke-miterlimit:10;stroke-width:2px;}</style></defs><g id="Layer_2" data-name="Layer 2"><g id="Layer_1-2" data-name="Layer 1"><path class="cls-1" d="M68.84,99l1-.37-.47-1L43.82,44.12,97.44,69.49l1,.47.37-1L118.56,13l20,55.84.38,1,1-.47,53.5-25.57L168.1,97.45l-.48,1,1,.37,55.91,19.74-55.83,20-1,.38.47,1,25.56,53.52-53.6-25.36-1-.47-.37,1L119,224.58,99,168.73l-.37-1-1,.47L44.12,193.74l25.37-53.62.47-1-1-.37L13,119Z"/><path class="cls-2" d="M58.84,89l1-.37-.47-1L33.82,34.12,87.44,59.49l1,.47.37-1.05L108.56,3l20,55.84.38,1,1-.47,53.5-25.57L158.1,87.45l-.48,1,1,.37,55.91,19.74-55.83,20-1,.38.47,1,25.56,53.52-53.6-25.36-1-.47-.37,1L109,214.58,89,158.73l-.37-1-1,.47L34.12,183.74l25.37-53.62.47-1-1.05-.37L3,109Z"/></g></g></svg>