<svg width="590" height="494" viewBox="0 0 590 494" fill="none" xmlns="http://www.w3.org/2000/svg">
<g filter="url(#filter0_d_1025_175)">
<rect width="170" height="180" rx="30" fill="#FBF3F1"/>
<rect x="1" y="1" width="168" height="178" rx="29" stroke="black" stroke-width="2"/>
</g>
<g filter="url(#filter1_d_1025_175)">
<path d="M85 25L90.0758 45.8319C91.0663 49.8968 91.5615 51.9293 92.593 53.5832C93.5053 55.0461 94.7162 56.2885 96.142 57.2246C97.7539 58.2829 99.7348 58.791 103.697 59.8072L124 65.0152L103.697 70.2232C99.7348 71.2394 97.7539 71.7475 96.142 72.8058C94.7162 73.7419 93.5053 74.9843 92.593 76.4472C91.5615 78.101 91.0663 80.1335 90.0758 84.1985L85 105.03L79.9242 84.1985C78.9337 80.1335 78.4385 78.101 77.407 76.4472C76.4947 74.9843 75.2838 73.7419 73.858 72.8058C72.2461 71.7475 70.2652 71.2394 66.3034 70.2232L46 65.0152L66.3034 59.8072C70.2652 58.791 72.2461 58.2829 73.858 57.2246C75.2838 56.2885 76.4947 55.0461 77.407 53.5832C78.4385 51.9293 78.9337 49.8968 79.9242 45.8319L85 25Z" fill="#F6D9B0"/>
<path d="M85 25L90.0758 45.8319C91.0663 49.8968 91.5615 51.9293 92.593 53.5832C93.5053 55.0461 94.7162 56.2885 96.142 57.2246C97.7539 58.2829 99.7348 58.791 103.697 59.8072L124 65.0152L103.697 70.2232C99.7348 71.2394 97.7539 71.7475 96.142 72.8058C94.7162 73.7419 93.5053 74.9843 92.593 76.4472C91.5615 78.101 91.0663 80.1335 90.0758 84.1985L85 105.03L79.9242 84.1985C78.9337 80.1335 78.4385 78.101 77.407 76.4472C76.4947 74.9843 75.2838 73.7419 73.858 72.8058C72.2461 71.7475 70.2652 71.2394 66.3034 70.2232L46 65.0152L66.3034 59.8072C70.2652 58.791 72.2461 58.2829 73.858 57.2246C75.2838 56.2885 76.4947 55.0461 77.407 53.5832C78.4385 51.9293 78.9337 49.8968 79.9242 45.8319L85 25Z" fill="#F6D9B0"/>
<path d="M85 25L90.0758 45.8319C91.0663 49.8968 91.5615 51.9293 92.593 53.5832C93.5053 55.0461 94.7162 56.2885 96.142 57.2246C97.7539 58.2829 99.7348 58.791 103.697 59.8072L124 65.0152L103.697 70.2232C99.7348 71.2394 97.7539 71.7475 96.142 72.8058C94.7162 73.7419 93.5053 74.9843 92.593 76.4472C91.5615 78.101 91.0663 80.1335 90.0758 84.1985L85 105.03L79.9242 84.1985C78.9337 80.1335 78.4385 78.101 77.407 76.4472C76.4947 74.9843 75.2838 73.7419 73.858 72.8058C72.2461 71.7475 70.2652 71.2394 66.3034 70.2232L46 65.0152L66.3034 59.8072C70.2652 58.791 72.2461 58.2829 73.858 57.2246C75.2838 56.2885 76.4947 55.0461 77.407 53.5832C78.4385 51.9293 78.9337 49.8968 79.9242 45.8319L85 25Z" stroke="black" stroke-width="2" stroke-linecap="round" stroke-linejoin="round"/>
<path d="M85 25L90.0758 45.8319C91.0663 49.8968 91.5615 51.9293 92.593 53.5832C93.5053 55.0461 94.7162 56.2885 96.142 57.2246C97.7539 58.2829 99.7348 58.791 103.697 59.8072L124 65.0152L103.697 70.2232C99.7348 71.2394 97.7539 71.7475 96.142 72.8058C94.7162 73.7419 93.5053 74.9843 92.593 76.4472C91.5615 78.101 91.0663 80.1335 90.0758 84.1985L85 105.03L79.9242 84.1985C78.9337 80.1335 78.4385 78.101 77.407 76.4472C76.4947 74.9843 75.2838 73.7419 73.858 72.8058C72.2461 71.7475 70.2652 71.2394 66.3034 70.2232L46 65.0152L66.3034 59.8072C70.2652 58.791 72.2461 58.2829 73.858 57.2246C75.2838 56.2885 76.4947 55.0461 77.407 53.5832C78.4385 51.9293 78.9337 49.8968 79.9242 45.8319L85 25Z" stroke="black" stroke-width="2" stroke-linecap="round" stroke-linejoin="round"/>
</g>
<path d="M66.5141 153.426C66.8954 153.426 67.2107 153.551 67.4601 153.8C67.7241 154.035 67.8561 154.343 67.8561 154.724C67.8561 155.091 67.7241 155.399 67.4601 155.648C67.2107 155.883 66.8954 156 66.5141 156H59.3641C58.9827 156 58.6601 155.875 58.3961 155.626C58.1467 155.362 58.0221 155.039 58.0221 154.658V141.942C58.0221 141.561 58.1541 141.245 58.4181 140.996C58.6821 140.732 59.0194 140.6 59.4301 140.6C59.7821 140.6 60.0901 140.732 60.3541 140.996C60.6327 141.245 60.7721 141.561 60.7721 141.942V153.8L60.2881 153.426H66.5141ZM81.5736 150.126C81.5736 151.329 81.3023 152.392 80.7596 153.316C80.2316 154.225 79.5129 154.937 78.6036 155.45C77.7089 155.963 76.7043 156.22 75.5896 156.22C74.4749 156.22 73.4629 155.963 72.5536 155.45C71.6589 154.937 70.9403 154.225 70.3976 153.316C69.8696 152.392 69.6056 151.329 69.6056 150.126C69.6056 148.923 69.8696 147.867 70.3976 146.958C70.9403 146.034 71.6589 145.315 72.5536 144.802C73.4629 144.274 74.4749 144.01 75.5896 144.01C76.7043 144.01 77.7089 144.274 78.6036 144.802C79.5129 145.315 80.2316 146.034 80.7596 146.958C81.3023 147.867 81.5736 148.923 81.5736 150.126ZM78.9336 150.126C78.9336 149.378 78.7796 148.733 78.4716 148.19C78.1783 147.633 77.7749 147.2 77.2616 146.892C76.7629 146.584 76.2056 146.43 75.5896 146.43C74.9736 146.43 74.4089 146.584 73.8956 146.892C73.3969 147.2 72.9936 147.633 72.6856 148.19C72.3923 148.733 72.2456 149.378 72.2456 150.126C72.2456 150.859 72.3923 151.505 72.6856 152.062C72.9936 152.605 73.3969 153.03 73.8956 153.338C74.4089 153.646 74.9736 153.8 75.5896 153.8C76.2056 153.8 76.7629 153.646 77.2616 153.338C77.7749 153.03 78.1783 152.605 78.4716 152.062C78.7796 151.505 78.9336 150.859 78.9336 150.126ZM89.1201 144.01C89.9561 144.01 90.6821 144.098 91.2981 144.274C91.9288 144.45 92.4128 144.699 92.7501 145.022C93.1021 145.33 93.2781 145.704 93.2781 146.144C93.2781 146.437 93.1901 146.716 93.0141 146.98C92.8381 147.229 92.5814 147.354 92.2441 147.354C92.0094 147.354 91.8114 147.325 91.6501 147.266C91.5034 147.193 91.3714 147.105 91.2541 147.002C91.1368 146.899 90.9974 146.804 90.8361 146.716C90.6894 146.628 90.4621 146.562 90.1541 146.518C89.8608 146.459 89.6408 146.43 89.4941 146.43C88.7461 146.43 88.1081 146.591 87.5801 146.914C87.0668 147.237 86.6708 147.677 86.3921 148.234C86.1134 148.777 85.9741 149.407 85.9741 150.126C85.9741 150.83 86.1134 151.461 86.3921 152.018C86.6854 152.561 87.0814 152.993 87.5801 153.316C88.0934 153.639 88.6801 153.8 89.3401 153.8C89.7068 153.8 90.0221 153.778 90.2861 153.734C90.5501 153.69 90.7701 153.624 90.9461 153.536C91.1514 153.419 91.3348 153.294 91.4961 153.162C91.6574 153.03 91.8994 152.964 92.2221 152.964C92.6034 152.964 92.8968 153.089 93.1021 153.338C93.3074 153.573 93.4101 153.866 93.4101 154.218C93.4101 154.585 93.2048 154.922 92.7941 155.23C92.3834 155.523 91.8408 155.765 91.1661 155.956C90.5061 156.132 89.7874 156.22 89.0101 156.22C87.8514 156.22 86.8468 155.956 85.9961 155.428C85.1454 154.885 84.4854 154.152 84.0161 153.228C83.5614 152.304 83.3341 151.27 83.3341 150.126C83.3341 148.923 83.5761 147.867 84.0601 146.958C84.5588 146.034 85.2408 145.315 86.1061 144.802C86.9861 144.274 87.9908 144.01 89.1201 144.01ZM104.95 144.01C105.331 144.01 105.646 144.135 105.896 144.384C106.145 144.633 106.27 144.956 106.27 145.352V154.658C106.27 155.039 106.145 155.362 105.896 155.626C105.646 155.875 105.331 156 104.95 156C104.568 156 104.253 155.875 104.004 155.626C103.754 155.362 103.63 155.039 103.63 154.658V153.58L104.114 153.778C104.114 153.969 104.011 154.203 103.806 154.482C103.6 154.746 103.322 155.01 102.97 155.274C102.618 155.538 102.2 155.765 101.716 155.956C101.246 156.132 100.733 156.22 100.176 156.22C99.1638 156.22 98.2471 155.963 97.4258 155.45C96.6045 154.922 95.9518 154.203 95.4678 153.294C94.9985 152.37 94.7638 151.314 94.7638 150.126C94.7638 148.923 94.9985 147.867 95.4678 146.958C95.9518 146.034 96.5971 145.315 97.4038 144.802C98.2105 144.274 99.1051 144.01 100.088 144.01C100.718 144.01 101.298 144.105 101.826 144.296C102.354 144.487 102.808 144.729 103.19 145.022C103.586 145.315 103.886 145.616 104.092 145.924C104.312 146.217 104.422 146.467 104.422 146.672L103.63 146.958V145.352C103.63 144.971 103.754 144.655 104.004 144.406C104.253 144.142 104.568 144.01 104.95 144.01ZM100.506 153.8C101.151 153.8 101.716 153.639 102.2 153.316C102.684 152.993 103.058 152.553 103.322 151.996C103.6 151.439 103.74 150.815 103.74 150.126C103.74 149.422 103.6 148.791 103.322 148.234C103.058 147.677 102.684 147.237 102.2 146.914C101.716 146.591 101.151 146.43 100.506 146.43C99.8751 146.43 99.3178 146.591 98.8338 146.914C98.3498 147.237 97.9685 147.677 97.6898 148.234C97.4258 148.791 97.2938 149.422 97.2938 150.126C97.2938 150.815 97.4258 151.439 97.6898 151.996C97.9685 152.553 98.3498 152.993 98.8338 153.316C99.3178 153.639 99.8751 153.8 100.506 153.8ZM111.988 154.658C111.988 155.039 111.856 155.362 111.592 155.626C111.343 155.875 111.028 156 110.646 156C110.28 156 109.972 155.875 109.722 155.626C109.473 155.362 109.348 155.039 109.348 154.658V141.062C109.348 140.681 109.473 140.365 109.722 140.116C109.986 139.852 110.309 139.72 110.69 139.72C111.072 139.72 111.38 139.852 111.614 140.116C111.864 140.365 111.988 140.681 111.988 141.062V154.658Z" fill="black"/>
<g filter="url(#filter2_d_1025_175)">
<rect x="315" y="33" width="170" height="180" rx="30" fill="#FBF3F1"/>
<rect x="316" y="34" width="168" height="178" rx="29" stroke="black" stroke-width="2"/>
</g>
<g filter="url(#filter3_d_1025_175)">
<mask id="path-7-inside-1_1025_175" fill="white">
<path d="M404.089 62.006L404.946 60.5374C405.498 59.5846 406.364 58.8363 407.407 58.4108C408.45 57.9854 409.611 57.9071 410.706 58.1884C411.801 58.4698 412.767 59.0946 413.451 59.9641C414.135 60.8335 414.499 61.898 414.484 62.9888V64.6834C414.471 65.5583 414.7 66.4209 415.148 67.182C415.597 67.9431 416.248 68.5751 417.035 69.0127C417.822 69.4504 418.716 69.6777 419.625 69.6713C420.534 69.6649 421.424 69.4249 422.204 68.9762L423.706 68.1063C424.679 67.5478 425.818 67.3178 426.943 67.4527C428.067 67.5876 429.112 68.0797 429.914 68.8511C430.715 69.6225 431.226 70.6291 431.366 71.7117C431.506 72.7943 431.267 73.8909 430.687 74.828L429.784 76.2741C429.317 77.0244 429.067 77.8814 429.06 78.7562C429.053 79.6309 429.289 80.4915 429.744 81.2487C430.199 82.006 430.856 82.6323 431.647 83.0626C432.438 83.493 433.334 83.7117 434.242 83.6962H435.99C437.124 83.6795 438.231 84.0277 439.137 84.6858C440.042 85.3438 440.693 86.2739 440.986 87.3287C441.28 88.3834 441.2 89.5023 440.758 90.5081C440.316 91.5138 439.538 92.3488 438.548 92.8806L437.011 93.7053C436.22 94.1321 435.561 94.7544 435.102 95.5079C434.644 96.2614 434.402 97.119 434.402 97.9924C434.402 98.8658 434.644 99.7234 435.102 100.477C435.561 101.23 436.22 101.853 437.011 102.28L438.548 103.104C439.538 103.636 440.316 104.471 440.758 105.477C441.2 106.483 441.28 107.602 440.986 108.656C440.693 109.711 440.042 110.641 439.137 111.299C438.231 111.957 437.124 112.305 435.99 112.289H434.242C433.334 112.273 432.438 112.492 431.647 112.922C430.856 113.353 430.199 113.979 429.744 114.736C429.289 115.493 429.053 116.354 429.06 117.229C429.067 118.103 429.317 118.96 429.784 119.711L430.687 121.168C431.296 122.105 431.558 123.213 431.43 124.312C431.303 125.41 430.794 126.435 429.985 127.22C429.177 128.005 428.117 128.504 426.977 128.636C425.837 128.767 424.685 128.525 423.706 127.946L422.204 127.076C421.424 126.628 420.534 126.388 419.625 126.381C418.716 126.375 417.822 126.602 417.035 127.04C416.248 127.478 415.597 128.11 415.148 128.871C414.7 129.632 414.471 130.494 414.484 131.369V133.053C414.502 134.144 414.14 135.211 413.457 136.082C412.773 136.953 411.807 137.58 410.712 137.863C409.616 138.146 408.454 138.069 407.41 137.643C406.365 137.218 405.498 136.469 404.946 135.515L404.089 134.035C403.646 133.273 403 132.639 402.217 132.197C401.435 131.756 400.544 131.523 399.637 131.523C398.73 131.523 397.839 131.756 397.056 132.197C396.274 132.639 395.628 133.273 395.184 134.035L394.328 135.515C393.776 136.469 392.908 137.218 391.864 137.643C390.819 138.069 389.657 138.146 388.562 137.863C387.466 137.58 386.5 136.953 385.817 136.082C385.134 135.211 384.772 134.144 384.789 133.053V131.369C384.803 130.494 384.574 129.632 384.125 128.871C383.677 128.11 383.025 127.478 382.239 127.04C381.452 126.602 380.557 126.375 379.649 126.381C378.74 126.388 377.849 126.628 377.069 127.076L375.567 127.946C374.589 128.554 373.424 128.821 372.267 128.702C371.109 128.584 370.029 128.087 369.205 127.294C368.382 126.501 367.866 125.461 367.743 124.346C367.619 123.232 367.897 122.11 368.528 121.168L369.431 119.711C369.898 118.96 370.148 118.103 370.155 117.229C370.162 116.354 369.926 115.493 369.471 114.736C369.016 113.979 368.359 113.353 367.568 112.922C366.777 112.492 365.881 112.273 364.973 112.289H363.225C362.091 112.305 360.984 111.957 360.078 111.299C359.173 110.641 358.522 109.711 358.229 108.656C357.935 107.602 358.015 106.483 358.457 105.477C358.899 104.471 359.677 103.636 360.667 103.104L362.204 102.28C362.995 101.853 363.654 101.23 364.113 100.477C364.571 99.7234 364.813 98.8658 364.813 97.9924C364.813 97.119 364.571 96.2614 364.113 95.5079C363.654 94.7544 362.995 94.1321 362.204 93.7053L360.667 92.8806C359.65 92.3504 358.851 91.5028 358.401 90.4772C357.951 89.4517 357.877 88.3092 358.191 87.2377C358.505 86.1662 359.189 85.2296 360.129 84.5818C361.07 83.9341 362.211 83.6137 363.366 83.6736H365.114C366.022 83.6891 366.918 83.4704 367.709 83.04C368.5 82.6097 369.157 81.9834 369.612 81.2262C370.067 80.469 370.303 79.6084 370.296 78.7336C370.289 77.8589 370.039 77.0018 369.572 76.2514L368.669 74.8055C368.068 73.8634 367.816 72.7535 367.953 71.656C368.09 70.5585 368.608 69.5377 369.423 68.7593C370.238 67.981 371.302 67.4908 372.443 67.3681C373.584 67.2455 374.735 67.4977 375.708 68.0838L377.21 68.9536C377.99 69.4023 378.881 69.6423 379.789 69.6487C380.698 69.6551 381.592 69.4277 382.379 68.9901C383.166 68.5525 383.818 67.9205 384.266 67.1594C384.714 66.3983 384.944 65.5357 384.93 64.6608V62.9662C384.915 61.8754 385.279 60.811 385.963 59.9415C386.648 59.0721 387.614 58.4472 388.708 58.1658C389.803 57.8845 390.964 57.9628 392.007 58.3882C393.051 58.8136 393.917 59.562 394.469 60.5148L395.325 61.9834C395.774 62.7175 396.413 63.3265 397.18 63.7504C397.947 64.1743 398.816 64.3983 399.701 64.4006C400.585 64.4029 401.455 64.1833 402.225 63.7634C402.994 63.3435 403.637 62.7378 404.089 62.006Z"/>
</mask>
<path d="M404.089 62.006L404.946 60.5374C405.498 59.5846 406.364 58.8363 407.407 58.4108C408.45 57.9854 409.611 57.9071 410.706 58.1884C411.801 58.4698 412.767 59.0946 413.451 59.9641C414.135 60.8335 414.499 61.898 414.484 62.9888V64.6834C414.471 65.5583 414.7 66.4209 415.148 67.182C415.597 67.9431 416.248 68.5751 417.035 69.0127C417.822 69.4504 418.716 69.6777 419.625 69.6713C420.534 69.6649 421.424 69.4249 422.204 68.9762L423.706 68.1063C424.679 67.5478 425.818 67.3178 426.943 67.4527C428.067 67.5876 429.112 68.0797 429.914 68.8511C430.715 69.6225 431.226 70.6291 431.366 71.7117C431.506 72.7943 431.267 73.8909 430.687 74.828L429.784 76.2741C429.317 77.0244 429.067 77.8814 429.06 78.7562C429.053 79.6309 429.289 80.4915 429.744 81.2487C430.199 82.006 430.856 82.6323 431.647 83.0626C432.438 83.493 433.334 83.7117 434.242 83.6962H435.99C437.124 83.6795 438.231 84.0277 439.137 84.6858C440.042 85.3438 440.693 86.2739 440.986 87.3287C441.28 88.3834 441.2 89.5023 440.758 90.5081C440.316 91.5138 439.538 92.3488 438.548 92.8806L437.011 93.7053C436.22 94.1321 435.561 94.7544 435.102 95.5079C434.644 96.2614 434.402 97.119 434.402 97.9924C434.402 98.8658 434.644 99.7234 435.102 100.477C435.561 101.23 436.22 101.853 437.011 102.28L438.548 103.104C439.538 103.636 440.316 104.471 440.758 105.477C441.2 106.483 441.28 107.602 440.986 108.656C440.693 109.711 440.042 110.641 439.137 111.299C438.231 111.957 437.124 112.305 435.99 112.289H434.242C433.334 112.273 432.438 112.492 431.647 112.922C430.856 113.353 430.199 113.979 429.744 114.736C429.289 115.493 429.053 116.354 429.06 117.229C429.067 118.103 429.317 118.96 429.784 119.711L430.687 121.168C431.296 122.105 431.558 123.213 431.43 124.312C431.303 125.41 430.794 126.435 429.985 127.22C429.177 128.005 428.117 128.504 426.977 128.636C425.837 128.767 424.685 128.525 423.706 127.946L422.204 127.076C421.424 126.628 420.534 126.388 419.625 126.381C418.716 126.375 417.822 126.602 417.035 127.04C416.248 127.478 415.597 128.11 415.148 128.871C414.7 129.632 414.471 130.494 414.484 131.369V133.053C414.502 134.144 414.14 135.211 413.457 136.082C412.773 136.953 411.807 137.58 410.712 137.863C409.616 138.146 408.454 138.069 407.41 137.643C406.365 137.218 405.498 136.469 404.946 135.515L404.089 134.035C403.646 133.273 403 132.639 402.217 132.197C401.435 131.756 400.544 131.523 399.637 131.523C398.73 131.523 397.839 131.756 397.056 132.197C396.274 132.639 395.628 133.273 395.184 134.035L394.328 135.515C393.776 136.469 392.908 137.218 391.864 137.643C390.819 138.069 389.657 138.146 388.562 137.863C387.466 137.58 386.5 136.953 385.817 136.082C385.134 135.211 384.772 134.144 384.789 133.053V131.369C384.803 130.494 384.574 129.632 384.125 128.871C383.677 128.11 383.025 127.478 382.239 127.04C381.452 126.602 380.557 126.375 379.649 126.381C378.74 126.388 377.849 126.628 377.069 127.076L375.567 127.946C374.589 128.554 373.424 128.821 372.267 128.702C371.109 128.584 370.029 128.087 369.205 127.294C368.382 126.501 367.866 125.461 367.743 124.346C367.619 123.232 367.897 122.11 368.528 121.168L369.431 119.711C369.898 118.96 370.148 118.103 370.155 117.229C370.162 116.354 369.926 115.493 369.471 114.736C369.016 113.979 368.359 113.353 367.568 112.922C366.777 112.492 365.881 112.273 364.973 112.289H363.225C362.091 112.305 360.984 111.957 360.078 111.299C359.173 110.641 358.522 109.711 358.229 108.656C357.935 107.602 358.015 106.483 358.457 105.477C358.899 104.471 359.677 103.636 360.667 103.104L362.204 102.28C362.995 101.853 363.654 101.23 364.113 100.477C364.571 99.7234 364.813 98.8658 364.813 97.9924C364.813 97.119 364.571 96.2614 364.113 95.5079C363.654 94.7544 362.995 94.1321 362.204 93.7053L360.667 92.8806C359.65 92.3504 358.851 91.5028 358.401 90.4772C357.951 89.4517 357.877 88.3092 358.191 87.2377C358.505 86.1662 359.189 85.2296 360.129 84.5818C361.07 83.9341 362.211 83.6137 363.366 83.6736H365.114C366.022 83.6891 366.918 83.4704 367.709 83.04C368.5 82.6097 369.157 81.9834 369.612 81.2262C370.067 80.469 370.303 79.6084 370.296 78.7336C370.289 77.8589 370.039 77.0018 369.572 76.2514L368.669 74.8055C368.068 73.8634 367.816 72.7535 367.953 71.656C368.09 70.5585 368.608 69.5377 369.423 68.7593C370.238 67.981 371.302 67.4908 372.443 67.3681C373.584 67.2455 374.735 67.4977 375.708 68.0838L377.21 68.9536C377.99 69.4023 378.881 69.6423 379.789 69.6487C380.698 69.6551 381.592 69.4277 382.379 68.9901C383.166 68.5525 383.818 67.9205 384.266 67.1594C384.714 66.3983 384.944 65.5357 384.93 64.6608V62.9662C384.915 61.8754 385.279 60.811 385.963 59.9415C386.648 59.0721 387.614 58.4472 388.708 58.1658C389.803 57.8845 390.964 57.9628 392.007 58.3882C393.051 58.8136 393.917 59.562 394.469 60.5148L395.325 61.9834C395.774 62.7175 396.413 63.3265 397.18 63.7504C397.947 64.1743 398.816 64.3983 399.701 64.4006C400.585 64.4029 401.455 64.1833 402.225 63.7634C402.994 63.3435 403.637 62.7378 404.089 62.006Z" fill="#F6C3B8"/>
<path d="M404.089 62.006L404.946 60.5374C405.498 59.5846 406.364 58.8363 407.407 58.4108C408.45 57.9854 409.611 57.9071 410.706 58.1884C411.801 58.4698 412.767 59.0946 413.451 59.9641C414.135 60.8335 414.499 61.898 414.484 62.9888V64.6834C414.471 65.5583 414.7 66.4209 415.148 67.182C415.597 67.9431 416.248 68.5751 417.035 69.0127C417.822 69.4504 418.716 69.6777 419.625 69.6713C420.534 69.6649 421.424 69.4249 422.204 68.9762L423.706 68.1063C424.679 67.5478 425.818 67.3178 426.943 67.4527C428.067 67.5876 429.112 68.0797 429.914 68.8511C430.715 69.6225 431.226 70.6291 431.366 71.7117C431.506 72.7943 431.267 73.8909 430.687 74.828L429.784 76.2741C429.317 77.0244 429.067 77.8814 429.06 78.7562C429.053 79.6309 429.289 80.4915 429.744 81.2487C430.199 82.006 430.856 82.6323 431.647 83.0626C432.438 83.493 433.334 83.7117 434.242 83.6962H435.99C437.124 83.6795 438.231 84.0277 439.137 84.6858C440.042 85.3438 440.693 86.2739 440.986 87.3287C441.28 88.3834 441.2 89.5023 440.758 90.5081C440.316 91.5138 439.538 92.3488 438.548 92.8806L437.011 93.7053C436.22 94.1321 435.561 94.7544 435.102 95.5079C434.644 96.2614 434.402 97.119 434.402 97.9924C434.402 98.8658 434.644 99.7234 435.102 100.477C435.561 101.23 436.22 101.853 437.011 102.28L438.548 103.104C439.538 103.636 440.316 104.471 440.758 105.477C441.2 106.483 441.28 107.602 440.986 108.656C440.693 109.711 440.042 110.641 439.137 111.299C438.231 111.957 437.124 112.305 435.99 112.289H434.242C433.334 112.273 432.438 112.492 431.647 112.922C430.856 113.353 430.199 113.979 429.744 114.736C429.289 115.493 429.053 116.354 429.06 117.229C429.067 118.103 429.317 118.96 429.784 119.711L430.687 121.168C431.296 122.105 431.558 123.213 431.43 124.312C431.303 125.41 430.794 126.435 429.985 127.22C429.177 128.005 428.117 128.504 426.977 128.636C425.837 128.767 424.685 128.525 423.706 127.946L422.204 127.076C421.424 126.628 420.534 126.388 419.625 126.381C418.716 126.375 417.822 126.602 417.035 127.04C416.248 127.478 415.597 128.11 415.148 128.871C414.7 129.632 414.471 130.494 414.484 131.369V133.053C414.502 134.144 414.14 135.211 413.457 136.082C412.773 136.953 411.807 137.58 410.712 137.863C409.616 138.146 408.454 138.069 407.41 137.643C406.365 137.218 405.498 136.469 404.946 135.515L404.089 134.035C403.646 133.273 403 132.639 402.217 132.197C401.435 131.756 400.544 131.523 399.637 131.523C398.73 131.523 397.839 131.756 397.056 132.197C396.274 132.639 395.628 133.273 395.184 134.035L394.328 135.515C393.776 136.469 392.908 137.218 391.864 137.643C390.819 138.069 389.657 138.146 388.562 137.863C387.466 137.58 386.5 136.953 385.817 136.082C385.134 135.211 384.772 134.144 384.789 133.053V131.369C384.803 130.494 384.574 129.632 384.125 128.871C383.677 128.11 383.025 127.478 382.239 127.04C381.452 126.602 380.557 126.375 379.649 126.381C378.74 126.388 377.849 126.628 377.069 127.076L375.567 127.946C374.589 128.554 373.424 128.821 372.267 128.702C371.109 128.584 370.029 128.087 369.205 127.294C368.382 126.501 367.866 125.461 367.743 124.346C367.619 123.232 367.897 122.11 368.528 121.168L369.431 119.711C369.898 118.96 370.148 118.103 370.155 117.229C370.162 116.354 369.926 115.493 369.471 114.736C369.016 113.979 368.359 113.353 367.568 112.922C366.777 112.492 365.881 112.273 364.973 112.289H363.225C362.091 112.305 360.984 111.957 360.078 111.299C359.173 110.641 358.522 109.711 358.229 108.656C357.935 107.602 358.015 106.483 358.457 105.477C358.899 104.471 359.677 103.636 360.667 103.104L362.204 102.28C362.995 101.853 363.654 101.23 364.113 100.477C364.571 99.7234 364.813 98.8658 364.813 97.9924C364.813 97.119 364.571 96.2614 364.113 95.5079C363.654 94.7544 362.995 94.1321 362.204 93.7053L360.667 92.8806C359.65 92.3504 358.851 91.5028 358.401 90.4772C357.951 89.4517 357.877 88.3092 358.191 87.2377C358.505 86.1662 359.189 85.2296 360.129 84.5818C361.07 83.9341 362.211 83.6137 363.366 83.6736H365.114C366.022 83.6891 366.918 83.4704 367.709 83.04C368.5 82.6097 369.157 81.9834 369.612 81.2262C370.067 80.469 370.303 79.6084 370.296 78.7336C370.289 77.8589 370.039 77.0018 369.572 76.2514L368.669 74.8055C368.068 73.8634 367.816 72.7535 367.953 71.656C368.09 70.5585 368.608 69.5377 369.423 68.7593C370.238 67.981 371.302 67.4908 372.443 67.3681C373.584 67.2455 374.735 67.4977 375.708 68.0838L377.21 68.9536C377.99 69.4023 378.881 69.6423 379.789 69.6487C380.698 69.6551 381.592 69.4277 382.379 68.9901C383.166 68.5525 383.818 67.9205 384.266 67.1594C384.714 66.3983 384.944 65.5357 384.93 64.6608V62.9662C384.915 61.8754 385.279 60.811 385.963 59.9415C386.648 59.0721 387.614 58.4472 388.708 58.1658C389.803 57.8845 390.964 57.9628 392.007 58.3882C393.051 58.8136 393.917 59.562 394.469 60.5148L395.325 61.9834C395.774 62.7175 396.413 63.3265 397.18 63.7504C397.947 64.1743 398.816 64.3983 399.701 64.4006C400.585 64.4029 401.455 64.1833 402.225 63.7634C402.994 63.3435 403.637 62.7378 404.089 62.006Z" stroke="black" stroke-width="4" mask="url(#path-7-inside-1_1025_175)"/>
</g>
<path d="M384.107 189C383.696 189 383.359 188.875 383.095 188.626C382.831 188.362 382.699 188.039 382.699 187.658V174.898H385.559V187.658C385.559 188.039 385.42 188.362 385.141 188.626C384.877 188.875 384.532 189 384.107 189ZM379.245 176.13C378.864 176.13 378.541 176.013 378.277 175.778C378.028 175.543 377.903 175.235 377.903 174.854C377.903 174.473 378.028 174.172 378.277 173.952C378.541 173.717 378.864 173.6 379.245 173.6H389.013C389.394 173.6 389.71 173.717 389.959 173.952C390.223 174.187 390.355 174.495 390.355 174.876C390.355 175.257 390.223 175.565 389.959 175.8C389.71 176.02 389.394 176.13 389.013 176.13H379.245ZM394.931 187.658C394.931 188.039 394.806 188.362 394.557 188.626C394.307 188.875 393.992 189 393.611 189C393.229 189 392.914 188.875 392.665 188.626C392.415 188.362 392.291 188.039 392.291 187.658V178.572C392.291 178.191 392.415 177.875 392.665 177.626C392.914 177.362 393.229 177.23 393.611 177.23C393.992 177.23 394.307 177.362 394.557 177.626C394.806 177.875 394.931 178.191 394.931 178.572V187.658ZM393.589 175.8C393.09 175.8 392.738 175.719 392.533 175.558C392.327 175.397 392.225 175.111 392.225 174.7V174.282C392.225 173.857 392.335 173.571 392.555 173.424C392.789 173.263 393.141 173.182 393.611 173.182C394.124 173.182 394.483 173.263 394.689 173.424C394.894 173.585 394.997 173.871 394.997 174.282V174.7C394.997 175.125 394.887 175.419 394.667 175.58C394.447 175.727 394.087 175.8 393.589 175.8ZM403.738 177.01C404.765 177.01 405.681 177.274 406.488 177.802C407.309 178.315 407.955 179.027 408.424 179.936C408.908 180.845 409.15 181.901 409.15 183.104C409.15 184.307 408.908 185.37 408.424 186.294C407.955 187.203 407.317 187.922 406.51 188.45C405.718 188.963 404.823 189.22 403.826 189.22C403.239 189.22 402.689 189.125 402.176 188.934C401.663 188.743 401.208 188.501 400.812 188.208C400.431 187.915 400.13 187.621 399.91 187.328C399.705 187.02 399.602 186.763 399.602 186.558L400.284 186.272V192.058C400.284 192.439 400.159 192.755 399.91 193.004C399.661 193.268 399.345 193.4 398.964 193.4C398.583 193.4 398.267 193.275 398.018 193.026C397.769 192.777 397.644 192.454 397.644 192.058V178.572C397.644 178.191 397.769 177.875 398.018 177.626C398.267 177.362 398.583 177.23 398.964 177.23C399.345 177.23 399.661 177.362 399.91 177.626C400.159 177.875 400.284 178.191 400.284 178.572V179.65L399.91 179.452C399.91 179.261 400.013 179.034 400.218 178.77C400.423 178.491 400.702 178.22 401.054 177.956C401.406 177.677 401.809 177.45 402.264 177.274C402.733 177.098 403.225 177.01 403.738 177.01ZM403.408 179.43C402.763 179.43 402.198 179.591 401.714 179.914C401.23 180.237 400.849 180.677 400.57 181.234C400.306 181.777 400.174 182.4 400.174 183.104C400.174 183.793 400.306 184.424 400.57 184.996C400.849 185.553 401.23 185.993 401.714 186.316C402.198 186.639 402.763 186.8 403.408 186.8C404.053 186.8 404.611 186.639 405.08 186.316C405.564 185.993 405.938 185.553 406.202 184.996C406.481 184.424 406.62 183.793 406.62 183.104C406.62 182.4 406.481 181.777 406.202 181.234C405.938 180.677 405.564 180.237 405.08 179.914C404.611 179.591 404.053 179.43 403.408 179.43ZM422.876 183.126C422.876 184.329 422.605 185.392 422.062 186.316C421.534 187.225 420.816 187.937 419.906 188.45C419.012 188.963 418.007 189.22 416.892 189.22C415.778 189.22 414.766 188.963 413.856 188.45C412.962 187.937 412.243 187.225 411.7 186.316C411.172 185.392 410.908 184.329 410.908 183.126C410.908 181.923 411.172 180.867 411.7 179.958C412.243 179.034 412.962 178.315 413.856 177.802C414.766 177.274 415.778 177.01 416.892 177.01C418.007 177.01 419.012 177.274 419.906 177.802C420.816 178.315 421.534 179.034 422.062 179.958C422.605 180.867 422.876 181.923 422.876 183.126ZM420.236 183.126C420.236 182.378 420.082 181.733 419.774 181.19C419.481 180.633 419.078 180.2 418.564 179.892C418.066 179.584 417.508 179.43 416.892 179.43C416.276 179.43 415.712 179.584 415.198 179.892C414.7 180.2 414.296 180.633 413.988 181.19C413.695 181.733 413.548 182.378 413.548 183.126C413.548 183.859 413.695 184.505 413.988 185.062C414.296 185.605 414.7 186.03 415.198 186.338C415.712 186.646 416.276 186.8 416.892 186.8C417.508 186.8 418.066 186.646 418.564 186.338C419.078 186.03 419.481 185.605 419.774 185.062C420.082 184.505 420.236 183.859 420.236 183.126Z" fill="black"/>
<g filter="url(#filter4_d_1025_175)">
<rect x="95" y="271" width="170" height="180" rx="30" fill="#FBF3F1"/>
<rect x="96" y="272" width="168" height="178" rx="29" stroke="black" stroke-width="2"/>
</g>
<g filter="url(#filter5_d_1025_175)">
<path d="M181.914 334.489C211.424 384.544 149.476 384.544 178.986 334.489C149.476 384.544 118.49 332.009 177.534 332.009C118.49 332.009 149.476 279.475 178.986 329.541C149.476 279.486 211.424 279.486 181.914 329.541C211.424 279.486 242.41 332.009 183.366 332.009C242.41 332.009 211.424 384.555 181.914 334.489Z" fill="#C0E0C7"/>
<path d="M181.052 334.997L181.914 334.489L182.775 333.982C182.775 333.982 182.775 333.982 182.775 333.982L181.052 334.997ZM181.052 334.997C181.052 334.997 181.052 334.997 181.052 334.997M181.052 334.997L181.052 334.997M181.052 334.997C188.367 347.404 189.907 356.535 188.774 362.457C187.647 368.352 183.922 371.03 180.45 371.03C176.978 371.03 173.253 368.352 172.126 362.457C170.993 356.535 172.533 347.404 179.848 334.997L178.986 334.489M181.052 334.997L178.986 334.489M178.125 333.982C170.812 346.386 163.502 352.267 157.681 354.273C151.871 356.276 147.637 354.435 145.914 351.512C145.039 350.03 144.747 348.19 145.235 346.234C145.724 344.275 147.008 342.162 149.345 340.202C154.029 336.271 162.892 333.009 177.534 333.009V332.009V331.009C162.892 331.009 154.029 327.748 149.345 323.817C147.008 321.857 145.724 319.744 145.235 317.785C144.747 315.83 145.039 313.991 145.913 312.508C147.637 309.586 151.87 307.746 157.68 309.75C163.501 311.758 170.811 317.641 178.124 330.048L178.125 333.982ZM178.125 333.982L178.986 334.489M178.125 333.982L178.986 334.489M178.986 329.541L178.125 330.049C178.125 330.049 178.125 330.049 178.125 330.049L178.986 329.541ZM178.986 329.541L179.848 329.033C179.848 329.033 179.848 329.033 179.848 329.033M178.986 329.541L179.848 329.033M179.848 329.033C172.533 316.626 170.993 307.495 172.126 301.573C173.253 295.679 176.978 293 180.45 293C183.922 293 187.647 295.679 188.774 301.573C189.907 307.495 188.367 316.626 181.052 329.033L181.914 329.541M179.848 329.033L181.914 329.541M181.914 329.541L182.775 330.049C190.088 317.645 197.398 311.763 203.22 309.755C209.03 307.751 213.263 309.591 214.987 312.513C215.861 313.995 216.153 315.833 215.665 317.788C215.176 319.747 213.892 321.859 211.556 323.819C206.871 327.749 198.008 331.009 183.366 331.009V332.009V333.009C198.008 333.009 206.871 336.271 211.555 340.203C213.892 342.164 215.175 344.278 215.665 346.237C216.153 348.194 215.861 350.033 214.986 351.516C213.263 354.44 209.029 356.281 203.22 354.278C197.399 352.271 190.089 346.389 182.776 333.983L181.914 329.541Z" stroke="black" stroke-width="2"/>
</g>
<path d="M136.436 410.6C137.492 410.6 138.43 410.798 139.252 411.194C140.073 411.59 140.762 412.147 141.32 412.866C141.892 413.57 142.317 414.391 142.596 415.33C142.889 416.254 143.036 417.244 143.036 418.3C143.036 419.723 142.779 421.021 142.266 422.194C141.752 423.353 141.004 424.277 140.022 424.966C139.054 425.655 137.858 426 136.436 426H131.178C130.796 426 130.474 425.875 130.21 425.626C129.96 425.362 129.836 425.039 129.836 424.658V411.942C129.836 411.561 129.96 411.245 130.21 410.996C130.474 410.732 130.796 410.6 131.178 410.6H136.436ZM136.216 423.47C137.14 423.47 137.895 423.235 138.482 422.766C139.068 422.282 139.494 421.651 139.758 420.874C140.036 420.082 140.176 419.224 140.176 418.3C140.176 417.611 140.095 416.958 139.934 416.342C139.787 415.711 139.552 415.161 139.23 414.692C138.907 414.208 138.496 413.827 137.998 413.548C137.499 413.269 136.905 413.13 136.216 413.13H132.366L132.586 412.932V423.712L132.454 423.47H136.216ZM151.058 426.22C149.811 426.22 148.726 425.963 147.802 425.45C146.893 424.922 146.189 424.211 145.69 423.316C145.206 422.421 144.964 421.409 144.964 420.28C144.964 418.96 145.228 417.838 145.756 416.914C146.299 415.975 147.003 415.257 147.868 414.758C148.733 414.259 149.65 414.01 150.618 414.01C151.366 414.01 152.07 414.164 152.73 414.472C153.405 414.78 153.999 415.205 154.512 415.748C155.025 416.276 155.429 416.892 155.722 417.596C156.03 418.3 156.184 419.048 156.184 419.84C156.169 420.192 156.03 420.478 155.766 420.698C155.502 420.918 155.194 421.028 154.842 421.028H146.438L145.778 418.828H153.852L153.368 419.268V418.674C153.339 418.249 153.185 417.867 152.906 417.53C152.642 417.193 152.305 416.929 151.894 416.738C151.498 416.533 151.073 416.43 150.618 416.43C150.178 416.43 149.767 416.489 149.386 416.606C149.005 416.723 148.675 416.921 148.396 417.2C148.117 417.479 147.897 417.853 147.736 418.322C147.575 418.791 147.494 419.385 147.494 420.104C147.494 420.896 147.655 421.571 147.978 422.128C148.315 422.671 148.741 423.089 149.254 423.382C149.782 423.661 150.339 423.8 150.926 423.8C151.469 423.8 151.901 423.756 152.224 423.668C152.547 423.58 152.803 423.477 152.994 423.36C153.199 423.228 153.383 423.118 153.544 423.03C153.808 422.898 154.057 422.832 154.292 422.832C154.615 422.832 154.879 422.942 155.084 423.162C155.304 423.382 155.414 423.639 155.414 423.932C155.414 424.328 155.209 424.687 154.798 425.01C154.417 425.333 153.881 425.619 153.192 425.868C152.503 426.103 151.791 426.22 151.058 426.22ZM157.809 424.174C157.662 423.969 157.596 423.705 157.611 423.382C157.625 423.059 157.816 422.781 158.183 422.546C158.417 422.399 158.667 422.341 158.931 422.37C159.195 422.385 159.451 422.517 159.701 422.766C160.126 423.191 160.573 423.521 161.043 423.756C161.512 423.991 162.099 424.108 162.803 424.108C163.023 424.093 163.265 424.064 163.529 424.02C163.793 423.961 164.02 423.844 164.211 423.668C164.416 423.477 164.519 423.191 164.519 422.81C164.519 422.487 164.409 422.231 164.189 422.04C163.969 421.849 163.675 421.688 163.309 421.556C162.957 421.424 162.561 421.299 162.121 421.182C161.666 421.05 161.197 420.903 160.713 420.742C160.243 420.581 159.811 420.375 159.415 420.126C159.019 419.862 158.696 419.517 158.447 419.092C158.197 418.667 158.073 418.131 158.073 417.486C158.073 416.753 158.278 416.129 158.689 415.616C159.099 415.103 159.627 414.707 160.273 414.428C160.933 414.149 161.622 414.01 162.341 414.01C162.795 414.01 163.272 414.069 163.771 414.186C164.269 414.289 164.746 414.465 165.201 414.714C165.655 414.949 166.037 415.264 166.345 415.66C166.506 415.88 166.601 416.144 166.631 416.452C166.66 416.76 166.521 417.039 166.213 417.288C165.993 417.464 165.736 417.545 165.443 417.53C165.149 417.501 164.907 417.398 164.717 417.222C164.467 416.899 164.13 416.643 163.705 416.452C163.294 416.261 162.817 416.166 162.275 416.166C162.055 416.166 161.813 416.195 161.549 416.254C161.299 416.298 161.079 416.408 160.889 416.584C160.698 416.745 160.603 417.009 160.603 417.376C160.603 417.713 160.713 417.985 160.933 418.19C161.153 418.381 161.446 418.542 161.813 418.674C162.194 418.791 162.597 418.909 163.023 419.026C163.463 419.143 163.91 419.283 164.365 419.444C164.819 419.605 165.237 419.818 165.619 420.082C166 420.346 166.308 420.691 166.543 421.116C166.777 421.527 166.895 422.055 166.895 422.7C166.895 423.448 166.675 424.086 166.235 424.614C165.795 425.142 165.245 425.545 164.585 425.824C163.925 426.088 163.25 426.22 162.561 426.22C161.695 426.22 160.83 426.073 159.965 425.78C159.099 425.472 158.381 424.937 157.809 424.174ZM174.34 414.01C175.176 414.01 175.902 414.098 176.518 414.274C177.148 414.45 177.632 414.699 177.97 415.022C178.322 415.33 178.498 415.704 178.498 416.144C178.498 416.437 178.41 416.716 178.234 416.98C178.058 417.229 177.801 417.354 177.464 417.354C177.229 417.354 177.031 417.325 176.87 417.266C176.723 417.193 176.591 417.105 176.474 417.002C176.356 416.899 176.217 416.804 176.056 416.716C175.909 416.628 175.682 416.562 175.374 416.518C175.08 416.459 174.86 416.43 174.714 416.43C173.966 416.43 173.328 416.591 172.8 416.914C172.286 417.237 171.89 417.677 171.612 418.234C171.333 418.777 171.194 419.407 171.194 420.126C171.194 420.83 171.333 421.461 171.612 422.018C171.905 422.561 172.301 422.993 172.8 423.316C173.313 423.639 173.9 423.8 174.56 423.8C174.926 423.8 175.242 423.778 175.506 423.734C175.77 423.69 175.99 423.624 176.166 423.536C176.371 423.419 176.554 423.294 176.716 423.162C176.877 423.03 177.119 422.964 177.442 422.964C177.823 422.964 178.116 423.089 178.322 423.338C178.527 423.573 178.63 423.866 178.63 424.218C178.63 424.585 178.424 424.922 178.014 425.23C177.603 425.523 177.06 425.765 176.386 425.956C175.726 426.132 175.007 426.22 174.23 426.22C173.071 426.22 172.066 425.956 171.216 425.428C170.365 424.885 169.705 424.152 169.236 423.228C168.781 422.304 168.554 421.27 168.554 420.126C168.554 418.923 168.796 417.867 169.28 416.958C169.778 416.034 170.46 415.315 171.326 414.802C172.206 414.274 173.21 414.01 174.34 414.01ZM181.854 426C181.472 426 181.157 425.875 180.908 425.626C180.658 425.362 180.534 425.039 180.534 424.658V415.572C180.534 415.191 180.658 414.875 180.908 414.626C181.157 414.362 181.472 414.23 181.854 414.23C182.235 414.23 182.55 414.362 182.8 414.626C183.049 414.875 183.174 415.191 183.174 415.572V417.64L183.02 416.166C183.181 415.814 183.386 415.506 183.636 415.242C183.9 414.963 184.193 414.736 184.516 414.56C184.838 414.369 185.183 414.23 185.55 414.142C185.916 414.054 186.283 414.01 186.65 414.01C187.09 414.01 187.456 414.135 187.75 414.384C188.058 414.633 188.212 414.927 188.212 415.264C188.212 415.748 188.087 416.1 187.838 416.32C187.588 416.525 187.317 416.628 187.024 416.628C186.745 416.628 186.488 416.577 186.254 416.474C186.034 416.371 185.777 416.32 185.484 416.32C185.22 416.32 184.948 416.386 184.67 416.518C184.406 416.635 184.156 416.826 183.922 417.09C183.702 417.354 183.518 417.684 183.372 418.08C183.24 418.461 183.174 418.916 183.174 419.444V424.658C183.174 425.039 183.049 425.362 182.8 425.626C182.55 425.875 182.235 426 181.854 426ZM192.559 424.658C192.559 425.039 192.434 425.362 192.185 425.626C191.935 425.875 191.62 426 191.239 426C190.857 426 190.542 425.875 190.293 425.626C190.043 425.362 189.919 425.039 189.919 424.658V415.572C189.919 415.191 190.043 414.875 190.293 414.626C190.542 414.362 190.857 414.23 191.239 414.23C191.62 414.23 191.935 414.362 192.185 414.626C192.434 414.875 192.559 415.191 192.559 415.572V424.658ZM191.217 412.8C190.718 412.8 190.366 412.719 190.161 412.558C189.955 412.397 189.853 412.111 189.853 411.7V411.282C189.853 410.857 189.963 410.571 190.183 410.424C190.417 410.263 190.769 410.182 191.239 410.182C191.752 410.182 192.111 410.263 192.317 410.424C192.522 410.585 192.625 410.871 192.625 411.282V411.7C192.625 412.125 192.515 412.419 192.295 412.58C192.075 412.727 191.715 412.8 191.217 412.8ZM200.508 414.01C201.344 414.01 202.07 414.098 202.686 414.274C203.316 414.45 203.8 414.699 204.138 415.022C204.49 415.33 204.666 415.704 204.666 416.144C204.666 416.437 204.578 416.716 204.402 416.98C204.226 417.229 203.969 417.354 203.632 417.354C203.397 417.354 203.199 417.325 203.038 417.266C202.891 417.193 202.759 417.105 202.642 417.002C202.524 416.899 202.385 416.804 202.224 416.716C202.077 416.628 201.85 416.562 201.542 416.518C201.248 416.459 201.028 416.43 200.882 416.43C200.134 416.43 199.496 416.591 198.968 416.914C198.454 417.237 198.058 417.677 197.78 418.234C197.501 418.777 197.362 419.407 197.362 420.126C197.362 420.83 197.501 421.461 197.78 422.018C198.073 422.561 198.469 422.993 198.968 423.316C199.481 423.639 200.068 423.8 200.728 423.8C201.094 423.8 201.41 423.778 201.674 423.734C201.938 423.69 202.158 423.624 202.334 423.536C202.539 423.419 202.722 423.294 202.884 423.162C203.045 423.03 203.287 422.964 203.61 422.964C203.991 422.964 204.284 423.089 204.49 423.338C204.695 423.573 204.798 423.866 204.798 424.218C204.798 424.585 204.592 424.922 204.182 425.23C203.771 425.523 203.228 425.765 202.554 425.956C201.894 426.132 201.175 426.22 200.398 426.22C199.239 426.22 198.234 425.956 197.384 425.428C196.533 424.885 195.873 424.152 195.404 423.228C194.949 422.304 194.722 421.27 194.722 420.126C194.722 418.923 194.964 417.867 195.448 416.958C195.946 416.034 196.628 415.315 197.494 414.802C198.374 414.274 199.378 414.01 200.508 414.01ZM199.276 429.322C199.129 429.322 198.938 429.278 198.704 429.19C198.484 429.117 198.286 428.999 198.11 428.838C197.934 428.691 197.846 428.515 197.846 428.31C197.846 428.09 197.934 427.87 198.11 427.65L199.826 425.34H201.388L200.178 428.618C200.002 429.087 199.701 429.322 199.276 429.322ZM216.337 414.01C216.719 414.01 217.034 414.135 217.283 414.384C217.533 414.633 217.657 414.956 217.657 415.352V424.658C217.657 425.039 217.533 425.362 217.283 425.626C217.034 425.875 216.719 426 216.337 426C215.956 426 215.641 425.875 215.391 425.626C215.142 425.362 215.017 425.039 215.017 424.658V423.58L215.501 423.778C215.501 423.969 215.399 424.203 215.193 424.482C214.988 424.746 214.709 425.01 214.357 425.274C214.005 425.538 213.587 425.765 213.103 425.956C212.634 426.132 212.121 426.22 211.563 426.22C210.551 426.22 209.635 425.963 208.813 425.45C207.992 424.922 207.339 424.203 206.855 423.294C206.386 422.37 206.151 421.314 206.151 420.126C206.151 418.923 206.386 417.867 206.855 416.958C207.339 416.034 207.985 415.315 208.791 414.802C209.598 414.274 210.493 414.01 211.475 414.01C212.106 414.01 212.685 414.105 213.213 414.296C213.741 414.487 214.196 414.729 214.577 415.022C214.973 415.315 215.274 415.616 215.479 415.924C215.699 416.217 215.809 416.467 215.809 416.672L215.017 416.958V415.352C215.017 414.971 215.142 414.655 215.391 414.406C215.641 414.142 215.956 414.01 216.337 414.01ZM211.893 423.8C212.539 423.8 213.103 423.639 213.587 423.316C214.071 422.993 214.445 422.553 214.709 421.996C214.988 421.439 215.127 420.815 215.127 420.126C215.127 419.422 214.988 418.791 214.709 418.234C214.445 417.677 214.071 417.237 213.587 416.914C213.103 416.591 212.539 416.43 211.893 416.43C211.263 416.43 210.705 416.591 210.221 416.914C209.737 417.237 209.356 417.677 209.077 418.234C208.813 418.791 208.681 419.422 208.681 420.126C208.681 420.815 208.813 421.439 209.077 421.996C209.356 422.553 209.737 422.993 210.221 423.316C210.705 423.639 211.263 423.8 211.893 423.8ZM209.077 413.02C208.755 413.02 208.469 412.888 208.219 412.624C207.985 412.36 207.867 411.993 207.867 411.524C207.867 411.055 208.087 410.615 208.527 410.204C208.967 409.793 209.649 409.588 210.573 409.588C210.955 409.588 211.299 409.661 211.607 409.808C211.915 409.955 212.194 410.123 212.443 410.314C212.707 410.49 212.949 410.651 213.169 410.798C213.404 410.945 213.617 411.018 213.807 411.018C213.969 411.018 214.093 410.981 214.181 410.908C214.269 410.82 214.291 410.703 214.247 410.556C214.145 410.219 214.181 409.955 214.357 409.764C214.533 409.573 214.753 409.478 215.017 409.478C215.355 409.478 215.641 409.61 215.875 409.874C216.11 410.123 216.227 410.475 216.227 410.93C216.227 411.179 216.147 411.458 215.985 411.766C215.824 412.074 215.56 412.345 215.193 412.58C214.827 412.8 214.335 412.91 213.719 412.91C213.411 412.91 213.096 412.837 212.773 412.69C212.465 412.543 212.157 412.382 211.849 412.206C211.541 412.015 211.255 411.847 210.991 411.7C210.727 411.553 210.493 411.48 210.287 411.48C210.141 411.48 210.016 411.524 209.913 411.612C209.825 411.685 209.803 411.795 209.847 411.942C209.95 412.265 209.913 412.529 209.737 412.734C209.561 412.925 209.341 413.02 209.077 413.02ZM231.934 420.126C231.934 421.329 231.663 422.392 231.12 423.316C230.592 424.225 229.873 424.937 228.964 425.45C228.069 425.963 227.065 426.22 225.95 426.22C224.835 426.22 223.823 425.963 222.914 425.45C222.019 424.937 221.301 424.225 220.758 423.316C220.23 422.392 219.966 421.329 219.966 420.126C219.966 418.923 220.23 417.867 220.758 416.958C221.301 416.034 222.019 415.315 222.914 414.802C223.823 414.274 224.835 414.01 225.95 414.01C227.065 414.01 228.069 414.274 228.964 414.802C229.873 415.315 230.592 416.034 231.12 416.958C231.663 417.867 231.934 418.923 231.934 420.126ZM229.294 420.126C229.294 419.378 229.14 418.733 228.832 418.19C228.539 417.633 228.135 417.2 227.622 416.892C227.123 416.584 226.566 416.43 225.95 416.43C225.334 416.43 224.769 416.584 224.256 416.892C223.757 417.2 223.354 417.633 223.046 418.19C222.753 418.733 222.606 419.378 222.606 420.126C222.606 420.859 222.753 421.505 223.046 422.062C223.354 422.605 223.757 423.03 224.256 423.338C224.769 423.646 225.334 423.8 225.95 423.8C226.566 423.8 227.123 423.646 227.622 423.338C228.135 423.03 228.539 422.605 228.832 422.062C229.14 421.505 229.294 420.859 229.294 420.126Z" fill="black"/>
<g filter="url(#filter6_d_1025_175)">
<rect x="410" y="304" width="170" height="180" rx="30" fill="#FBF3F1"/>
<rect x="411" y="305" width="168" height="178" rx="29" stroke="black" stroke-width="2"/>
</g>
<g filter="url(#filter7_d_1025_175)">
<path d="M495.504 343.364L512.276 325L510.996 349.705L536 348.44L517.422 365.02L536 381.59L510.996 380.334L512.276 405.03L495.504 386.675L478.724 405.03L480.004 380.334L455 381.59L473.586 365.02L455 348.44L480.004 349.705L478.724 325L495.504 343.364Z" fill="#E6DFF6"/>
<path d="M494.766 344.038L495.505 344.847L496.243 344.038L511.133 327.734L509.997 349.653L509.94 350.759L511.047 350.703L533.219 349.582L516.757 364.273L515.92 365.02L516.757 365.766L533.219 380.449L511.046 379.336L509.94 379.28L509.997 380.386L511.133 402.297L496.243 386.001L495.505 385.193L494.766 386L479.867 402.298L481.003 380.386L481.06 379.28L479.954 379.336L457.783 380.449L474.252 365.766L475.089 365.02L474.252 364.273L457.783 349.582L479.953 350.703L481.06 350.759L481.003 349.653L479.867 327.733L494.766 344.038Z" stroke="black" stroke-width="2"/>
</g>
<path d="M473.845 457C473.434 457 473.097 456.875 472.833 456.626C472.583 456.362 472.459 456.039 472.459 455.658V442.942C472.459 442.561 472.583 442.245 472.833 441.996C473.097 441.732 473.419 441.6 473.801 441.6H480.951C481.332 441.6 481.647 441.725 481.897 441.974C482.161 442.209 482.293 442.517 482.293 442.898C482.293 443.221 482.161 443.507 481.897 443.756C481.647 444.005 481.332 444.13 480.951 444.13H475.011L475.209 443.866V448.288L475.055 448.002H479.961C480.342 448.002 480.657 448.127 480.907 448.376C481.171 448.611 481.303 448.919 481.303 449.3C481.303 449.623 481.171 449.909 480.907 450.158C480.657 450.407 480.342 450.532 479.961 450.532H475.011L475.209 450.334V455.658C475.209 456.039 475.069 456.362 474.791 456.626C474.527 456.875 474.211 457 473.845 457ZM495.688 451.126C495.688 452.329 495.417 453.392 494.874 454.316C494.346 455.225 493.627 455.937 492.718 456.45C491.823 456.963 490.819 457.22 489.704 457.22C488.589 457.22 487.577 456.963 486.668 456.45C485.773 455.937 485.055 455.225 484.512 454.316C483.984 453.392 483.72 452.329 483.72 451.126C483.72 449.923 483.984 448.867 484.512 447.958C485.055 447.034 485.773 446.315 486.668 445.802C487.577 445.274 488.589 445.01 489.704 445.01C490.819 445.01 491.823 445.274 492.718 445.802C493.627 446.315 494.346 447.034 494.874 447.958C495.417 448.867 495.688 449.923 495.688 451.126ZM493.048 451.126C493.048 450.378 492.894 449.733 492.586 449.19C492.293 448.633 491.889 448.2 491.376 447.892C490.877 447.584 490.32 447.43 489.704 447.43C489.088 447.43 488.523 447.584 488.01 447.892C487.511 448.2 487.108 448.633 486.8 449.19C486.507 449.733 486.36 450.378 486.36 451.126C486.36 451.859 486.507 452.505 486.8 453.062C487.108 453.605 487.511 454.03 488.01 454.338C488.523 454.646 489.088 454.8 489.704 454.8C490.32 454.8 490.877 454.646 491.376 454.338C491.889 454.03 492.293 453.605 492.586 453.062C492.894 452.505 493.048 451.859 493.048 451.126ZM498.13 445.45H503.344C503.696 445.45 503.99 445.567 504.224 445.802C504.459 446.037 504.576 446.33 504.576 446.682C504.576 447.019 504.459 447.305 504.224 447.54C503.99 447.76 503.696 447.87 503.344 447.87H498.13C497.778 447.87 497.485 447.753 497.25 447.518C497.016 447.283 496.898 446.99 496.898 446.638C496.898 446.301 497.016 446.022 497.25 445.802C497.485 445.567 497.778 445.45 498.13 445.45ZM500.484 442.7C500.866 442.7 501.174 442.832 501.408 443.096C501.658 443.345 501.782 443.661 501.782 444.042V453.832C501.782 454.037 501.819 454.206 501.892 454.338C501.98 454.47 502.09 454.565 502.222 454.624C502.369 454.683 502.523 454.712 502.684 454.712C502.86 454.712 503.022 454.683 503.168 454.624C503.315 454.551 503.484 454.514 503.674 454.514C503.88 454.514 504.063 454.609 504.224 454.8C504.4 454.991 504.488 455.255 504.488 455.592C504.488 456.003 504.261 456.34 503.806 456.604C503.366 456.868 502.89 457 502.376 457C502.068 457 501.724 456.978 501.342 456.934C500.976 456.875 500.624 456.751 500.286 456.56C499.964 456.355 499.692 456.047 499.472 455.636C499.252 455.225 499.142 454.661 499.142 453.942V444.042C499.142 443.661 499.267 443.345 499.516 443.096C499.78 442.832 500.103 442.7 500.484 442.7ZM518.311 451.126C518.311 452.329 518.04 453.392 517.497 454.316C516.969 455.225 516.25 455.937 515.341 456.45C514.446 456.963 513.442 457.22 512.327 457.22C511.212 457.22 510.2 456.963 509.291 456.45C508.396 455.937 507.678 455.225 507.135 454.316C506.607 453.392 506.343 452.329 506.343 451.126C506.343 449.923 506.607 448.867 507.135 447.958C507.678 447.034 508.396 446.315 509.291 445.802C510.2 445.274 511.212 445.01 512.327 445.01C513.442 445.01 514.446 445.274 515.341 445.802C516.25 446.315 516.969 447.034 517.497 447.958C518.04 448.867 518.311 449.923 518.311 451.126ZM515.671 451.126C515.671 450.378 515.517 449.733 515.209 449.19C514.916 448.633 514.512 448.2 513.999 447.892C513.5 447.584 512.943 447.43 512.327 447.43C511.711 447.43 511.146 447.584 510.633 447.892C510.134 448.2 509.731 448.633 509.423 449.19C509.13 449.733 508.983 450.378 508.983 451.126C508.983 451.859 509.13 452.505 509.423 453.062C509.731 453.605 510.134 454.03 510.633 454.338C511.146 454.646 511.711 454.8 512.327 454.8C512.943 454.8 513.5 454.646 513.999 454.338C514.512 454.03 514.916 453.605 515.209 453.062C515.517 452.505 515.671 451.859 515.671 451.126Z" fill="black"/>
<defs>
<filter id="filter0_d_1025_175" x="0" y="0" width="180" height="190" filterUnits="userSpaceOnUse" color-interpolation-filters="sRGB">
<feFlood flood-opacity="0" result="BackgroundImageFix"/>
<feColorMatrix in="SourceAlpha" type="matrix" values="0 0 0 0 0 0 0 0 0 0 0 0 0 0 0 0 0 0 127 0" result="hardAlpha"/>
<feOffset dx="10" dy="10"/>
<feComposite in2="hardAlpha" operator="out"/>
<feColorMatrix type="matrix" values="0 0 0 0 0.913725 0 0 0 0 0.631373 0 0 0 0 0.231373 0 0 0 1 0"/>
<feBlend mode="normal" in2="BackgroundImageFix" result="effect1_dropShadow_1025_175"/>
<feBlend mode="normal" in="SourceGraphic" in2="effect1_dropShadow_1025_175" result="shape"/>
</filter>
<filter id="filter1_d_1025_175" x="45" y="24" width="90" height="92.0303" filterUnits="userSpaceOnUse" color-interpolation-filters="sRGB">
<feFlood flood-opacity="0" result="BackgroundImageFix"/>
<feColorMatrix in="SourceAlpha" type="matrix" values="0 0 0 0 0 0 0 0 0 0 0 0 0 0 0 0 0 0 127 0" result="hardAlpha"/>
<feOffset dx="10" dy="10"/>
<feComposite in2="hardAlpha" operator="out"/>
<feColorMatrix type="matrix" values="0 0 0 0 0.913725 0 0 0 0 0.631373 0 0 0 0 0.231373 0 0 0 1 0"/>
<feBlend mode="normal" in2="BackgroundImageFix" result="effect1_dropShadow_1025_175"/>
<feBlend mode="normal" in="SourceGraphic" in2="effect1_dropShadow_1025_175" result="shape"/>
</filter>
<filter id="filter2_d_1025_175" x="315" y="33" width="180" height="190" filterUnits="userSpaceOnUse" color-interpolation-filters="sRGB">
<feFlood flood-opacity="0" result="BackgroundImageFix"/>
<feColorMatrix in="SourceAlpha" type="matrix" values="0 0 0 0 0 0 0 0 0 0 0 0 0 0 0 0 0 0 127 0" result="hardAlpha"/>
<feOffset dx="10" dy="10"/>
<feComposite in2="hardAlpha" operator="out"/>
<feColorMatrix type="matrix" values="0 0 0 0 0.913725 0 0 0 0 0.403922 0 0 0 0 0.301961 0 0 0 1 0"/>
<feBlend mode="normal" in2="BackgroundImageFix" result="effect1_dropShadow_1025_175"/>
<feBlend mode="normal" in="SourceGraphic" in2="effect1_dropShadow_1025_175" result="shape"/>
</filter>
<filter id="filter3_d_1025_175" x="358" y="58" width="93.1602" height="90.0303" filterUnits="userSpaceOnUse" color-interpolation-filters="sRGB">
<feFlood flood-opacity="0" result="BackgroundImageFix"/>
<feColorMatrix in="SourceAlpha" type="matrix" values="0 0 0 0 0 0 0 0 0 0 0 0 0 0 0 0 0 0 127 0" result="hardAlpha"/>
<feOffset dx="10" dy="10"/>
<feComposite in2="hardAlpha" operator="out"/>
<feColorMatrix type="matrix" values="0 0 0 0 0.913725 0 0 0 0 0.403922 0 0 0 0 0.301961 0 0 0 1 0"/>
<feBlend mode="normal" in2="BackgroundImageFix" result="effect1_dropShadow_1025_175"/>
<feBlend mode="normal" in="SourceGraphic" in2="effect1_dropShadow_1025_175" result="shape"/>
</filter>
<filter id="filter4_d_1025_175" x="95" y="271" width="180" height="190" filterUnits="userSpaceOnUse" color-interpolation-filters="sRGB">
<feFlood flood-opacity="0" result="BackgroundImageFix"/>
<feColorMatrix in="SourceAlpha" type="matrix" values="0 0 0 0 0 0 0 0 0 0 0 0 0 0 0 0 0 0 127 0" result="hardAlpha"/>
<feOffset dx="10" dy="10"/>
<feComposite in2="hardAlpha" operator="out"/>
<feColorMatrix type="matrix" values="0 0 0 0 0.337255 0 0 0 0 0.611765 0 0 0 0 0.396078 0 0 0 1 0"/>
<feBlend mode="normal" in2="BackgroundImageFix" result="effect1_dropShadow_1025_175"/>
<feBlend mode="normal" in="SourceGraphic" in2="effect1_dropShadow_1025_175" result="shape"/>
</filter>
<filter id="filter5_d_1025_175" x="144" y="292" width="82.8999" height="90.0303" filterUnits="userSpaceOnUse" color-interpolation-filters="sRGB">
<feFlood flood-opacity="0" result="BackgroundImageFix"/>
<feColorMatrix in="SourceAlpha" type="matrix" values="0 0 0 0 0 0 0 0 0 0 0 0 0 0 0 0 0 0 127 0" result="hardAlpha"/>
<feOffset dx="10" dy="10"/>
<feComposite in2="hardAlpha" operator="out"/>
<feColorMatrix type="matrix" values="0 0 0 0 0.384314 0 0 0 0 0.698039 0 0 0 0 0.45098 0 0 0 1 0"/>
<feBlend mode="normal" in2="BackgroundImageFix" result="effect1_dropShadow_1025_175"/>
<feBlend mode="normal" in="SourceGraphic" in2="effect1_dropShadow_1025_175" result="shape"/>
</filter>
<filter id="filter6_d_1025_175" x="410" y="304" width="180" height="190" filterUnits="userSpaceOnUse" color-interpolation-filters="sRGB">
<feFlood flood-opacity="0" result="BackgroundImageFix"/>
<feColorMatrix in="SourceAlpha" type="matrix" values="0 0 0 0 0 0 0 0 0 0 0 0 0 0 0 0 0 0 127 0" result="hardAlpha"/>
<feOffset dx="10" dy="10"/>
<feComposite in2="hardAlpha" operator="out"/>
<feColorMatrix type="matrix" values="0 0 0 0 0.466667 0 0 0 0 0.305882 0 0 0 0 0.815686 0 0 0 1 0"/>
<feBlend mode="normal" in2="BackgroundImageFix" result="effect1_dropShadow_1025_175"/>
<feBlend mode="normal" in="SourceGraphic" in2="effect1_dropShadow_1025_175" result="shape"/>
</filter>
<filter id="filter7_d_1025_175" x="455" y="325" width="91" height="90.0303" filterUnits="userSpaceOnUse" color-interpolation-filters="sRGB">
<feFlood flood-opacity="0" result="BackgroundImageFix"/>
<feColorMatrix in="SourceAlpha" type="matrix" values="0 0 0 0 0 0 0 0 0 0 0 0 0 0 0 0 0 0 127 0" result="hardAlpha"/>
<feOffset dx="10" dy="10"/>
<feComposite in2="hardAlpha" operator="out"/>
<feColorMatrix type="matrix" values="0 0 0 0 0.760784 0 0 0 0 0.686275 0 0 0 0 0.917647 0 0 0 1 0"/>
<feBlend mode="normal" in2="BackgroundImageFix" result="effect1_dropShadow_1025_175"/>
<feBlend mode="normal" in="SourceGraphic" in2="effect1_dropShadow_1025_175" result="shape"/>
</filter>
</defs>
</svg>
