<svg xmlns="http://www.w3.org/2000/svg" viewBox="0 0 53.74 53.74"><defs><style>.cls-1{fill:#fdfaf9;stroke:#000;stroke-miterlimit:10;stroke-width:2px;}</style></defs><g id="Layer_2" data-name="Layer 2"><g id="Layer_1-2" data-name="Layer 1"><path d="M34.66,13.14l.44-.79A2.62,2.62,0,0,1,40,13.67v.9a2.61,2.61,0,0,0,4,2.29l.78-.46a2.63,2.63,0,0,1,3.6,3.6l-.47.77a2.62,2.62,0,0,0,2.29,4h.91a2.62,2.62,0,0,1,1.31,4.91l-.79.44a2.62,2.62,0,0,0,0,4.58l.79.44A2.62,2.62,0,0,1,51.07,40h-.91a2.61,2.61,0,0,0-2.29,4l.47.78a2.63,2.63,0,0,1-3.6,3.6L44,47.87a2.61,2.61,0,0,0-4,2.29v.91a2.62,2.62,0,0,1-4.91,1.31l-.44-.79a2.62,2.62,0,0,0-4.58,0l-.44.79a2.62,2.62,0,0,1-4.91-1.31v-.91a2.62,2.62,0,0,0-4-2.29l-.77.47a2.63,2.63,0,0,1-3.6-3.6l.46-.78a2.61,2.61,0,0,0-2.29-4h-.9a2.62,2.62,0,0,1-1.32-4.91l.79-.44a2.62,2.62,0,0,0,0-4.58l-.79-.44a2.62,2.62,0,0,1,1.32-4.91h.9a2.62,2.62,0,0,0,2.29-4L16.4,20A2.63,2.63,0,0,1,20,16.4l.77.46a2.62,2.62,0,0,0,4-2.29v-.9a2.62,2.62,0,0,1,4.91-1.32l.44.79A2.62,2.62,0,0,0,34.66,13.14Z"/><path class="cls-1" d="M24.66,3.14l.44-.79A2.62,2.62,0,0,1,30,3.67v.9a2.61,2.61,0,0,0,4,2.29l.78-.46a2.63,2.63,0,0,1,3.6,3.6l-.47.77a2.62,2.62,0,0,0,2.29,4h.91a2.62,2.62,0,0,1,1.31,4.91l-.79.44a2.62,2.62,0,0,0,0,4.58l.79.44A2.62,2.62,0,0,1,41.07,30h-.91a2.61,2.61,0,0,0-2.29,4l.47.78a2.63,2.63,0,0,1-3.6,3.6L34,37.87a2.61,2.61,0,0,0-4,2.29v.91a2.62,2.62,0,0,1-4.91,1.31l-.44-.79a2.62,2.62,0,0,0-4.58,0l-.44.79a2.62,2.62,0,0,1-4.91-1.31v-.91a2.62,2.62,0,0,0-4-2.29l-.77.47a2.63,2.63,0,0,1-3.6-3.6L6.86,34a2.61,2.61,0,0,0-2.29-4h-.9A2.62,2.62,0,0,1,2.35,25.1l.79-.44a2.62,2.62,0,0,0,0-4.58l-.79-.44a2.62,2.62,0,0,1,1.32-4.91h.9a2.62,2.62,0,0,0,2.29-4L6.4,10A2.63,2.63,0,0,1,10,6.4l.77.46a2.62,2.62,0,0,0,4-2.29v-.9a2.62,2.62,0,0,1,4.91-1.32l.44.79A2.62,2.62,0,0,0,24.66,3.14Z"/></g></g></svg>