<svg id="Layer_1" data-name="Layer 1" xmlns="http://www.w3.org/2000/svg" viewBox="0 0 125.62 94.47"><defs><style>.cls-1{fill:#d26174;}.cls-2{fill:#efc6cd;stroke:#000;stroke-miterlimit:10;stroke-width:0.5px;}</style></defs><path class="cls-1" d="M67.48,19.34l4.72-5.23a5.49,5.49,0,0,1,9.55,4l-.36,7a5.49,5.49,0,0,0,5.76,5.76l7-.36a5.49,5.49,0,0,1,4,9.56l-5.22,4.72a5.47,5.47,0,0,0,0,8.14l5.22,4.72a5.49,5.49,0,0,1-4,9.56l-7-.36a5.49,5.49,0,0,0-5.76,5.76l.36,7a5.49,5.49,0,0,1-9.55,4l-4.72-5.23a5.5,5.5,0,0,0-8.15,0l-4.72,5.23a5.49,5.49,0,0,1-9.55-4l.36-7a5.49,5.49,0,0,0-5.76-5.76l-7,.36a5.49,5.49,0,0,1-4-9.56l5.23-4.72a5.47,5.47,0,0,0,0-8.14l-5.23-4.72a5.49,5.49,0,0,1,4-9.56l7,.36a5.49,5.49,0,0,0,5.76-5.76l-.36-7a5.49,5.49,0,0,1,9.55-4l4.72,5.23A5.5,5.5,0,0,0,67.48,19.34Z"/><path class="cls-2" d="M64.41,15.94l4.72-5.23a5.49,5.49,0,0,1,9.56,3.95l-.36,7a5.49,5.49,0,0,0,5.76,5.76l7-.36a5.49,5.49,0,0,1,4,9.55l-5.23,4.72a5.5,5.5,0,0,0,0,8.15l5.23,4.72a5.49,5.49,0,0,1-4,9.55l-7-.36a5.49,5.49,0,0,0-5.76,5.76l.36,7a5.49,5.49,0,0,1-9.56,4L64.41,75a5.47,5.47,0,0,0-8.14,0l-4.72,5.23a5.49,5.49,0,0,1-9.56-4l.36-7a5.49,5.49,0,0,0-5.76-5.76l-7,.36a5.49,5.49,0,0,1-4-9.55l5.23-4.72a5.5,5.5,0,0,0,0-8.15L25.6,36.65a5.49,5.49,0,0,1,4-9.55l7,.36a5.49,5.49,0,0,0,5.76-5.76l-.36-7a5.49,5.49,0,0,1,9.56-3.95l4.72,5.23A5.49,5.49,0,0,0,64.41,15.94Z"/></svg>