<svg xmlns="http://www.w3.org/2000/svg" viewBox="0 0 126.02 125.43"><defs><style>.cls-1{fill:#e9674d;}.cls-2{fill:#f6c3b8;stroke:#000;stroke-width:2px;}.cls-3{font-size:18px;font-family:Quicksand-SemiBold, Quicksand;font-weight:600;}.cls-4{fill:#2c2c2c;fill-rule:evenodd;}</style></defs><g id="Layer_2" data-name="Layer 2"><g id="Layer_1-2" data-name="Layer 1"><path class="cls-1" d="M73.13,18.35l7.68-8.47A9,9,0,0,1,90.9,7.64,9,9,0,0,1,95,11.14a8.81,8.81,0,0,1,1.34,5.22l-.59,11.35A9,9,0,0,0,105.17,37l11.4-.58a8.9,8.9,0,0,1,9.24,10.81,8.79,8.79,0,0,1-2.73,4.66l-8.51,7.65a8.86,8.86,0,0,0-2.19,10.22,8.74,8.74,0,0,0,2.19,3l8.51,7.65a8.87,8.87,0,0,1-1.26,14.14,9,9,0,0,1-5.25,1.34l-11.4-.59a9,9,0,0,0-6.77,2.61,8.72,8.72,0,0,0-2,3.09,8.88,8.88,0,0,0-.6,3.64L96.37,116a8.87,8.87,0,0,1-5.5,8.68,9,9,0,0,1-10.06-2.27L73.13,114a8.76,8.76,0,0,0-3-2.17,8.94,8.94,0,0,0-7.26,0,8.76,8.76,0,0,0-3,2.17l-7.69,8.46a8.92,8.92,0,0,1-15.55-6.4l.58-11.35a9,9,0,0,0-9.38-9.33L16.41,96a8.93,8.93,0,0,1-8.76-5.44,8.88,8.88,0,0,1,2.24-10l8.52-7.65a9,9,0,0,0,2.19-3,8.84,8.84,0,0,0-2.19-10.22L9.89,52a8.91,8.91,0,0,1-2.72-4.66,8.88,8.88,0,0,1,4-9.48,9,9,0,0,1,5.25-1.34l11.4.58a8.92,8.92,0,0,0,9.38-9.33l-.58-11.34a8.88,8.88,0,0,1,5.47-8.72A9,9,0,0,1,52.16,9.94l7.69,8.48a8.95,8.95,0,0,0,10.28,2.12,9,9,0,0,0,3-2.19Z"/><path class="cls-2" d="M67.17,12.4l7.69-8.48a8.94,8.94,0,0,1,15.56,6.49l-.59,11.34a8.88,8.88,0,0,0,.59,3.64,9,9,0,0,0,2,3.1,9.1,9.1,0,0,0,3.11,2,9,9,0,0,0,3.66.59l11.41-.59A9,9,0,0,1,119.38,36a8.86,8.86,0,0,1-2.25,10l-8.52,7.65a8.87,8.87,0,0,0,0,13.21l8.52,7.65a8.86,8.86,0,0,1,2.25,10A8.93,8.93,0,0,1,110.62,90l-11.41-.58a9,9,0,0,0-3.66.59,9.1,9.1,0,0,0-3.11,2,8.89,8.89,0,0,0-2.61,6.74l.59,11.34a8.94,8.94,0,0,1-15.56,6.4l-7.69-8.39a8.88,8.88,0,0,0-3-2.18,9,9,0,0,0-7.27,0,8.88,8.88,0,0,0-3,2.18l-7.69,8.46a8.93,8.93,0,0,1-15.56-6.4l.59-11.35a8.89,8.89,0,0,0-2.61-6.73,8.92,8.92,0,0,0-6.77-2.6L10.45,90a9,9,0,0,1-8.76-5.45,8.9,8.9,0,0,1-.48-5.37,9,9,0,0,1,2.73-4.66l8.52-7.65a8.82,8.82,0,0,0,2.18-10.22,9,9,0,0,0-2.18-3L3.94,46.05a8.9,8.9,0,0,1,6.51-15.48l11.41.58a8.95,8.95,0,0,0,8.79-5.69,8.88,8.88,0,0,0,.59-3.64l-.59-11.35A9,9,0,0,1,46.21,4l7.69,8.48a9,9,0,0,0,6.65,2.91,9.08,9.08,0,0,0,3.63-.79,8.87,8.87,0,0,0,3-2.19Z"/><text class="cls-3" transform="translate(60.54 66.05)">+ 1</text><path class="cls-4" d="M43.38,59.5v3.33a2.62,2.62,0,0,0,1.29,2.1,8.27,8.27,0,0,0,4.46,1.15,8.27,8.27,0,0,0,4.46-1.15,2.6,2.6,0,0,0,1.29-2.1V59.5a.75.75,0,0,0-1.5,0v3.33c0,.33-.27.61-.64.86a6.7,6.7,0,0,1-3.61.89,6.7,6.7,0,0,1-3.61-.89c-.37-.25-.64-.53-.64-.86V59.5a.75.75,0,0,0-1.5,0Z"/><path class="cls-4" d="M43.38,62.83v3.33a2.62,2.62,0,0,0,1.29,2.1,8.27,8.27,0,0,0,4.46,1.15,8.27,8.27,0,0,0,4.46-1.15,2.6,2.6,0,0,0,1.29-2.1V62.83a.75.75,0,0,0-1.5,0v3.33c0,.34-.27.61-.64.86a6.7,6.7,0,0,1-3.61.89A6.7,6.7,0,0,1,45.52,67c-.37-.25-.64-.52-.64-.86V62.83a.75.75,0,0,0-1.5,0Z"/><path class="cls-4" d="M49.13,56.25a8.19,8.19,0,0,0-4.46,1.15,2.35,2.35,0,0,0,0,4.19,8.18,8.18,0,0,0,4.46,1.16,8.18,8.18,0,0,0,4.46-1.16,2.35,2.35,0,0,0,0-4.19A8.19,8.19,0,0,0,49.13,56.25Zm0,1.5a6.7,6.7,0,0,1,3.61.89c.37.25.64.52.64.86s-.27.6-.64.85a6.61,6.61,0,0,1-3.61.9,6.61,6.61,0,0,1-3.61-.9c-.37-.25-.64-.52-.64-.85s.27-.61.64-.86A6.7,6.7,0,0,1,49.13,57.75Z"/><path class="cls-4" d="M36.71,54.9v3.33A2.34,2.34,0,0,0,37.57,60a6.24,6.24,0,0,0,3.08,1.34.75.75,0,1,0,.27-1.47,5.28,5.28,0,0,1-2.09-.78c-.36-.25-.62-.51-.62-.84V54.9a.75.75,0,0,0-1.5,0Z"/><path class="cls-4" d="M36.71,58.23v3.33a2.47,2.47,0,0,0,1.08,1.94,7.36,7.36,0,0,0,3.78,1.28.76.76,0,0,0,.81-.69.75.75,0,0,0-.68-.81,5.81,5.81,0,0,1-3-1,1,1,0,0,1-.5-.76V58.23a.75.75,0,0,0-1.5,0Zm5-1.62a5.77,5.77,0,0,1-3-1,1,1,0,0,1-.5-.75c0-.34.27-.61.64-.86a6.72,6.72,0,0,1,3.61-.89,6.76,6.76,0,0,1,3.62.89c.36.25.63.52.63.86a.75.75,0,0,0,1.5,0,2.6,2.6,0,0,0-1.29-2.1,8.16,8.16,0,0,0-4.46-1.15A8.12,8.12,0,0,0,38,52.8a2.61,2.61,0,0,0-1.3,2.1,2.47,2.47,0,0,0,1.08,1.93,7.32,7.32,0,0,0,3.77,1.28.75.75,0,0,0,.13-1.5Z"/></g></g></svg>