<svg xmlns="http://www.w3.org/2000/svg" viewBox="0 0 126.02 126.43"><defs><style>.cls-1{fill:#fdfaf9;stroke:#000;stroke-miterlimit:10;stroke-width:2px;}</style></defs><g id="Layer_2" data-name="Layer 2"><g id="Layer_1-2" data-name="Layer 1"><path d="M73.13,19.35l7.68-8.47A9,9,0,0,1,90.9,8.64,9,9,0,0,1,95,12.14a8.81,8.81,0,0,1,1.34,5.22l-.59,11.35A9,9,0,0,0,105.17,38l11.4-.58a8.9,8.9,0,0,1,9.24,10.81,8.79,8.79,0,0,1-2.73,4.66l-8.51,7.65a8.86,8.86,0,0,0-2.19,10.22,8.74,8.74,0,0,0,2.19,3l8.51,7.65a8.87,8.87,0,0,1-1.26,14.14,9,9,0,0,1-5.25,1.34l-11.4-.59a9,9,0,0,0-6.77,2.61,8.72,8.72,0,0,0-2,3.09,8.88,8.88,0,0,0-.6,3.64L96.37,117a8.87,8.87,0,0,1-5.5,8.68,9,9,0,0,1-10.06-2.27L73.13,115a8.76,8.76,0,0,0-3-2.17,8.94,8.94,0,0,0-7.26,0,8.76,8.76,0,0,0-3,2.17l-7.69,8.46a8.92,8.92,0,0,1-15.55-6.4l.58-11.35a9,9,0,0,0-9.38-9.33L16.41,97a8.93,8.93,0,0,1-8.76-5.44,8.88,8.88,0,0,1,2.24-10l8.52-7.65a9,9,0,0,0,2.19-3,8.84,8.84,0,0,0-2.19-10.22L9.89,53a8.91,8.91,0,0,1-2.72-4.66,8.88,8.88,0,0,1,4-9.48,9,9,0,0,1,5.25-1.34l11.4.58a8.92,8.92,0,0,0,9.38-9.33l-.58-11.34a8.88,8.88,0,0,1,5.47-8.72,9,9,0,0,1,10.08,2.23l7.69,8.48a8.95,8.95,0,0,0,10.28,2.12,9,9,0,0,0,3-2.19Z"/><path class="cls-1" d="M67.17,12.4l7.69-8.48a8.94,8.94,0,0,1,15.56,6.49l-.59,11.34a8.88,8.88,0,0,0,.59,3.64,9,9,0,0,0,2,3.1,9.1,9.1,0,0,0,3.11,2,9,9,0,0,0,3.66.59l11.41-.59A9,9,0,0,1,119.38,36a8.86,8.86,0,0,1-2.25,10l-8.52,7.65a8.87,8.87,0,0,0,0,13.21l8.52,7.65a8.86,8.86,0,0,1,2.25,10A8.93,8.93,0,0,1,110.62,90l-11.41-.58a9,9,0,0,0-3.66.59,9.1,9.1,0,0,0-3.11,2,8.89,8.89,0,0,0-2.61,6.74l.59,11.34a8.94,8.94,0,0,1-15.56,6.4l-7.69-8.39a8.88,8.88,0,0,0-3-2.18,9,9,0,0,0-7.27,0,8.88,8.88,0,0,0-3,2.18l-7.69,8.46a8.93,8.93,0,0,1-15.56-6.4l.59-11.35a8.89,8.89,0,0,0-2.61-6.73,8.92,8.92,0,0,0-6.77-2.6L10.45,90a9,9,0,0,1-8.76-5.45,8.9,8.9,0,0,1-.48-5.37,9,9,0,0,1,2.73-4.66l8.52-7.65a8.82,8.82,0,0,0,2.18-10.22,9,9,0,0,0-2.18-3L3.94,46.05a8.9,8.9,0,0,1,6.51-15.48l11.41.58a8.95,8.95,0,0,0,8.79-5.69,8.88,8.88,0,0,0,.59-3.64l-.59-11.35A9,9,0,0,1,46.21,4l7.69,8.48a9,9,0,0,0,6.65,2.91,9.08,9.08,0,0,0,3.63-.79,8.87,8.87,0,0,0,3-2.19Z"/></g></g></svg>