<svg xmlns="http://www.w3.org/2000/svg" viewBox="0 0 139.4 141.82"><defs><style>.cls-1{fill:#62b273;}.cls-2{fill:#c0e0c7;stroke:#000;stroke-width:2px;}.cls-3{font-size:18px;font-family:Quicksand-SemiBold, Quicksand;font-weight:600;}.cls-4{fill:#2c2c2c;fill-rule:evenodd;}</style></defs><g id="Layer_2" data-name="Layer 2"><g id="Layer_1-2" data-name="Layer 1"><path class="cls-1" d="M75.1,7.76l8.37,34.89c1.63,6.81,2.45,10.22,4.15,13a19.7,19.7,0,0,0,5.85,6.1c2.66,1.77,5.92,2.62,12.46,4.33l33.47,8.72-33.47,8.72c-6.54,1.71-9.8,2.56-12.46,4.33a19.7,19.7,0,0,0-5.85,6.1c-1.7,2.77-2.52,6.18-4.15,13l-8.37,34.9-8.37-34.9c-1.63-6.8-2.45-10.21-4.15-13a19.7,19.7,0,0,0-5.85-6.1c-2.66-1.77-5.92-2.62-12.45-4.33L10.8,74.79l33.48-8.72c6.53-1.71,9.79-2.56,12.45-4.33a19.7,19.7,0,0,0,5.85-6.1c1.7-2.77,2.52-6.18,4.15-13Z"/><path class="cls-2" d="M68.26.23l8.37,34.9c1.63,6.81,2.45,10.21,4.15,13a19.49,19.49,0,0,0,5.85,6.1c2.66,1.78,5.92,2.63,12.46,4.33l33.47,8.73L99.09,76c-6.54,1.7-9.8,2.55-12.46,4.33a19.6,19.6,0,0,0-5.85,6.1c-1.7,2.77-2.52,6.17-4.15,13l-8.37,34.9L59.89,99.4c-1.63-6.81-2.45-10.21-4.15-13a19.6,19.6,0,0,0-5.85-6.1C47.23,78.54,44,77.69,37.44,76L4,67.27l33.48-8.73C44,56.84,47.23,56,49.89,54.21a19.49,19.49,0,0,0,5.85-6.1c1.7-2.77,2.52-6.17,4.15-13Z"/><text class="cls-3" transform="translate(63.46 75.11)">+20</text><path class="cls-4" d="M51.19,67.83v3.33a2.57,2.57,0,0,0,1.29,2.09,9.15,9.15,0,0,0,8.92,0,2.59,2.59,0,0,0,1.29-2.09V67.83a.75.75,0,1,0-1.5,0v3.33c0,.33-.27.61-.64.86a7.79,7.79,0,0,1-7.23,0c-.36-.25-.63-.53-.63-.86V67.83a.75.75,0,0,0-1.5,0Z"/><path class="cls-4" d="M51.19,71.16v3.33a2.6,2.6,0,0,0,1.29,2.1,9.22,9.22,0,0,0,8.92,0,2.62,2.62,0,0,0,1.29-2.1V71.16a.75.75,0,0,0-1.5,0v3.33c0,.34-.27.61-.64.86a7.79,7.79,0,0,1-7.23,0c-.36-.25-.63-.52-.63-.86V71.16a.75.75,0,0,0-1.5,0Z"/><path class="cls-4" d="M56.94,64.58a8.19,8.19,0,0,0-4.46,1.15,2.35,2.35,0,0,0,0,4.19,9.13,9.13,0,0,0,8.91,0,2.34,2.34,0,0,0,0-4.19A8.12,8.12,0,0,0,56.94,64.58Zm0,1.5a6.61,6.61,0,0,1,3.61.89c.37.25.64.52.64.86s-.27.6-.64.85a7.71,7.71,0,0,1-7.23,0c-.36-.25-.63-.52-.63-.85s.27-.61.63-.86A6.67,6.67,0,0,1,56.94,66.08Z"/><path class="cls-4" d="M44.52,63.23v3.33a2.34,2.34,0,0,0,.86,1.75,6.16,6.16,0,0,0,3.08,1.34.75.75,0,1,0,.26-1.47,5.4,5.4,0,0,1-2.09-.78c-.35-.25-.61-.51-.61-.84V63.23a.75.75,0,0,0-1.5,0Z"/><path class="cls-4" d="M44.52,66.56v3.33a2.47,2.47,0,0,0,1.08,1.94,7.36,7.36,0,0,0,3.78,1.28.75.75,0,0,0,.12-1.5,5.77,5.77,0,0,1-3-1,1,1,0,0,1-.5-.76V66.56a.75.75,0,0,0-1.5,0Zm5-1.62a5.73,5.73,0,0,1-3-1,1,1,0,0,1-.5-.75c0-.34.27-.61.64-.86a6.7,6.7,0,0,1,3.61-.89,6.7,6.7,0,0,1,3.61.89c.37.25.64.52.64.86a.75.75,0,0,0,1.5,0,2.62,2.62,0,0,0-1.29-2.1A8.19,8.19,0,0,0,50.27,60a8.19,8.19,0,0,0-4.46,1.15,2.62,2.62,0,0,0-1.29,2.1,2.49,2.49,0,0,0,1.07,1.93,7.4,7.4,0,0,0,3.78,1.28.75.75,0,0,0,.12-1.5Z"/></g></g></svg>