<svg xmlns="http://www.w3.org/2000/svg" viewBox="0 0 217 216.04"><defs><style>.cls-1{fill:#d26174;}.cls-2{fill:#efc6cd;stroke:#000;stroke-miterlimit:10;stroke-width:2px;}</style></defs><g id="Layer_2" data-name="Layer 2"><g id="Layer_1-2" data-name="Layer 1"><path class="cls-1" d="M114.63,61.12l.87,1.57.87-1.57L142.7,14l-.9,53.94,0,1.8,1.55-.92L189.8,41,161.93,87.3,161,88.84l1.81,0L217,87.92l-47.38,26.19L168,115l1.58.87L217,142.08l-54.19-.91-1.81,0,.93,1.54L189.8,189l-46.48-27.74-1.55-.92,0,1.8.9,53.94-26.33-47.19-.87-1.56-.87,1.56L88.3,216l.9-53.94,0-1.8-1.55.92L41.18,189l27.89-46.28.93-1.54-1.81,0-54.2.91,47.39-26.22L63,115l-1.58-.88L14,87.92l54.2.89,1.81,0-.93-1.54L41.18,41l46.5,27.74,1.55.92,0-1.8L88.3,14Z"/><path class="cls-2" d="M104.63,51.12l.87,1.57.87-1.57L132.7,4l-.9,53.94,0,1.8,1.55-.92L179.8,31,151.93,77.3,151,78.84l1.81,0,54.2-.89-47.39,26.19L158,105l1.58.87L207,132.08l-54.2-.91-1.81,0,.93,1.54L179.8,179l-46.48-27.74-1.55-.92,0,1.8.9,53.94-26.33-47.18-.87-1.57-.87,1.57L78.3,206l.9-53.94,0-1.8-1.55.92L31.18,179l27.89-46.28.93-1.54-1.81,0L4,132.08l47.38-26.22L53,105l-1.58-.88L4,77.92l54.19.89,1.81,0-.93-1.54L31.18,31l46.5,27.74,1.55.92,0-1.8L78.3,4Z"/></g></g></svg>