<svg width="1920" height="614" viewBox="0 0 1920 614" fill="none" xmlns="http://www.w3.org/2000/svg">
<path d="M57.6004 405.228L72.7744 388.702C75.2256 386.042 78.4557 384.195 82.0197 383.415C85.5837 382.635 89.3062 382.96 92.674 384.347C96.0418 385.733 98.8892 388.112 100.824 391.156C102.758 394.2 103.685 397.759 103.476 401.342L102.319 423.461C102.199 425.882 102.596 428.301 103.485 430.563C104.373 432.824 105.733 434.878 107.477 436.592C109.221 438.306 111.31 439.643 113.611 440.516C115.911 441.389 118.373 441.78 120.836 441.662L143.34 440.524C146.985 440.319 150.605 441.23 153.702 443.131C156.799 445.033 159.219 447.832 160.63 451.142C162.04 454.452 162.372 458.111 161.578 461.614C160.785 465.117 158.905 468.292 156.199 470.702L139.385 485.616C137.548 487.24 136.079 489.226 135.073 491.444C134.067 493.663 133.547 496.064 133.547 498.493C133.547 500.922 134.067 503.323 135.073 505.542C136.079 507.76 137.548 509.746 139.385 511.37L156.199 526.284C158.905 528.694 160.785 531.869 161.578 535.372C162.372 538.875 162.04 542.534 160.63 545.844C159.219 549.154 156.799 551.953 153.702 553.855C150.605 555.756 146.985 556.667 143.34 556.461L120.836 555.324C118.373 555.207 115.911 555.597 113.611 556.47C111.31 557.343 109.221 558.68 107.477 560.394C105.733 562.108 104.373 564.162 103.485 566.423C102.596 568.685 102.199 571.104 102.319 573.525L103.476 595.644C103.668 599.222 102.727 602.769 100.782 605.798C98.8371 608.828 95.9843 611.19 92.6167 612.559C89.249 613.928 85.5322 614.237 81.9785 613.443C78.4248 612.649 75.2091 610.791 72.7744 608.126L57.6004 591.758C55.9483 589.952 53.9282 588.507 51.6712 587.519C49.4142 586.53 46.971 586.019 44.5 586.019C42.0291 586.019 39.5858 586.53 37.3288 587.519C35.0719 588.507 33.0517 589.952 31.3996 591.758L16.2257 608.252C13.791 610.918 10.5752 612.775 7.02145 613.569C3.46774 614.363 -0.248993 614.054 -3.61665 612.685C-6.98431 611.316 -9.83711 608.954 -11.782 605.925C-13.7268 602.896 -14.668 599.348 -14.4759 595.771L-13.3186 573.651C-13.1991 571.23 -13.5963 568.811 -14.4846 566.55C-15.3729 564.288 -16.7327 562.234 -18.4766 560.52C-20.2205 558.806 -22.31 557.47 -24.6107 556.596C-26.9114 555.723 -29.3726 555.333 -31.836 555.45L-54.3397 556.588C-57.985 556.793 -61.6054 555.883 -64.7021 553.981C-67.7987 552.079 -70.2191 549.281 -71.6297 545.97C-73.0403 542.66 -73.3717 539.001 -72.5781 535.498C-71.7846 531.995 -69.9052 528.82 -67.199 526.411L-50.3854 511.496C-48.548 509.872 -47.0787 507.886 -46.0729 505.668C-45.0671 503.45 -44.5473 501.048 -44.5473 498.619C-44.5473 496.191 -45.0671 493.789 -46.0729 491.571C-47.0787 489.352 -48.548 487.367 -50.3854 485.743L-67.199 470.828C-69.9052 468.419 -71.7846 465.244 -72.5781 461.741C-73.3717 458.237 -73.0403 454.579 -71.6297 451.268C-70.2191 447.958 -67.7987 445.159 -64.7021 443.258C-61.6054 441.356 -57.985 440.445 -54.3397 440.651L-31.836 441.788C-29.3726 441.906 -26.9114 441.515 -24.6107 440.642C-22.31 439.769 -20.2205 438.433 -18.4766 436.719C-16.7327 435.004 -15.3729 432.951 -14.4846 430.689C-13.5963 428.428 -13.1991 426.009 -13.3186 423.587L-14.4759 401.468C-14.685 397.885 -13.7584 394.326 -11.8238 391.283C-9.8892 388.239 -7.0418 385.86 -3.674 384.473C-0.306183 383.087 3.41624 382.761 6.98026 383.541C10.5443 384.321 13.7745 386.168 16.2257 388.828L31.3996 405.355C33.0607 407.153 35.0881 408.587 37.35 409.565C39.6119 410.543 42.0577 411.042 44.5287 411.03C46.9996 411.018 49.4404 410.495 51.6924 409.496C53.9444 408.496 55.9573 407.042 57.6004 405.228Z" fill="#F1E5E2"/>
<path d="M1871.62 154.944C1821.38 306.711 1707.96 180.95 1866.26 149C1707.96 180.95 1760.66 21.6365 1868.76 141.501C1760.66 21.6365 1926.83 -11.8692 1876.57 139.919C1926.8 -11.8484 2040.22 113.912 1881.93 145.862C2040.22 113.912 1987.55 273.205 1879.44 153.341C1987.55 273.205 1821.36 306.732 1871.62 154.944Z" fill="#F1E5E2"/>
</svg>
